<!-- Generator: Adobe InDesign 21.0 SVG Export Plug-in, SVG Library version: 9.3 build 128 -->
<!DOCTYPE svg PUBLIC "-//W3C//DTD SVG 1.1//EN" "http://www.w3.org/Graphics/SVG/1.1/DTD/svg11.dtd">
<svg version="1.1" xmlns="http://www.w3.org/2000/svg" xmlns:xlink="http://www.w3.org/1999/xlink" x="0%" y="0%" width="100%"
	 height="100%" viewBox="0 0 279.142 266.18" preserveAspectRatio="xMidYMid slice" overflow="visible" xml:space="preserve">
<clipPath id="clp_unq_id_1" fill="none">
	<path shape-rendering="crispEdges" stroke="#000000" d="M0,0h279.142v266.18H0z"/>
</clipPath>
<g clip-path="url(#clp_unq_id_1)" fill="none">
	<path fill="#FFFFFF" d="M10.3,29.395H9.179v5.799c0,1.653-0.476,2.535-2.059,2.535c-1.401,0-1.849-0.77-1.639-2.353l-1.037,0.21
		C4.08,37.533,5.089,38.78,7.162,38.78c1.961,0,3.138-1.233,3.138-3.306z M19.053,38.64h1.191l-3.586-9.245h-1.331l-3.6,9.245h1.177
		l0.981-2.563h4.188z M14.291,35.026l1.261-3.32l0.406-1.247h0.028l0.434,1.289l1.247,3.278z M27.862,38.64h1.345l-3.726-5.477
		l3.684-3.768h-1.471l-4.651,4.763v-4.763h-1.121v9.245h1.121v-2.97l1.653-1.681z M32.034,37.589v-3.11h4.174v-1.051h-4.174v-2.984
		h5.365v-1.051h-6.486v9.245h6.696v-1.051z M43.94,30.291c0.504,0,0.84-0.336,0.84-0.84s-0.336-0.84-0.84-0.84
		s-0.84,0.336-0.84,0.84S43.436,30.291,43.94,30.291z M44.5,31.636H43.38v7.004H44.5z M55.049,31.496
		c-0.882,0-2.003,0.42-2.437,1.373c-0.462-0.939-1.429-1.373-2.409-1.373c-0.868,0-1.737,0.378-2.241,1.233l-0.07-1.093h-0.981
		v7.004h1.121V34.9c0-1.737,1.149-2.423,2.073-2.423s1.653,0.518,1.653,1.793v4.37h1.121v-3.838c0-1.499,0.981-2.325,2.073-2.325
		c0.924,0,1.653,0.518,1.653,1.793v4.37h1.121v-4.482C57.725,32.309,56.394,31.496,55.049,31.496z M68.198,31.496
		c-0.882,0-2.003,0.42-2.437,1.373c-0.462-0.939-1.429-1.373-2.409-1.373c-0.868,0-1.737,0.378-2.241,1.233l-0.07-1.093H60.06v7.004
		h1.121V34.9c0-1.737,1.149-2.423,2.073-2.423c0.924,0,1.653,0.518,1.653,1.793v4.37h1.121v-3.838c0-1.499,0.981-2.325,2.073-2.325
		c0.924,0,1.653,0.518,1.653,1.793v4.37h1.121v-4.482C70.873,32.309,69.543,31.496,68.198,31.496z M79.218,34.774
		c0-1.807-1.107-3.278-3.138-3.278c-2.115,0-3.306,1.373-3.306,3.642s1.275,3.642,3.39,3.642c1.513,0,2.381-0.574,2.914-1.527
		l-0.939-0.49c-0.252,0.672-0.953,1.037-1.975,1.037c-1.289,0-2.143-0.826-2.283-2.241h5.281
		C79.19,35.362,79.218,35.096,79.218,34.774z M76.08,32.477c1.191,0,1.905,0.798,2.059,2.087h-4.244
		C74.063,33.247,74.833,32.477,76.08,32.477z M86.248,28.414v4.314c-0.434-0.728-1.275-1.233-2.325-1.233
		c-1.947,0-3.194,1.359-3.194,3.642s1.247,3.642,3.194,3.642c1.107,0,1.989-0.56,2.395-1.359l0.07,1.219h0.981V28.414z
		 M84.049,37.799c-1.373,0-2.199-1.037-2.199-2.661s0.826-2.661,2.199-2.661c1.331,0,2.199,0.995,2.199,2.577v0.168
		C86.248,36.805,85.38,37.799,84.049,37.799z M90.336,30.291c0.504,0,0.84-0.336,0.84-0.84s-0.336-0.84-0.84-0.84
		s-0.84,0.336-0.84,0.84S89.832,30.291,90.336,30.291z M90.897,31.636h-1.121v7.004h1.121z M99.05,37.827
		c-0.392,0-0.532-0.168-0.532-0.504v-3.446c0-1.625-1.163-2.381-2.759-2.381c-1.359,0-2.465,0.672-2.83,1.709l0.826,0.602
		c0.378-0.882,1.079-1.331,2.003-1.331c1.051,0,1.639,0.616,1.639,1.541v0.392l-1.863,0.308c-1.807,0.308-2.731,1.135-2.731,2.185
		c0,1.261,1.065,1.877,2.381,1.877c0.896,0,1.807-0.378,2.255-1.037c0.126,0.784,0.574,1.037,1.261,1.037
		c0.35,0,0.644-0.07,0.84-0.14l0.07-0.882C99.442,37.799,99.232,37.827,99.05,37.827z M95.24,37.799
		c-0.798,0-1.275-0.308-1.275-0.896c0-0.658,0.63-1.065,1.863-1.289l1.569-0.294v0.967C97.397,37.211,96.361,37.799,95.24,37.799z
		 M104.652,37.211c-0.322,0.322-0.686,0.518-1.191,0.518c-0.616,0-1.051-0.336-1.051-1.023v-4.104h2.591v-0.967h-2.591v-1.989
		l-1.121,0.308v1.681H99.89v0.967h1.401v4.3c0.014,1.359,0.91,1.877,1.947,1.877c0.77,0,1.373-0.238,1.807-0.63z M112.44,34.774
		c0-1.807-1.107-3.278-3.138-3.278c-2.115,0-3.306,1.373-3.306,3.642s1.275,3.642,3.39,3.642c1.513,0,2.381-0.574,2.914-1.527
		l-0.939-0.49c-0.252,0.672-0.953,1.037-1.975,1.037c-1.289,0-2.143-0.826-2.283-2.241h5.281
		C112.412,35.362,112.44,35.096,112.44,34.774z M109.303,32.477c1.191,0,1.905,0.798,2.059,2.087h-4.244
		C107.285,33.247,108.056,32.477,109.303,32.477z M115.436,28.414h-1.121v8.489c0,1.275,0.546,1.877,1.681,1.877
		c0.364,0,0.742-0.07,1.037-0.196l0.182-1.079c-0.406,0.154-0.644,0.196-1.023,0.196c-0.574,0-0.756-0.224-0.756-0.939z
		 M124.066,31.636h-1.205l-1.639,4.426l-0.504,1.387l-0.434-1.247l-1.751-4.566h-1.275l2.928,6.99l-0.364,0.91
		c-0.35,0.924-0.784,1.135-1.275,1.135c-0.392,0-0.812-0.112-1.135-0.56l-0.392,0.953c0.392,0.42,0.84,0.588,1.541,0.588
		c1.037,0,1.667-0.462,2.213-1.835z M132.443,31.496c-1.051,0-1.891,0.504-2.325,1.233v-4.314h-1.121V38.64h0.981l0.07-1.219
		c0.406,0.798,1.289,1.359,2.395,1.359c1.947,0,3.194-1.359,3.194-3.642S134.39,31.496,132.443,31.496z M132.317,37.799
		c-1.331,0-2.199-0.995-2.199-2.577v-0.168c0-1.583,0.868-2.577,2.199-2.577c1.373,0,2.199,1.037,2.199,2.661
		S133.69,37.799,132.317,37.799z M142.569,31.636v3.81c0,1.653-1.051,2.353-2.241,2.353c-1.009,0-1.653-0.434-1.653-1.877v-4.286
		h-1.121v4.58c0,1.849,1.191,2.563,2.577,2.563c1.121,0,2.017-0.364,2.507-1.205l0.07,1.065h0.981v-7.004z M149.403,31.496
		c-1.093,0-1.849,0.434-2.241,1.289l-0.154-1.149h-0.91v7.004h1.121v-3.782c0-1.569,1.009-2.311,1.849-2.311
		c0.364,0,0.672,0.07,0.882,0.182l0.224-1.093C149.963,31.524,149.641,31.496,149.403,31.496z M152.176,30.291
		c0.504,0,0.84-0.336,0.84-0.84s-0.336-0.84-0.84-0.84s-0.84,0.336-0.84,0.84S151.672,30.291,152.176,30.291z M152.737,31.636
		h-1.121v7.004h1.121z M161.156,34.774c0-1.807-1.107-3.278-3.138-3.278c-2.115,0-3.306,1.373-3.306,3.642s1.275,3.642,3.39,3.642
		c1.513,0,2.381-0.574,2.914-1.527l-0.939-0.49c-0.252,0.672-0.953,1.037-1.975,1.037c-1.289,0-2.143-0.826-2.283-2.241h5.281
		C161.128,35.362,161.156,35.096,161.156,34.774z M158.018,32.477c1.191,0,1.905,0.798,2.059,2.087h-4.244
		C156.001,33.247,156.772,32.477,158.018,32.477z M165.469,38.78c1.793,0,2.928-0.854,2.928-2.073c0-1.149-0.7-1.737-2.661-2.059
		c-1.429-0.238-1.891-0.546-1.891-1.149c0-0.518,0.7-1.023,1.639-1.023c0.882,0,1.513,0.336,1.821,1.261l0.953-0.56
		c-0.392-1.149-1.275-1.681-2.773-1.681c-1.709,0-2.759,0.967-2.759,2.101c0,1.177,0.728,1.723,2.717,2.087
		c1.401,0.252,1.835,0.56,1.835,1.079c0,0.574-0.546,1.037-1.695,1.037c-1.009,0-1.877-0.378-2.213-1.233l-0.91,0.63
		C162.99,38.276,164.18,38.78,165.469,38.78z M177.614,31.496c-0.953,0-1.793,0.35-2.283,1.191v-4.272h-1.121V38.64h1.121v-3.712
		c0-1.793,1.149-2.451,2.171-2.451c0.967,0,1.723,0.518,1.723,2.073v4.09h1.121v-4.482
		C180.345,32.351,179.113,31.496,177.614,31.496z M183.243,30.291c0.504,0,0.84-0.336,0.84-0.84s-0.336-0.84-0.84-0.84
		s-0.84,0.336-0.84,0.84S182.739,30.291,183.243,30.291z M183.804,31.636h-1.121v7.004h1.121z M194.352,31.496
		c-0.882,0-2.003,0.42-2.437,1.373c-0.462-0.939-1.429-1.373-2.409-1.373c-0.868,0-1.737,0.378-2.241,1.233l-0.07-1.093h-0.981
		v7.004h1.121V34.9c0-1.737,1.149-2.423,2.073-2.423s1.653,0.518,1.653,1.793v4.37h1.121v-3.838c0-1.499,0.981-2.325,2.073-2.325
		c0.924,0,1.653,0.518,1.653,1.793v4.37h1.121v-4.482C197.028,32.309,195.697,31.496,194.352,31.496z M201.744,38.78
		c1.793,0,2.928-0.854,2.928-2.073c0-1.149-0.7-1.737-2.661-2.059c-1.429-0.238-1.891-0.546-1.891-1.149
		c0-0.518,0.7-1.023,1.639-1.023c0.882,0,1.513,0.336,1.821,1.261l0.953-0.56c-0.392-1.149-1.275-1.681-2.773-1.681
		c-1.709,0-2.759,0.967-2.759,2.101c0,1.177,0.728,1.723,2.717,2.087c1.401,0.252,1.835,0.56,1.835,1.079
		c0,0.574-0.546,1.037-1.695,1.037c-1.009,0-1.877-0.378-2.213-1.233l-0.91,0.63C199.265,38.276,200.455,38.78,201.744,38.78z
		 M212.557,34.774c0-1.807-1.107-3.278-3.138-3.278c-2.115,0-3.306,1.373-3.306,3.642s1.275,3.642,3.39,3.642
		c1.513,0,2.381-0.574,2.914-1.527l-0.939-0.49c-0.252,0.672-0.953,1.037-1.975,1.037c-1.289,0-2.143-0.826-2.283-2.241h5.281
		C212.529,35.362,212.557,35.096,212.557,34.774z M209.419,32.477c1.191,0,1.905,0.798,2.059,2.087h-4.244
		C207.402,33.247,208.172,32.477,209.419,32.477z M215.553,28.414h-1.121v8.489c0,1.275,0.546,1.877,1.681,1.877
		c0.364,0,0.742-0.07,1.037-0.196l0.182-1.079c-0.406,0.154-0.644,0.196-1.023,0.196c-0.574,0-0.756-0.224-0.756-0.939z
		 M220.246,30.572c0-0.84,0.462-1.205,1.275-1.205c0.322,0,0.574,0.07,0.798,0.21l0.294-0.91c-0.252-0.21-0.7-0.322-1.191-0.322
		c-1.541,0-2.297,0.868-2.297,2.115v1.177h-1.401v0.967h1.401v6.037h1.121v-6.037h2.339v-0.967h-2.339z M227.826,30.291
		c0.504,0,0.84-0.336,0.84-0.84s-0.336-0.84-0.84-0.84s-0.84,0.336-0.84,0.84S227.322,30.291,227.826,30.291z M228.387,31.636
		h-1.121v7.004h1.121z M234.201,31.496c-0.967,0-1.863,0.35-2.353,1.233l-0.07-1.093h-0.981v7.004h1.121v-3.726
		c0-1.793,1.149-2.437,2.171-2.437c0.967,0,1.723,0.518,1.723,2.073v4.09h1.121v-4.482
		C236.932,32.351,235.699,31.496,234.201,31.496z M246.611,31.496c-0.953,0-1.793,0.35-2.283,1.191v-4.272h-1.121V38.64h1.121
		v-3.712c0-1.793,1.149-2.451,2.171-2.451c0.967,0,1.723,0.518,1.723,2.073v4.09h1.121v-4.482
		C249.342,32.351,248.11,31.496,246.611,31.496z M252.24,30.291c0.504,0,0.84-0.336,0.84-0.84s-0.336-0.84-0.84-0.84
		s-0.84,0.336-0.84,0.84S251.736,30.291,252.24,30.291z M252.801,31.636h-1.121v7.004h1.121z M257.592,38.78
		c1.793,0,2.928-0.854,2.928-2.073c0-1.149-0.7-1.737-2.661-2.059c-1.429-0.238-1.891-0.546-1.891-1.149
		c0-0.518,0.7-1.023,1.639-1.023c0.882,0,1.513,0.336,1.821,1.261l0.953-0.56c-0.392-1.149-1.275-1.681-2.773-1.681
		c-1.709,0-2.759,0.967-2.759,2.101c0,1.177,0.728,1.723,2.717,2.087c1.401,0.252,1.835,0.56,1.835,1.079
		c0,0.574-0.546,1.037-1.695,1.037c-1.009,0-1.877-0.378-2.213-1.233l-0.91,0.63C255.113,38.276,256.303,38.78,257.592,38.78z"/>
	<path fill="#FFFFFF" d="M14.012,55.636l-1.765,5.701l-1.905-5.701H9.221l-1.905,5.701l-1.765-5.701H4.304l2.437,7.004h1.121
		l1.863-5.575L11.7,62.64h1.121l2.437-7.004z M19.92,55.496c-2.115,0-3.39,1.373-3.39,3.642s1.275,3.642,3.39,3.642
		s3.39-1.373,3.39-3.642S22.035,55.496,19.92,55.496z M19.92,56.463c1.415,0,2.269,1.009,2.269,2.675s-0.854,2.675-2.269,2.675
		s-2.269-1.009-2.269-2.675S18.505,56.463,19.92,56.463z M28.897,55.496c-1.093,0-1.849,0.434-2.241,1.289l-0.154-1.149h-0.91v7.004
		h1.121v-3.782c0-1.569,1.009-2.311,1.849-2.311c0.364,0,0.672,0.07,0.882,0.182l0.224-1.093
		C29.457,55.524,29.135,55.496,28.897,55.496z M36.377,62.64h1.359l-2.9-4.272l2.731-2.731h-1.401l-3.628,3.628v-6.85h-1.121V62.64
		h1.121v-1.975l1.485-1.485z M51.141,58.452h-7.004v1.051h7.004z M62.739,61.743h-2.325c-0.546,0-0.924-0.266-0.924-0.756
		c0-0.476,0.224-0.756,0.784-0.882c0.308,0.084,0.672,0.126,1.079,0.126c1.681,0,2.872-0.981,2.872-2.367
		c0-0.728-0.322-1.345-0.882-1.765c0.196-0.504,0.728-0.77,1.667-0.77l-0.252-0.981c-1.051,0-1.709,0.462-1.975,1.429
		c-0.42-0.182-0.896-0.28-1.429-0.28c-1.681,0-2.872,0.981-2.872,2.367c0,0.812,0.35,1.499,1.023,1.919
		c-0.616,0.21-1.051,0.644-1.051,1.373c0,0.616,0.42,1.037,0.953,1.289c-0.77,0.21-1.233,0.714-1.233,1.359
		c0,1.051,1.009,1.849,3.222,1.849c1.891,0,3.46-0.854,3.46-2.241C64.854,62.402,64.07,61.743,62.739,61.743z M61.352,56.407
		c0.967,0,1.709,0.588,1.709,1.457s-0.742,1.457-1.709,1.457s-1.709-0.588-1.709-1.457S60.386,56.407,61.352,56.407z M61.52,64.713
		c-1.541,0-2.311-0.448-2.311-1.135c0-0.532,0.462-0.868,1.345-0.868h1.877c1.051,0,1.387,0.322,1.387,0.826
		C63.817,64.153,63.005,64.713,61.52,64.713z M69.588,55.496c-2.115,0-3.39,1.373-3.39,3.642s1.275,3.642,3.39,3.642
		s3.39-1.373,3.39-3.642S71.703,55.496,69.588,55.496z M69.588,56.463c1.415,0,2.269,1.009,2.269,2.675s-0.854,2.675-2.269,2.675
		s-2.269-1.009-2.269-2.675S68.173,56.463,69.588,56.463z M75.819,54.291c0.504,0,0.84-0.336,0.84-0.84s-0.336-0.84-0.84-0.84
		s-0.84,0.336-0.84,0.84S75.315,54.291,75.819,54.291z M76.38,55.636h-1.121v7.004h1.121z M82.502,55.496
		c-0.967,0-1.863,0.35-2.353,1.233l-0.07-1.093h-0.981v7.004h1.121v-3.726c0-1.793,1.149-2.437,2.171-2.437
		c0.967,0,1.723,0.518,1.723,2.073v4.09h1.121v-4.482C85.234,56.351,84.001,55.496,82.502,55.496z M91.788,61.743h-2.325
		c-0.546,0-0.924-0.266-0.924-0.756c0-0.476,0.224-0.756,0.784-0.882c0.308,0.084,0.672,0.126,1.079,0.126
		c1.681,0,2.872-0.981,2.872-2.367c0-0.728-0.322-1.345-0.882-1.765c0.196-0.504,0.728-0.77,1.667-0.77l-0.252-0.981
		c-1.051,0-1.709,0.462-1.975,1.429c-0.42-0.182-0.896-0.28-1.429-0.28c-1.681,0-2.872,0.981-2.872,2.367
		c0,0.812,0.35,1.499,1.023,1.919c-0.616,0.21-1.051,0.644-1.051,1.373c0,0.616,0.42,1.037,0.953,1.289
		c-0.77,0.21-1.233,0.714-1.233,1.359c0,1.051,1.009,1.849,3.222,1.849c1.891,0,3.46-0.854,3.46-2.241
		C93.903,62.402,93.118,61.743,91.788,61.743z M90.401,56.407c0.967,0,1.709,0.588,1.709,1.457s-0.742,1.457-1.709,1.457
		s-1.709-0.588-1.709-1.457S89.434,56.407,90.401,56.407z M90.569,64.713c-1.541,0-2.311-0.448-2.311-1.135
		c0-0.532,0.462-0.868,1.345-0.868h1.877c1.051,0,1.387,0.322,1.387,0.826C92.866,64.153,92.054,64.713,90.569,64.713z
		 M104.423,61.211c-0.322,0.322-0.686,0.518-1.191,0.518c-0.616,0-1.051-0.336-1.051-1.023v-4.104h2.591v-0.967h-2.591v-1.989
		l-1.121,0.308v1.681H99.66v0.967h1.401v4.3c0.014,1.359,0.91,1.877,1.947,1.877c0.77,0,1.373-0.238,1.807-0.63z M109.466,55.496
		c-2.115,0-3.39,1.373-3.39,3.642s1.275,3.642,3.39,3.642s3.39-1.373,3.39-3.642S111.581,55.496,109.466,55.496z M109.466,56.463
		c1.415,0,2.269,1.009,2.269,2.675s-0.854,2.675-2.269,2.675s-2.269-1.009-2.269-2.675S108.051,56.463,109.466,56.463z"/>
	<path fill="#EE4799" d="M126.008,61.827c-0.392,0-0.532-0.168-0.532-0.504v-3.446c0-1.625-1.163-2.381-2.759-2.381
		c-1.359,0-2.465,0.672-2.83,1.709l0.826,0.602c0.378-0.882,1.079-1.331,2.003-1.331c1.051,0,1.639,0.616,1.639,1.541v0.392
		l-1.863,0.308c-1.807,0.308-2.731,1.135-2.731,2.185c0,1.261,1.065,1.877,2.381,1.877c0.896,0,1.807-0.378,2.255-1.037
		c0.126,0.784,0.574,1.037,1.261,1.037c0.35,0,0.644-0.07,0.84-0.14l0.07-0.882C126.4,61.799,126.19,61.827,126.008,61.827z
		 M122.198,61.799c-0.798,0-1.275-0.308-1.275-0.896c0-0.658,0.63-1.065,1.863-1.289l1.569-0.294v0.967
		C124.355,61.211,123.319,61.799,122.198,61.799z M136.556,55.496c-1.107,0-1.989,0.56-2.395,1.359l-0.07-1.219h-0.981v9.945h1.121
		v-4.034c0.434,0.728,1.275,1.233,2.325,1.233c1.947,0,3.194-1.359,3.194-3.642S138.503,55.496,136.556,55.496z M136.43,61.799
		c-1.331,0-2.199-0.995-2.199-2.577v-0.168c0-1.583,0.868-2.577,2.199-2.577c1.373,0,2.199,1.037,2.199,2.661
		S137.803,61.799,136.43,61.799z M145.001,55.496c-2.115,0-3.39,1.373-3.39,3.642s1.275,3.642,3.39,3.642s3.39-1.373,3.39-3.642
		S147.116,55.496,145.001,55.496z M145.001,56.463c1.415,0,2.269,1.009,2.269,2.675s-0.854,2.675-2.269,2.675
		s-2.269-1.009-2.269-2.675S143.586,56.463,145.001,56.463z M151.737,52.414h-1.121v8.489c0,1.275,0.546,1.877,1.681,1.877
		c0.364,0,0.742-0.07,1.037-0.196l0.182-1.079c-0.406,0.154-0.644,0.196-1.023,0.196c-0.574,0-0.756-0.224-0.756-0.939z
		 M155.632,54.291c0.504,0,0.84-0.336,0.84-0.84s-0.336-0.84-0.84-0.84s-0.84,0.336-0.84,0.84S155.128,54.291,155.632,54.291z
		 M156.193,55.636h-1.121v7.004h1.121z M161.867,55.496c-2.115,0-3.39,1.373-3.39,3.642s1.275,3.642,3.39,3.642
		c1.485,0,2.493-0.77,2.97-2.059l-1.037-0.364c-0.21,0.924-0.868,1.443-1.961,1.443c-1.401,0-2.241-0.995-2.241-2.661
		s0.84-2.661,2.241-2.661c0.967,0,1.569,0.49,1.863,1.387l1.065-0.504C164.248,56.21,163.31,55.496,161.867,55.496z M172.932,58.774
		c0-1.807-1.107-3.278-3.138-3.278c-2.115,0-3.306,1.373-3.306,3.642s1.275,3.642,3.39,3.642c1.513,0,2.381-0.574,2.914-1.527
		l-0.939-0.49c-0.252,0.672-0.953,1.037-1.975,1.037c-1.289,0-2.143-0.826-2.283-2.241h5.281
		C172.904,59.362,172.932,59.096,172.932,58.774z M169.794,56.477c1.191,0,1.905,0.798,2.059,2.087h-4.244
		C167.777,57.247,168.547,56.477,169.794,56.477z M179.752,58.396h-4.622v1.163h4.622z M183.492,52.414h-1.121v8.489
		c0,1.275,0.546,1.877,1.681,1.877c0.364,0,0.742-0.07,1.037-0.196l0.182-1.079c-0.406,0.154-0.644,0.196-1.023,0.196
		c-0.574,0-0.756-0.224-0.756-0.939z M187.387,54.291c0.504,0,0.84-0.336,0.84-0.84s-0.336-0.84-0.84-0.84s-0.84,0.336-0.84,0.84
		S186.883,54.291,187.387,54.291z M187.947,55.636h-1.121v7.004h1.121z M195.624,62.64h1.359l-2.9-4.272l2.731-2.731h-1.401
		l-3.628,3.628v-6.85h-1.121V62.64h1.121v-1.975l1.485-1.485z M204.476,58.774c0-1.807-1.107-3.278-3.138-3.278
		c-2.115,0-3.306,1.373-3.306,3.642s1.275,3.642,3.39,3.642c1.513,0,2.381-0.574,2.914-1.527l-0.939-0.49
		c-0.252,0.672-0.953,1.037-1.975,1.037c-1.289,0-2.143-0.826-2.283-2.241h5.281C204.448,59.362,204.476,59.096,204.476,58.774z
		 M201.339,56.477c1.191,0,1.905,0.798,2.059,2.087h-4.244C199.321,57.247,200.092,56.477,201.339,56.477z M214.225,62.78
		c1.793,0,2.928-0.854,2.928-2.073c0-1.149-0.7-1.737-2.661-2.059c-1.429-0.238-1.891-0.546-1.891-1.149
		c0-0.518,0.7-1.023,1.639-1.023c0.882,0,1.513,0.336,1.821,1.261l0.953-0.56c-0.392-1.149-1.275-1.681-2.773-1.681
		c-1.709,0-2.759,0.967-2.759,2.101c0,1.177,0.728,1.723,2.717,2.087c1.401,0.252,1.835,0.56,1.835,1.079
		c0,0.574-0.546,1.037-1.695,1.037c-1.009,0-1.877-0.378-2.213-1.233l-0.91,0.63C211.746,62.276,212.937,62.78,214.225,62.78z
		 M225.347,58.774c0-1.807-1.107-3.278-3.138-3.278c-2.115,0-3.306,1.373-3.306,3.642s1.275,3.642,3.39,3.642
		c1.513,0,2.381-0.574,2.914-1.527l-0.939-0.49c-0.252,0.672-0.953,1.037-1.975,1.037c-1.289,0-2.143-0.826-2.283-2.241h5.281
		C225.319,59.362,225.347,59.096,225.347,58.774z M222.209,56.477c1.191,0,1.905,0.798,2.059,2.087h-4.244
		C220.192,57.247,220.962,56.477,222.209,56.477z M231.271,61.211c-0.322,0.322-0.686,0.518-1.191,0.518
		c-0.616,0-1.051-0.336-1.051-1.023v-4.104h2.591v-0.967h-2.591v-1.989l-1.121,0.308v1.681h-1.401v0.967h1.401v4.3
		c0.014,1.359,0.91,1.877,1.947,1.877c0.77,0,1.373-0.238,1.807-0.63z M236.356,61.211c-0.322,0.322-0.686,0.518-1.191,0.518
		c-0.616,0-1.051-0.336-1.051-1.023v-4.104h2.591v-0.967h-2.591v-1.989l-1.121,0.308v1.681h-1.401v0.967h1.401v4.3
		c0.014,1.359,0.91,1.877,1.947,1.877c0.77,0,1.373-0.238,1.807-0.63z M239.003,54.291c0.504,0,0.84-0.336,0.84-0.84
		s-0.336-0.84-0.84-0.84s-0.84,0.336-0.84,0.84S238.499,54.291,239.003,54.291z M239.564,55.636h-1.121v7.004h1.121z
		 M245.686,55.496c-0.967,0-1.863,0.35-2.353,1.233l-0.07-1.093h-0.981v7.004h1.121v-3.726c0-1.793,1.149-2.437,2.171-2.437
		c0.967,0,1.723,0.518,1.723,2.073v4.09h1.121v-4.482C248.418,56.351,247.185,55.496,245.686,55.496z M254.972,61.743h-2.325
		c-0.546,0-0.924-0.266-0.924-0.756c0-0.476,0.224-0.756,0.784-0.882c0.308,0.084,0.672,0.126,1.079,0.126
		c1.681,0,2.872-0.981,2.872-2.367c0-0.728-0.322-1.345-0.882-1.765c0.196-0.504,0.728-0.77,1.667-0.77l-0.252-0.981
		c-1.051,0-1.709,0.462-1.975,1.429c-0.42-0.182-0.896-0.28-1.429-0.28c-1.681,0-2.872,0.981-2.872,2.367
		c0,0.812,0.35,1.499,1.023,1.919c-0.616,0.21-1.051,0.644-1.051,1.373c0,0.616,0.42,1.037,0.953,1.289
		c-0.77,0.21-1.233,0.714-1.233,1.359c0,1.051,1.009,1.849,3.222,1.849c1.891,0,3.46-0.854,3.46-2.241
		C257.087,62.402,256.302,61.743,254.972,61.743z M253.585,56.407c0.967,0,1.709,0.588,1.709,1.457s-0.742,1.457-1.709,1.457
		s-1.709-0.588-1.709-1.457S252.618,56.407,253.585,56.407z M253.753,64.713c-1.541,0-2.311-0.448-2.311-1.135
		c0-0.532,0.462-0.868,1.345-0.868h1.877c1.051,0,1.387,0.322,1.387,0.826C256.05,64.153,255.238,64.713,253.753,64.713z"/>
	<path fill="#FFFFFF" d="M259.425,60.959c-0.546,0-0.91,0.364-0.91,0.91s0.364,0.91,0.91,0.91s0.91-0.364,0.91-0.91
		S259.971,60.959,259.425,60.959z"/>
	<path fill="#FFFFFF" d="M5.299,86.64h3.278c2.185,0,3.404-1.023,3.404-2.591c0-1.009-0.7-1.891-1.793-2.101v-0.014
		c0.995-0.196,1.555-1.051,1.555-1.989c0-1.569-0.967-2.549-3.152-2.549H5.299z M6.419,81.457v-3.012h2.185
		c1.317,0,1.961,0.49,1.961,1.499c0,1.023-0.644,1.513-1.961,1.513z M6.419,85.589v-3.082h2.423c1.317,0,1.961,0.56,1.961,1.541
		s-0.644,1.541-1.961,1.541z M19.857,79.636v3.81c0,1.653-1.051,2.353-2.241,2.353c-1.009,0-1.653-0.434-1.653-1.877v-4.286h-1.121
		v4.58c0,1.849,1.191,2.563,2.577,2.563c1.121,0,2.017-0.364,2.507-1.205l0.07,1.065h0.981v-7.004z M28.154,85.211
		c-0.322,0.322-0.686,0.518-1.191,0.518c-0.616,0-1.051-0.336-1.051-1.023v-4.104h2.591v-0.967h-2.591v-1.989l-1.121,0.308v1.681
		h-1.401v0.967h1.401v4.3c0.014,1.359,0.91,1.877,1.947,1.877c0.77,0,1.373-0.238,1.807-0.63z M40.558,85.211
		c-0.322,0.322-0.686,0.518-1.191,0.518c-0.616,0-1.051-0.336-1.051-1.023v-4.104h2.591v-0.967h-2.591v-1.989l-1.121,0.308v1.681
		h-1.401v0.967h1.401v4.3c0.014,1.359,0.91,1.877,1.947,1.877c0.77,0,1.373-0.238,1.807-0.63z M46.615,79.496
		c-0.953,0-1.793,0.35-2.283,1.191v-4.272h-1.121V86.64h1.121v-3.712c0-1.793,1.149-2.451,2.171-2.451
		c0.967,0,1.723,0.518,1.723,2.073v4.09h1.121v-4.482C49.347,80.351,48.114,79.496,46.615,79.496z M58.568,82.774
		c0-1.807-1.107-3.278-3.138-3.278c-2.115,0-3.306,1.373-3.306,3.642s1.275,3.642,3.39,3.642c1.513,0,2.381-0.574,2.914-1.527
		l-0.939-0.49c-0.252,0.672-0.953,1.037-1.975,1.037c-1.289,0-2.143-0.826-2.283-2.241h5.281
		C58.54,83.362,58.568,83.096,58.568,82.774z M55.43,80.477c1.191,0,1.905,0.798,2.059,2.087h-4.244
		C53.413,81.247,54.184,80.477,55.43,80.477z M64.68,79.496c-1.093,0-1.849,0.434-2.241,1.289l-0.154-1.149h-0.91v7.004h1.121
		v-3.782c0-1.569,1.009-2.311,1.849-2.311c0.364,0,0.672,0.07,0.882,0.182l0.224-1.093C65.24,79.524,64.918,79.496,64.68,79.496z
		 M73.553,82.774c0-1.807-1.107-3.278-3.138-3.278c-2.115,0-3.306,1.373-3.306,3.642s1.275,3.642,3.39,3.642
		c1.513,0,2.381-0.574,2.914-1.527l-0.939-0.49c-0.252,0.672-0.953,1.037-1.975,1.037c-1.289,0-2.143-0.826-2.283-2.241h5.281
		C73.525,83.362,73.553,83.096,73.553,82.774z M70.415,80.477c1.191,0,1.905,0.798,2.059,2.087H68.23
		C68.398,81.247,69.168,80.477,70.415,80.477z M76.373,76.835c-0.504,0-0.91,0.434-0.91,0.939c0,0.602,0.434,0.882,0.77,0.882
		c0.224,0,0.322-0.042,0.392-0.098l0.056,0.028c-0.126,0.588-0.616,1.177-1.373,1.429l0.588,0.546
		c1.065-0.504,1.527-1.429,1.527-2.367C77.424,77.395,77.032,76.835,76.373,76.835z M81.816,86.78c1.793,0,2.928-0.854,2.928-2.073
		c0-1.149-0.7-1.737-2.661-2.059c-1.429-0.238-1.891-0.546-1.891-1.149c0-0.518,0.7-1.023,1.639-1.023
		c0.882,0,1.513,0.336,1.821,1.261l0.953-0.56c-0.392-1.149-1.275-1.681-2.773-1.681c-1.709,0-2.759,0.967-2.759,2.101
		c0,1.177,0.728,1.723,2.717,2.087c1.401,0.252,1.835,0.56,1.835,1.079c0,0.574-0.546,1.037-1.695,1.037
		c-1.009,0-1.877-0.378-2.213-1.233l-0.91,0.63C79.336,86.276,80.527,86.78,81.816,86.78z M97.035,79.496
		c-0.967,0-1.863,0.35-2.353,1.233l-0.07-1.093h-0.981v7.004h1.121v-3.726c0-1.793,1.149-2.437,2.171-2.437
		c0.967,0,1.723,0.518,1.723,2.073v4.09h1.121v-4.482C99.766,80.351,98.533,79.496,97.035,79.496z M105.934,79.496
		c-2.115,0-3.39,1.373-3.39,3.642s1.275,3.642,3.39,3.642s3.39-1.373,3.39-3.642S108.049,79.496,105.934,79.496z M105.934,80.463
		c1.415,0,2.269,1.009,2.269,2.675s-0.854,2.675-2.269,2.675s-2.269-1.009-2.269-2.675S104.519,80.463,105.934,80.463z
		 M124.318,82.774c0-1.807-1.107-3.278-3.138-3.278c-2.115,0-3.306,1.373-3.306,3.642s1.275,3.642,3.39,3.642
		c1.513,0,2.381-0.574,2.914-1.527l-0.939-0.49c-0.252,0.672-0.953,1.037-1.975,1.037c-1.289,0-2.143-0.826-2.283-2.241h5.281
		C124.289,83.362,124.318,83.096,124.318,82.774z M121.18,80.477c1.191,0,1.905,0.798,2.059,2.087h-4.244
		C119.163,81.247,119.933,80.477,121.18,80.477z M129.505,86.78c1.793,0,2.928-0.854,2.928-2.073c0-1.149-0.7-1.737-2.661-2.059
		c-1.429-0.238-1.891-0.546-1.891-1.149c0-0.518,0.7-1.023,1.639-1.023c0.882,0,1.513,0.336,1.821,1.261l0.953-0.56
		c-0.392-1.149-1.275-1.681-2.773-1.681c-1.709,0-2.759,0.967-2.759,2.101c0,1.177,0.728,1.723,2.717,2.087
		c1.401,0.252,1.835,0.56,1.835,1.079c0,0.574-0.546,1.037-1.695,1.037c-1.009,0-1.877-0.378-2.213-1.233l-0.91,0.63
		C127.026,86.276,128.216,86.78,129.505,86.78z M139.077,85.211c-0.322,0.322-0.686,0.518-1.191,0.518
		c-0.616,0-1.051-0.336-1.051-1.023v-4.104h2.591v-0.967h-2.591v-1.989l-1.121,0.308v1.681h-1.401v0.967h1.401v4.3
		c0.014,1.359,0.91,1.877,1.947,1.877c0.77,0,1.373-0.238,1.807-0.63z M147.474,85.827c-0.392,0-0.532-0.168-0.532-0.504v-3.446
		c0-1.625-1.163-2.381-2.759-2.381c-1.359,0-2.465,0.672-2.83,1.709l0.826,0.602c0.378-0.882,1.079-1.331,2.003-1.331
		c1.051,0,1.639,0.616,1.639,1.541v0.392l-1.863,0.308c-1.807,0.308-2.731,1.135-2.731,2.185c0,1.261,1.065,1.877,2.381,1.877
		c0.896,0,1.807-0.378,2.255-1.037c0.126,0.784,0.574,1.037,1.261,1.037c0.35,0,0.644-0.07,0.84-0.14l0.07-0.882
		C147.866,85.799,147.656,85.827,147.474,85.827z M143.663,85.799c-0.798,0-1.275-0.308-1.275-0.896c0-0.658,0.63-1.065,1.863-1.289
		l1.569-0.294v0.967C145.821,85.211,144.784,85.799,143.663,85.799z M153.782,79.496c-1.051,0-1.891,0.504-2.325,1.233v-4.314
		h-1.121V86.64h0.981l0.07-1.219c0.406,0.798,1.289,1.359,2.395,1.359c1.947,0,3.194-1.359,3.194-3.642
		S155.729,79.496,153.782,79.496z M153.656,85.799c-1.331,0-2.199-0.995-2.199-2.577v-0.168c0-1.583,0.868-2.577,2.199-2.577
		c1.373,0,2.199,1.037,2.199,2.661S155.028,85.799,153.656,85.799z M160.902,76.414h-1.121v8.489c0,1.275,0.546,1.877,1.681,1.877
		c0.364,0,0.742-0.07,1.037-0.196l0.182-1.079c-0.406,0.154-0.644,0.196-1.023,0.196c-0.574,0-0.756-0.224-0.756-0.939z
		 M165.363,78.291c0.504,0,0.84-0.336,0.84-0.84s-0.336-0.84-0.84-0.84s-0.84,0.336-0.84,0.84S164.859,78.291,165.363,78.291z
		 M165.923,79.636h-1.121v7.004h1.121z M171.589,86.78c1.793,0,2.928-0.854,2.928-2.073c0-1.149-0.7-1.737-2.661-2.059
		c-1.429-0.238-1.891-0.546-1.891-1.149c0-0.518,0.7-1.023,1.639-1.023c0.882,0,1.513,0.336,1.821,1.261l0.953-0.56
		c-0.392-1.149-1.275-1.681-2.773-1.681c-1.709,0-2.759,0.967-2.759,2.101c0,1.177,0.728,1.723,2.717,2.087
		c1.401,0.252,1.835,0.56,1.835,1.079c0,0.574-0.546,1.037-1.695,1.037c-1.009,0-1.877-0.378-2.213-1.233l-0.91,0.63
		C169.11,86.276,170.301,86.78,171.589,86.78z M180.671,79.496c-0.953,0-1.793,0.35-2.283,1.191v-4.272h-1.121V86.64h1.121v-3.712
		c0-1.793,1.149-2.451,2.171-2.451c0.967,0,1.723,0.518,1.723,2.073v4.09h1.121v-4.482C183.403,80.351,182.17,79.496,180.671,79.496
		z M192.624,82.774c0-1.807-1.107-3.278-3.138-3.278c-2.115,0-3.306,1.373-3.306,3.642s1.275,3.642,3.39,3.642
		c1.513,0,2.381-0.574,2.914-1.527l-0.939-0.49c-0.252,0.672-0.953,1.037-1.975,1.037c-1.289,0-2.143-0.826-2.283-2.241h5.281
		C192.596,83.362,192.624,83.096,192.624,82.774z M189.486,80.477c1.191,0,1.905,0.798,2.059,2.087h-4.244
		C187.469,81.247,188.24,80.477,189.486,80.477z M200.529,76.414v4.314c-0.434-0.728-1.275-1.233-2.325-1.233
		c-1.947,0-3.194,1.359-3.194,3.642s1.247,3.642,3.194,3.642c1.107,0,1.989-0.56,2.395-1.359l0.07,1.219h0.981V76.414z
		 M198.33,85.799c-1.373,0-2.199-1.037-2.199-2.661s0.826-2.661,2.199-2.661c1.331,0,2.199,0.995,2.199,2.577v0.168
		C200.529,84.805,199.661,85.799,198.33,85.799z M211.559,80.561c0.504,0,0.91-0.434,0.91-0.939c0-0.602-0.434-0.882-0.77-0.882
		c-0.224,0-0.322,0.042-0.392,0.098l-0.056-0.028c0.126-0.588,0.616-1.177,1.373-1.429l-0.588-0.546
		c-1.065,0.504-1.527,1.429-1.527,2.367C210.508,80,210.9,80.561,211.559,80.561z M214.192,80.561c0.504,0,0.91-0.434,0.91-0.939
		c0-0.602-0.434-0.882-0.77-0.882c-0.224,0-0.322,0.042-0.392,0.098l-0.056-0.028c0.126-0.588,0.616-1.177,1.373-1.429l-0.588-0.546
		c-1.065,0.504-1.527,1.429-1.527,2.367C213.142,80,213.534,80.561,214.192,80.561z M221.258,79.496
		c-1.107,0-1.989,0.56-2.395,1.359l-0.07-1.219h-0.981v9.945h1.121v-4.034c0.434,0.728,1.275,1.233,2.325,1.233
		c1.947,0,3.194-1.359,3.194-3.642S223.205,79.496,221.258,79.496z M221.132,85.799c-1.331,0-2.199-0.995-2.199-2.577v-0.168
		c0-1.583,0.868-2.577,2.199-2.577c1.373,0,2.199,1.037,2.199,2.661S222.504,85.799,221.132,85.799z M230.269,79.496
		c-2.115,0-3.39,1.373-3.39,3.642s1.275,3.642,3.39,3.642s3.39-1.373,3.39-3.642S232.384,79.496,230.269,79.496z M230.269,80.463
		c1.415,0,2.269,1.009,2.269,2.675s-0.854,2.675-2.269,2.675S228,84.805,228,83.138S228.854,80.463,230.269,80.463z M237.571,76.414
		h-1.121v8.489c0,1.275,0.546,1.877,1.681,1.877c0.364,0,0.742-0.07,1.037-0.196l0.182-1.079c-0.406,0.154-0.644,0.196-1.023,0.196
		c-0.574,0-0.756-0.224-0.756-0.939z M242.032,78.291c0.504,0,0.84-0.336,0.84-0.84s-0.336-0.84-0.84-0.84s-0.84,0.336-0.84,0.84
		S241.528,78.291,242.032,78.291z M242.593,79.636h-1.121v7.004h1.121z M248.833,79.496c-2.115,0-3.39,1.373-3.39,3.642
		s1.275,3.642,3.39,3.642c1.485,0,2.493-0.77,2.97-2.059l-1.037-0.364c-0.21,0.924-0.868,1.443-1.961,1.443
		c-1.401,0-2.241-0.995-2.241-2.661s0.84-2.661,2.241-2.661c0.967,0,1.569,0.49,1.863,1.387l1.065-0.504
		C251.214,80.21,250.276,79.496,248.833,79.496z M260.464,82.774c0-1.807-1.107-3.278-3.138-3.278c-2.115,0-3.306,1.373-3.306,3.642
		s1.275,3.642,3.39,3.642c1.513,0,2.381-0.574,2.914-1.527l-0.939-0.49c-0.252,0.672-0.953,1.037-1.975,1.037
		c-1.289,0-2.143-0.826-2.283-2.241h5.281C260.436,83.362,260.464,83.096,260.464,82.774z M257.326,80.477
		c1.191,0,1.905,0.798,2.059,2.087h-4.244C255.309,81.247,256.08,80.477,257.326,80.477z"/>
	<path fill="#FFFFFF" d="M10.188,100.414v4.314c-0.434-0.728-1.275-1.233-2.325-1.233c-1.947,0-3.194,1.359-3.194,3.642
		s1.247,3.642,3.194,3.642c1.107,0,1.989-0.56,2.395-1.359l0.07,1.219h0.981v-10.226z M7.988,109.799
		c-1.373,0-2.199-1.037-2.199-2.661s0.826-2.661,2.199-2.661c1.331,0,2.199,0.995,2.199,2.577v0.168
		C10.188,108.805,9.319,109.799,7.988,109.799z M19.9,106.774c0-1.807-1.107-3.278-3.138-3.278c-2.115,0-3.306,1.373-3.306,3.642
		s1.275,3.642,3.39,3.642c1.513,0,2.381-0.574,2.914-1.527l-0.939-0.49c-0.252,0.672-0.953,1.037-1.975,1.037
		c-1.289,0-2.143-0.826-2.283-2.241h5.281C19.872,107.362,19.9,107.096,19.9,106.774z M16.762,104.477
		c1.191,0,1.905,0.798,2.059,2.087h-4.244C14.745,105.247,15.515,104.477,16.762,104.477z M25.452,103.496
		c-1.107,0-1.989,0.56-2.395,1.359l-0.07-1.219h-0.981v9.945h1.121v-4.034c0.434,0.728,1.275,1.233,2.325,1.233
		c1.947,0,3.194-1.359,3.194-3.642S27.399,103.496,25.452,103.496z M25.326,109.799c-1.331,0-2.199-0.995-2.199-2.577v-0.168
		c0-1.583,0.868-2.577,2.199-2.577c1.373,0,2.199,1.037,2.199,2.661S26.699,109.799,25.326,109.799z M36.551,109.827
		c-0.392,0-0.532-0.168-0.532-0.504v-3.446c0-1.625-1.163-2.381-2.759-2.381c-1.359,0-2.465,0.672-2.83,1.709l0.826,0.602
		c0.378-0.882,1.079-1.331,2.003-1.331c1.051,0,1.639,0.616,1.639,1.541v0.392l-1.863,0.308c-1.807,0.308-2.731,1.135-2.731,2.185
		c0,1.261,1.065,1.877,2.381,1.877c0.896,0,1.807-0.378,2.255-1.037c0.126,0.784,0.574,1.037,1.261,1.037
		c0.35,0,0.644-0.07,0.84-0.14l0.07-0.882C36.943,109.799,36.733,109.827,36.551,109.827z M32.741,109.799
		c-0.798,0-1.275-0.308-1.275-0.896c0-0.658,0.63-1.065,1.863-1.289l1.569-0.294v0.967
		C34.898,109.211,33.861,109.799,32.741,109.799z M42.019,103.496c-1.093,0-1.849,0.434-2.241,1.289l-0.154-1.149h-0.91v7.004h1.121
		v-3.782c0-1.569,1.009-2.311,1.849-2.311c0.364,0,0.672,0.07,0.882,0.182l0.224-1.093C42.58,103.524,42.257,103.496,42.019,103.496
		z M47.881,109.211c-0.322,0.322-0.686,0.518-1.191,0.518c-0.616,0-1.051-0.336-1.051-1.023v-4.104h2.591v-0.967H45.64v-1.989
		l-1.121,0.308v1.681h-1.401v0.967h1.401v4.3c0.014,1.359,0.91,1.877,1.947,1.877c0.77,0,1.373-0.238,1.807-0.63z M57.973,103.496
		c-0.882,0-2.003,0.42-2.437,1.373c-0.462-0.939-1.429-1.373-2.409-1.373c-0.868,0-1.737,0.378-2.241,1.233l-0.07-1.093h-0.981
		v7.004h1.121v-3.74c0-1.737,1.149-2.423,2.073-2.423s1.653,0.518,1.653,1.793v4.37h1.121v-3.838c0-1.499,0.981-2.325,2.073-2.325
		c0.924,0,1.653,0.518,1.653,1.793v4.37h1.121v-4.482C60.649,104.309,59.318,103.496,57.973,103.496z M69.168,106.774
		c0-1.807-1.107-3.278-3.138-3.278c-2.115,0-3.306,1.373-3.306,3.642s1.275,3.642,3.39,3.642c1.513,0,2.381-0.574,2.914-1.527
		l-0.939-0.49c-0.252,0.672-0.953,1.037-1.975,1.037c-1.289,0-2.143-0.826-2.283-2.241h5.281
		C69.14,107.362,69.168,107.096,69.168,106.774z M66.03,104.477c1.191,0,1.905,0.798,2.059,2.087h-4.244
		C64.013,105.247,64.783,104.477,66.03,104.477z M74.678,103.496c-0.967,0-1.863,0.35-2.353,1.233l-0.07-1.093h-0.981v7.004h1.121
		v-3.726c0-1.793,1.149-2.437,2.171-2.437c0.967,0,1.723,0.518,1.723,2.073v4.09h1.121v-4.482
		C77.41,104.351,76.177,103.496,74.678,103.496z M83.718,109.211c-0.322,0.322-0.686,0.518-1.191,0.518
		c-0.616,0-1.051-0.336-1.051-1.023v-4.104h2.591v-0.967h-2.591v-1.989l-1.121,0.308v1.681h-1.401v0.967h1.401v4.3
		c0.014,1.359,0.91,1.877,1.947,1.877c0.77,0,1.373-0.238,1.807-0.63z M86.204,100.835c-0.504,0-0.91,0.434-0.91,0.939
		c0,0.602,0.434,0.882,0.77,0.882c0.224,0,0.322-0.042,0.392-0.098l0.056,0.028c-0.126,0.588-0.616,1.177-1.373,1.429l0.588,0.546
		c1.065-0.504,1.527-1.429,1.527-2.367C87.255,101.395,86.862,100.835,86.204,100.835z M88.837,100.835
		c-0.504,0-0.91,0.434-0.91,0.939c0,0.602,0.434,0.882,0.77,0.882c0.224,0,0.322-0.042,0.392-0.098l0.056,0.028
		c-0.126,0.588-0.616,1.177-1.373,1.429l0.588,0.546c1.065-0.504,1.527-1.429,1.527-2.367
		C89.888,101.395,89.496,100.835,88.837,100.835z M90.554,108.959c-0.546,0-0.91,0.364-0.91,0.91s0.364,0.91,0.91,0.91
		s0.91-0.364,0.91-0.91S91.1,108.959,90.554,108.959z M104.323,101.395v4.034h-5.015v-4.034h-1.121v9.245h1.121v-4.16h5.015v4.16
		h1.121v-9.245z M114.119,106.774c0-1.807-1.107-3.278-3.138-3.278c-2.115,0-3.306,1.373-3.306,3.642s1.275,3.642,3.39,3.642
		c1.513,0,2.381-0.574,2.914-1.527l-0.939-0.49c-0.252,0.672-0.953,1.037-1.975,1.037c-1.289,0-2.143-0.826-2.283-2.241h5.281
		C114.091,107.362,114.119,107.096,114.119,106.774z M110.981,104.477c1.191,0,1.905,0.798,2.059,2.087h-4.244
		C108.964,105.247,109.734,104.477,110.981,104.477z M123.725,103.874l1.149-0.224l1.597-0.532l-0.266-0.854l-1.625,0.504
		l-1.051,0.49l0.14-1.149v-1.695h-0.924v1.695l0.14,1.149l-1.051-0.49l-1.625-0.504l-0.266,0.854l1.597,0.532l1.149,0.224
		l-0.798,0.854l-0.981,1.373l0.728,0.532l1.009-1.359l0.56-1.023l0.56,1.023l1.009,1.359l0.728-0.532l-0.981-1.373z
		 M129.053,102.291c0.504,0,0.84-0.336,0.84-0.84s-0.336-0.84-0.84-0.84s-0.84,0.336-0.84,0.84S128.549,102.291,129.053,102.291z
		 M129.614,103.636h-1.121v7.004h1.121z M134.58,110.78c1.793,0,2.928-0.854,2.928-2.073c0-1.149-0.7-1.737-2.661-2.059
		c-1.429-0.238-1.891-0.546-1.891-1.149c0-0.518,0.7-1.023,1.639-1.023c0.882,0,1.513,0.336,1.821,1.261l0.953-0.56
		c-0.392-1.149-1.275-1.681-2.773-1.681c-1.709,0-2.759,0.967-2.759,2.101c0,1.177,0.728,1.723,2.717,2.087
		c1.401,0.252,1.835,0.56,1.835,1.079c0,0.574-0.546,1.037-1.695,1.037c-1.009,0-1.877-0.378-2.213-1.233l-0.91,0.63
		C132.101,110.276,133.291,110.78,134.58,110.78z M142.626,103.874l1.149-0.224l1.597-0.532l-0.266-0.854l-1.625,0.504l-1.051,0.49
		l0.14-1.149v-1.695h-0.924v1.695l0.14,1.149l-1.051-0.49l-1.625-0.504l-0.266,0.854l1.597,0.532l1.149,0.224l-0.798,0.854
		l-0.981,1.373l0.728,0.532l1.009-1.359l0.56-1.023l0.56,1.023l1.009,1.359l0.728-0.532l-0.981-1.373z M155.287,109.211
		c-0.322,0.322-0.686,0.518-1.191,0.518c-0.616,0-1.051-0.336-1.051-1.023v-4.104h2.591v-0.967h-2.591v-1.989l-1.121,0.308v1.681
		h-1.401v0.967h1.401v4.3c0.014,1.359,0.91,1.877,1.947,1.877c0.77,0,1.373-0.238,1.807-0.63z M160.644,103.496
		c-0.953,0-1.793,0.35-2.283,1.191v-4.272h-1.121v10.226h1.121v-3.712c0-1.793,1.149-2.451,2.171-2.451
		c0.967,0,1.723,0.518,1.723,2.073v4.09h1.121v-4.482C163.376,104.351,162.143,103.496,160.644,103.496z M171.897,106.774
		c0-1.807-1.107-3.278-3.138-3.278c-2.115,0-3.306,1.373-3.306,3.642s1.275,3.642,3.39,3.642c1.513,0,2.381-0.574,2.914-1.527
		l-0.939-0.49c-0.252,0.672-0.953,1.037-1.975,1.037c-1.289,0-2.143-0.826-2.283-2.241h5.281
		C171.869,107.362,171.897,107.096,171.897,106.774z M168.76,104.477c1.191,0,1.905,0.798,2.059,2.087h-4.244
		C166.742,105.247,167.513,104.477,168.76,104.477z M183.381,100.414v4.314c-0.434-0.728-1.275-1.233-2.325-1.233
		c-1.947,0-3.194,1.359-3.194,3.642s1.247,3.642,3.194,3.642c1.107,0,1.989-0.56,2.395-1.359l0.07,1.219h0.981v-10.226z
		 M181.182,109.799c-1.373,0-2.199-1.037-2.199-2.661s0.826-2.661,2.199-2.661c1.331,0,2.199,0.995,2.199,2.577v0.168
		C183.381,108.805,182.512,109.799,181.182,109.799z M193.093,106.774c0-1.807-1.107-3.278-3.138-3.278
		c-2.115,0-3.306,1.373-3.306,3.642s1.275,3.642,3.39,3.642c1.513,0,2.381-0.574,2.914-1.527l-0.939-0.49
		c-0.252,0.672-0.953,1.037-1.975,1.037c-1.289,0-2.143-0.826-2.283-2.241h5.281C193.065,107.362,193.093,107.096,193.093,106.774z
		 M189.955,104.477c1.191,0,1.905,0.798,2.059,2.087h-4.244C187.938,105.247,188.708,104.477,189.955,104.477z M198.645,103.496
		c-1.107,0-1.989,0.56-2.395,1.359l-0.07-1.219h-0.981v9.945h1.121v-4.034c0.434,0.728,1.275,1.233,2.325,1.233
		c1.947,0,3.194-1.359,3.194-3.642S200.592,103.496,198.645,103.496z M198.519,109.799c-1.331,0-2.199-0.995-2.199-2.577v-0.168
		c0-1.583,0.868-2.577,2.199-2.577c1.373,0,2.199,1.037,2.199,2.661S199.892,109.799,198.519,109.799z M209.744,109.827
		c-0.392,0-0.532-0.168-0.532-0.504v-3.446c0-1.625-1.163-2.381-2.759-2.381c-1.359,0-2.465,0.672-2.83,1.709l0.826,0.602
		c0.378-0.882,1.079-1.331,2.003-1.331c1.051,0,1.639,0.616,1.639,1.541v0.392l-1.863,0.308c-1.807,0.308-2.731,1.135-2.731,2.185
		c0,1.261,1.065,1.877,2.381,1.877c0.896,0,1.807-0.378,2.255-1.037c0.126,0.784,0.574,1.037,1.261,1.037
		c0.35,0,0.644-0.07,0.84-0.14l0.07-0.882C210.136,109.799,209.926,109.827,209.744,109.827z M205.934,109.799
		c-0.798,0-1.275-0.308-1.275-0.896c0-0.658,0.63-1.065,1.863-1.289l1.569-0.294v0.967
		C208.091,109.211,207.055,109.799,205.934,109.799z M215.212,103.496c-1.093,0-1.849,0.434-2.241,1.289l-0.154-1.149h-0.91v7.004
		h1.121v-3.782c0-1.569,1.009-2.311,1.849-2.311c0.364,0,0.672,0.07,0.882,0.182l0.224-1.093
		C215.773,103.524,215.451,103.496,215.212,103.496z M221.074,109.211c-0.322,0.322-0.686,0.518-1.191,0.518
		c-0.616,0-1.051-0.336-1.051-1.023v-4.104h2.591v-0.967h-2.591v-1.989l-1.121,0.308v1.681h-1.401v0.967h1.401v4.3
		c0.014,1.359,0.91,1.877,1.947,1.877c0.77,0,1.373-0.238,1.807-0.63z M231.166,103.496c-0.882,0-2.003,0.42-2.437,1.373
		c-0.462-0.939-1.429-1.373-2.409-1.373c-0.868,0-1.737,0.378-2.241,1.233l-0.07-1.093h-0.981v7.004h1.121v-3.74
		c0-1.737,1.149-2.423,2.073-2.423s1.653,0.518,1.653,1.793v4.37h1.121v-3.838c0-1.499,0.981-2.325,2.073-2.325
		c0.924,0,1.653,0.518,1.653,1.793v4.37h1.121v-4.482C233.842,104.309,232.511,103.496,231.166,103.496z M242.361,106.774
		c0-1.807-1.107-3.278-3.138-3.278c-2.115,0-3.306,1.373-3.306,3.642s1.275,3.642,3.39,3.642c1.513,0,2.381-0.574,2.914-1.527
		l-0.939-0.49c-0.252,0.672-0.953,1.037-1.975,1.037c-1.289,0-2.143-0.826-2.283-2.241h5.281
		C242.333,107.362,242.361,107.096,242.361,106.774z M239.223,104.477c1.191,0,1.905,0.798,2.059,2.087h-4.244
		C237.206,105.247,237.977,104.477,239.223,104.477z M247.871,103.496c-0.967,0-1.863,0.35-2.353,1.233l-0.07-1.093h-0.981v7.004
		h1.121v-3.726c0-1.793,1.149-2.437,2.171-2.437c0.967,0,1.723,0.518,1.723,2.073v4.09h1.121v-4.482
		C250.603,104.351,249.37,103.496,247.871,103.496z M256.911,109.211c-0.322,0.322-0.686,0.518-1.191,0.518
		c-0.616,0-1.051-0.336-1.051-1.023v-4.104h2.591v-0.967h-2.591v-1.989l-1.121,0.308v1.681h-1.401v0.967h1.401v4.3
		c0.014,1.359,0.91,1.877,1.947,1.877c0.77,0,1.373-0.238,1.807-0.63z M259.425,108.959c-0.546,0-0.91,0.364-0.91,0.91
		s0.364,0.91,0.91,0.91s0.91-0.364,0.91-0.91S259.971,108.959,259.425,108.959z"/>
	<path fill="#FFFFFF" d="M11.798,125.395H4.234v1.051h3.222v8.194h1.121v-8.194h3.222z M17.205,127.496
		c-0.953,0-1.793,0.35-2.283,1.191v-4.272h-1.121v10.226h1.121v-3.712c0-1.793,1.149-2.451,2.171-2.451
		c0.967,0,1.723,0.518,1.723,2.073v4.09h1.121v-4.482C19.937,128.351,18.704,127.496,17.205,127.496z M29.013,130.774
		c0-1.807-1.107-3.278-3.138-3.278c-2.115,0-3.306,1.373-3.306,3.642s1.275,3.642,3.39,3.642c1.513,0,2.381-0.574,2.914-1.527
		l-0.939-0.49c-0.252,0.672-0.953,1.037-1.975,1.037c-1.289,0-2.143-0.826-2.283-2.241h5.281
		C28.985,131.362,29.013,131.096,29.013,130.774z M25.875,128.477c1.191,0,1.905,0.798,2.059,2.087H23.69
		C23.858,129.247,24.628,128.477,25.875,128.477z M37.291,127.636h-1.205l-1.639,4.426l-0.504,1.387l-0.434-1.247l-1.751-4.566
		h-1.275l2.928,6.99l-0.364,0.91c-0.35,0.924-0.784,1.135-1.275,1.135c-0.392,0-0.812-0.112-1.135-0.56l-0.392,0.953
		c0.392,0.42,0.84,0.588,1.541,0.588c1.037,0,1.667-0.462,2.213-1.835z M48.769,133.743h-2.325c-0.546,0-0.924-0.266-0.924-0.756
		c0-0.476,0.224-0.756,0.784-0.882c0.308,0.084,0.672,0.126,1.079,0.126c1.681,0,2.872-0.981,2.872-2.367
		c0-0.728-0.322-1.345-0.882-1.765c0.196-0.504,0.728-0.77,1.667-0.77l-0.252-0.981c-1.051,0-1.709,0.462-1.975,1.429
		c-0.42-0.182-0.896-0.28-1.429-0.28c-1.681,0-2.872,0.981-2.872,2.367c0,0.812,0.35,1.499,1.023,1.919
		c-0.616,0.21-1.051,0.644-1.051,1.373c0,0.616,0.42,1.037,0.953,1.289c-0.77,0.21-1.233,0.714-1.233,1.359
		c0,1.051,1.009,1.849,3.222,1.849c1.891,0,3.46-0.854,3.46-2.241C50.885,134.402,50.1,133.743,48.769,133.743z M47.383,128.407
		c0.967,0,1.709,0.588,1.709,1.457s-0.742,1.457-1.709,1.457s-1.709-0.588-1.709-1.457S46.416,128.407,47.383,128.407z
		 M47.551,136.713c-1.541,0-2.311-0.448-2.311-1.135c0-0.532,0.462-0.868,1.345-0.868h1.877c1.051,0,1.387,0.322,1.387,0.826
		C49.848,136.153,49.036,136.713,47.551,136.713z M53.644,126.291c0.504,0,0.84-0.336,0.84-0.84s-0.336-0.84-0.84-0.84
		s-0.84,0.336-0.84,0.84S53.14,126.291,53.644,126.291z M54.204,127.636h-1.121v7.004h1.121z M61.981,127.636l-2.283,5.869
		l-2.213-5.869H56.21l2.914,7.004h1.121l2.914-7.004z M71.17,130.774c0-1.807-1.107-3.278-3.138-3.278
		c-2.115,0-3.306,1.373-3.306,3.642s1.275,3.642,3.39,3.642c1.513,0,2.381-0.574,2.914-1.527l-0.939-0.49
		c-0.252,0.672-0.953,1.037-1.975,1.037c-1.289,0-2.143-0.826-2.283-2.241h5.281C71.142,131.362,71.17,131.096,71.17,130.774z
		 M68.032,128.477c1.191,0,1.905,0.798,2.059,2.087h-4.244C66.015,129.247,66.785,128.477,68.032,128.477z M83.081,127.496
		c-0.953,0-1.793,0.35-2.283,1.191v-4.272h-1.121v10.226h1.121v-3.712c0-1.793,1.149-2.451,2.171-2.451
		c0.967,0,1.723,0.518,1.723,2.073v4.09h1.121v-4.482C85.813,128.351,84.58,127.496,83.081,127.496z M89.44,126.291
		c0.504,0,0.84-0.336,0.84-0.84s-0.336-0.84-0.84-0.84s-0.84,0.336-0.84,0.84S88.936,126.291,89.44,126.291z M90.001,127.636H88.88
		v7.004h1.121z M101.279,127.496c-0.882,0-2.003,0.42-2.437,1.373c-0.462-0.939-1.429-1.373-2.409-1.373
		c-0.868,0-1.737,0.378-2.241,1.233l-0.07-1.093H93.14v7.004h1.121v-3.74c0-1.737,1.149-2.423,2.073-2.423s1.653,0.518,1.653,1.793
		v4.37h1.121v-3.838c0-1.499,0.981-2.325,2.073-2.325c0.924,0,1.653,0.518,1.653,1.793v4.37h1.121v-4.482
		C103.954,128.309,102.623,127.496,101.279,127.496z M118.609,133.827c-0.392,0-0.532-0.168-0.532-0.504v-3.446
		c0-1.625-1.163-2.381-2.759-2.381c-1.359,0-2.465,0.672-2.83,1.709l0.826,0.602c0.378-0.882,1.079-1.331,2.003-1.331
		c1.051,0,1.639,0.616,1.639,1.541v0.392l-1.863,0.308c-1.807,0.308-2.731,1.135-2.731,2.185c0,1.261,1.065,1.877,2.381,1.877
		c0.896,0,1.807-0.378,2.255-1.037c0.126,0.784,0.574,1.037,1.261,1.037c0.35,0,0.644-0.07,0.84-0.14l0.07-0.882
		C119.001,133.799,118.791,133.827,118.609,133.827z M114.798,133.799c-0.798,0-1.275-0.308-1.275-0.896
		c0-0.658,0.63-1.065,1.863-1.289l1.569-0.294v0.967C116.956,133.211,115.919,133.799,114.798,133.799z M131.949,124.414v4.314
		c-0.434-0.728-1.275-1.233-2.325-1.233c-1.947,0-3.194,1.359-3.194,3.642s1.247,3.642,3.194,3.642c1.107,0,1.989-0.56,2.395-1.359
		l0.07,1.219h0.981v-10.226z M129.75,133.799c-1.373,0-2.199-1.037-2.199-2.661s0.826-2.661,2.199-2.661
		c1.331,0,2.199,0.995,2.199,2.577v0.168C131.949,132.805,131.081,133.799,129.75,133.799z M142.216,130.774
		c0-1.807-1.107-3.278-3.138-3.278c-2.115,0-3.306,1.373-3.306,3.642s1.275,3.642,3.39,3.642c1.513,0,2.381-0.574,2.914-1.527
		l-0.939-0.49c-0.252,0.672-0.953,1.037-1.975,1.037c-1.289,0-2.143-0.826-2.283-2.241h5.281
		C142.188,131.362,142.216,131.096,142.216,130.774z M139.079,128.477c1.191,0,1.905,0.798,2.059,2.087h-4.244
		C137.062,129.247,137.832,128.477,139.079,128.477z M147.259,134.78c1.793,0,2.928-0.854,2.928-2.073
		c0-1.149-0.7-1.737-2.661-2.059c-1.429-0.238-1.891-0.546-1.891-1.149c0-0.518,0.7-1.023,1.639-1.023
		c0.882,0,1.513,0.336,1.821,1.261l0.953-0.56c-0.392-1.149-1.275-1.681-2.773-1.681c-1.709,0-2.759,0.967-2.759,2.101
		c0,1.177,0.728,1.723,2.717,2.087c1.401,0.252,1.835,0.56,1.835,1.079c0,0.574-0.546,1.037-1.695,1.037
		c-1.009,0-1.877-0.378-2.213-1.233l-0.91,0.63C144.779,134.276,145.97,134.78,147.259,134.78z M157.751,134.64h1.359l-2.9-4.272
		l2.731-2.731h-1.401l-3.628,3.628v-6.85h-1.121v10.226h1.121v-1.975l1.485-1.485z M167.365,126.291c0.504,0,0.84-0.336,0.84-0.84
		s-0.336-0.84-0.84-0.84s-0.84,0.336-0.84,0.84S166.861,126.291,167.365,126.291z M167.926,127.636h-1.121v7.004h1.121z
		 M174.469,127.496c-0.967,0-1.863,0.35-2.353,1.233l-0.07-1.093h-0.981v7.004h1.121v-3.726c0-1.793,1.149-2.437,2.171-2.437
		c0.967,0,1.723,0.518,1.723,2.073v4.09h1.121v-4.482C177.201,128.351,175.968,127.496,174.469,127.496z M189.07,127.496
		c-2.115,0-3.39,1.373-3.39,3.642s1.275,3.642,3.39,3.642s3.39-1.373,3.39-3.642S191.185,127.496,189.07,127.496z M189.07,128.463
		c1.415,0,2.269,1.009,2.269,2.675s-0.854,2.675-2.269,2.675s-2.269-1.009-2.269-2.675S187.655,128.463,189.07,128.463z
		 M198.567,127.496c-0.967,0-1.863,0.35-2.353,1.233l-0.07-1.093h-0.981v7.004h1.121v-3.726c0-1.793,1.149-2.437,2.171-2.437
		c0.967,0,1.723,0.518,1.723,2.073v4.09h1.121v-4.482C201.298,128.351,200.065,127.496,198.567,127.496z M210.374,130.774
		c0-1.807-1.107-3.278-3.138-3.278c-2.115,0-3.306,1.373-3.306,3.642s1.275,3.642,3.39,3.642c1.513,0,2.381-0.574,2.914-1.527
		l-0.939-0.49c-0.252,0.672-0.953,1.037-1.975,1.037c-1.289,0-2.143-0.826-2.283-2.241h5.281
		C210.346,131.362,210.374,131.096,210.374,130.774z M207.237,128.477c1.191,0,1.905,0.798,2.059,2.087h-4.244
		C205.22,129.247,205.99,128.477,207.237,128.477z M221.838,127.496c-2.115,0-3.39,1.373-3.39,3.642s1.275,3.642,3.39,3.642
		s3.39-1.373,3.39-3.642S223.953,127.496,221.838,127.496z M221.838,128.463c1.415,0,2.269,1.009,2.269,2.675
		s-0.854,2.675-2.269,2.675s-2.269-1.009-2.269-2.675S220.423,128.463,221.838,128.463z M229.472,126.572
		c0-0.84,0.462-1.205,1.275-1.205c0.322,0,0.574,0.07,0.798,0.21l0.294-0.91c-0.252-0.21-0.7-0.322-1.191-0.322
		c-1.541,0-2.297,0.868-2.297,2.115v1.177h-1.401v0.967h1.401v6.037h1.121v-6.037h2.339v-0.967h-2.339z M242.744,133.211
		c-0.322,0.322-0.686,0.518-1.191,0.518c-0.616,0-1.051-0.336-1.051-1.023v-4.104h2.591v-0.967h-2.591v-1.989l-1.121,0.308v1.681
		h-1.401v0.967h1.401v4.3c0.014,1.359,0.91,1.877,1.947,1.877c0.77,0,1.373-0.238,1.807-0.63z M248.656,127.496
		c-0.953,0-1.793,0.35-2.283,1.191v-4.272h-1.121v10.226h1.121v-3.712c0-1.793,1.149-2.451,2.171-2.451
		c0.967,0,1.723,0.518,1.723,2.073v4.09h1.121v-4.482C251.388,128.351,250.155,127.496,248.656,127.496z M260.464,130.774
		c0-1.807-1.107-3.278-3.138-3.278c-2.115,0-3.306,1.373-3.306,3.642s1.275,3.642,3.39,3.642c1.513,0,2.381-0.574,2.914-1.527
		l-0.939-0.49c-0.252,0.672-0.953,1.037-1.975,1.037c-1.289,0-2.143-0.826-2.283-2.241h5.281
		C260.436,131.362,260.464,131.096,260.464,130.774z M257.326,128.477c1.191,0,1.905,0.798,2.059,2.087h-4.244
		C255.309,129.247,256.08,128.477,257.326,128.477z"/>
	<path fill="#FFFFFF" d="M6.153,148.414H5.033v8.489c0,1.275,0.546,1.877,1.681,1.877c0.364,0,0.742-0.07,1.037-0.196l0.182-1.079
		c-0.406,0.154-0.644,0.196-1.023,0.196c-0.574,0-0.756-0.224-0.756-0.939z M12.749,151.496c-2.115,0-3.39,1.373-3.39,3.642
		s1.275,3.642,3.39,3.642s3.39-1.373,3.39-3.642S14.865,151.496,12.749,151.496z M12.749,152.463c1.415,0,2.269,1.009,2.269,2.675
		s-0.854,2.675-2.269,2.675s-2.269-1.009-2.269-2.675S11.335,152.463,12.749,152.463z M21.682,151.496
		c-2.115,0-3.39,1.373-3.39,3.642s1.275,3.642,3.39,3.642c1.485,0,2.493-0.77,2.97-2.059l-1.037-0.364
		c-0.21,0.924-0.868,1.443-1.961,1.443c-1.401,0-2.241-0.995-2.241-2.661s0.84-2.661,2.241-2.661c0.967,0,1.569,0.49,1.863,1.387
		l1.065-0.504C24.064,152.21,23.125,151.496,21.682,151.496z M32.787,157.827c-0.392,0-0.532-0.168-0.532-0.504v-3.446
		c0-1.625-1.163-2.381-2.759-2.381c-1.359,0-2.465,0.672-2.83,1.709l0.826,0.602c0.378-0.882,1.079-1.331,2.003-1.331
		c1.051,0,1.639,0.616,1.639,1.541v0.392l-1.863,0.308c-1.807,0.308-2.731,1.135-2.731,2.185c0,1.261,1.065,1.877,2.381,1.877
		c0.896,0,1.807-0.378,2.255-1.037c0.126,0.784,0.574,1.037,1.261,1.037c0.35,0,0.644-0.07,0.84-0.14l0.07-0.882
		C33.179,157.799,32.969,157.827,32.787,157.827z M28.977,157.799c-0.798,0-1.275-0.308-1.275-0.896c0-0.658,0.63-1.065,1.863-1.289
		l1.569-0.294v0.967C31.134,157.211,30.098,157.799,28.977,157.799z M36.454,148.414h-1.121v8.489c0,1.275,0.546,1.877,1.681,1.877
		c0.364,0,0.742-0.07,1.037-0.196l0.182-1.079c-0.406,0.154-0.644,0.196-1.023,0.196c-0.574,0-0.756-0.224-0.756-0.939z
		 M45.711,152.561c0.504,0,0.91-0.434,0.91-0.939c0-0.602-0.434-0.882-0.77-0.882c-0.224,0-0.322,0.042-0.392,0.098l-0.056-0.028
		c0.126-0.588,0.616-1.177,1.373-1.429l-0.588-0.546c-1.065,0.504-1.527,1.429-1.527,2.367C44.66,152,45.052,152.561,45.711,152.561
		z M48.344,152.561c0.504,0,0.91-0.434,0.91-0.939c0-0.602-0.434-0.882-0.77-0.882c-0.224,0-0.322,0.042-0.392,0.098l-0.056-0.028
		c0.126-0.588,0.616-1.177,1.373-1.429l-0.588-0.546c-1.065,0.504-1.527,1.429-1.527,2.367
		C47.293,152,47.686,152.561,48.344,152.561z M55.192,157.743h-2.325c-0.546,0-0.924-0.266-0.924-0.756
		c0-0.476,0.224-0.756,0.784-0.882c0.308,0.084,0.672,0.126,1.079,0.126c1.681,0,2.872-0.981,2.872-2.367
		c0-0.728-0.322-1.345-0.882-1.765c0.196-0.504,0.728-0.77,1.667-0.77l-0.252-0.981c-1.051,0-1.709,0.462-1.975,1.429
		c-0.42-0.182-0.896-0.28-1.429-0.28c-1.681,0-2.872,0.981-2.872,2.367c0,0.812,0.35,1.499,1.023,1.919
		c-0.616,0.21-1.051,0.644-1.051,1.373c0,0.616,0.42,1.037,0.953,1.289c-0.77,0.21-1.233,0.714-1.233,1.359
		c0,1.051,1.009,1.849,3.222,1.849c1.891,0,3.46-0.854,3.46-2.241C57.307,158.402,56.522,157.743,55.192,157.743z M53.805,152.407
		c0.967,0,1.709,0.588,1.709,1.457s-0.742,1.457-1.709,1.457s-1.709-0.588-1.709-1.457S52.838,152.407,53.805,152.407z
		 M53.973,160.713c-1.541,0-2.311-0.448-2.311-1.135c0-0.532,0.462-0.868,1.345-0.868h1.877c1.051,0,1.387,0.322,1.387,0.826
		C56.27,160.153,55.458,160.713,53.973,160.713z M62.346,151.496c-2.115,0-3.39,1.373-3.39,3.642s1.275,3.642,3.39,3.642
		s3.39-1.373,3.39-3.642S64.461,151.496,62.346,151.496z M62.346,152.463c1.415,0,2.269,1.009,2.269,2.675s-0.854,2.675-2.269,2.675
		s-2.269-1.009-2.269-2.675S60.931,152.463,62.346,152.463z M72.96,151.636l-2.283,5.869l-2.213-5.869h-1.275l2.914,7.004h1.121
		l2.914-7.004z M82.034,154.774c0-1.807-1.107-3.278-3.138-3.278c-2.115,0-3.306,1.373-3.306,3.642s1.275,3.642,3.39,3.642
		c1.513,0,2.381-0.574,2.914-1.527l-0.939-0.49c-0.252,0.672-0.953,1.037-1.975,1.037c-1.289,0-2.143-0.826-2.283-2.241h5.281
		C82.006,155.362,82.034,155.096,82.034,154.774z M78.896,152.477c1.191,0,1.905,0.798,2.059,2.087h-4.244
		C76.879,153.247,77.649,152.477,78.896,152.477z M87.885,151.496c-1.093,0-1.849,0.434-2.241,1.289l-0.154-1.149h-0.91v7.004H85.7
		v-3.782c0-1.569,1.009-2.311,1.849-2.311c0.364,0,0.672,0.07,0.882,0.182l0.224-1.093
		C88.446,151.524,88.123,151.496,87.885,151.496z M94.116,151.496c-0.967,0-1.863,0.35-2.353,1.233l-0.07-1.093h-0.981v7.004h1.121
		v-3.726c0-1.793,1.149-2.437,2.171-2.437c0.967,0,1.723,0.518,1.723,2.073v4.09h1.121v-4.482
		C96.848,152.351,95.615,151.496,94.116,151.496z M107.938,151.496c-0.882,0-2.003,0.42-2.437,1.373
		c-0.462-0.939-1.429-1.373-2.409-1.373c-0.868,0-1.737,0.378-2.241,1.233l-0.07-1.093h-0.981v7.004h1.121v-3.74
		c0-1.737,1.149-2.423,2.073-2.423s1.653,0.518,1.653,1.793v4.37h1.121v-3.838c0-1.499,0.981-2.325,2.073-2.325
		c0.924,0,1.653,0.518,1.653,1.793v4.37h1.121v-4.482C110.613,152.309,109.282,151.496,107.938,151.496z M119.572,154.774
		c0-1.807-1.107-3.278-3.138-3.278c-2.115,0-3.306,1.373-3.306,3.642s1.275,3.642,3.39,3.642c1.513,0,2.381-0.574,2.914-1.527
		l-0.939-0.49c-0.252,0.672-0.953,1.037-1.975,1.037c-1.289,0-2.143-0.826-2.283-2.241h5.281
		C119.544,155.362,119.572,155.096,119.572,154.774z M116.434,152.477c1.191,0,1.905,0.798,2.059,2.087h-4.244
		C114.417,153.247,115.187,152.477,116.434,152.477z M125.521,151.496c-0.967,0-1.863,0.35-2.353,1.233l-0.07-1.093h-0.981v7.004
		h1.121v-3.726c0-1.793,1.149-2.437,2.171-2.437c0.967,0,1.723,0.518,1.723,2.073v4.09h1.121v-4.482
		C128.253,152.351,127.02,151.496,125.521,151.496z M135.001,157.211c-0.322,0.322-0.686,0.518-1.191,0.518
		c-0.616,0-1.051-0.336-1.051-1.023v-4.104h2.591v-0.967h-2.591v-1.989l-1.121,0.308v1.681h-1.401v0.967h1.401v4.3
		c0.014,1.359,0.91,1.877,1.947,1.877c0.77,0,1.373-0.238,1.807-0.63z M137.926,148.835c-0.504,0-0.91,0.434-0.91,0.939
		c0,0.602,0.434,0.882,0.77,0.882c0.224,0,0.322-0.042,0.392-0.098l0.056,0.028c-0.126,0.588-0.616,1.177-1.373,1.429l0.588,0.546
		c1.065-0.504,1.527-1.429,1.527-2.367C138.976,149.395,138.584,148.835,137.926,148.835z M140.559,148.835
		c-0.504,0-0.91,0.434-0.91,0.939c0,0.602,0.434,0.882,0.77,0.882c0.224,0,0.322-0.042,0.392-0.098l0.056,0.028
		c-0.126,0.588-0.616,1.177-1.373,1.429l0.588,0.546c1.065-0.504,1.527-1.429,1.527-2.367
		C141.61,149.395,141.218,148.835,140.559,148.835z M153.078,151.496c-1.051,0-1.891,0.504-2.325,1.233v-4.314h-1.121v10.226h0.981
		l0.07-1.219c0.406,0.798,1.289,1.359,2.395,1.359c1.947,0,3.194-1.359,3.194-3.642S155.025,151.496,153.078,151.496z
		 M152.952,157.799c-1.331,0-2.199-0.995-2.199-2.577v-0.168c0-1.583,0.868-2.577,2.199-2.577c1.373,0,2.199,1.037,2.199,2.661
		S154.325,157.799,152.952,157.799z M163.818,151.636v3.81c0,1.653-1.051,2.353-2.241,2.353c-1.009,0-1.653-0.434-1.653-1.877
		v-4.286h-1.121v4.58c0,1.849,1.191,2.563,2.577,2.563c1.121,0,2.017-0.364,2.507-1.205l0.07,1.065h0.981v-7.004z M168.521,150.291
		c0.504,0,0.84-0.336,0.84-0.84s-0.336-0.84-0.84-0.84s-0.84,0.336-0.84,0.84S168.017,150.291,168.521,150.291z M169.081,151.636
		h-1.121v7.004h1.121z M173.17,148.414h-1.121v8.489c0,1.275,0.546,1.877,1.681,1.877c0.364,0,0.742-0.07,1.037-0.196l0.182-1.079
		c-0.406,0.154-0.644,0.196-1.023,0.196c-0.574,0-0.756-0.224-0.756-0.939z M181.909,148.414v4.314
		c-0.434-0.728-1.275-1.233-2.325-1.233c-1.947,0-3.194,1.359-3.194,3.642s1.247,3.642,3.194,3.642c1.107,0,1.989-0.56,2.395-1.359
		l0.07,1.219h0.981v-10.226z M179.71,157.799c-1.373,0-2.199-1.037-2.199-2.661s0.826-2.661,2.199-2.661
		c1.331,0,2.199,0.995,2.199,2.577v0.168C181.909,156.805,181.041,157.799,179.71,157.799z M186.612,150.291
		c0.504,0,0.84-0.336,0.84-0.84s-0.336-0.84-0.84-0.84s-0.84,0.336-0.84,0.84S186.108,150.291,186.612,150.291z M187.172,151.636
		h-1.121v7.004h1.121z M193.6,151.496c-0.967,0-1.863,0.35-2.353,1.233l-0.07-1.093h-0.981v7.004h1.121v-3.726
		c0-1.793,1.149-2.437,2.171-2.437c0.967,0,1.723,0.518,1.723,2.073v4.09h1.121v-4.482
		C196.332,152.351,195.099,151.496,193.6,151.496z M203.192,157.743h-2.325c-0.546,0-0.924-0.266-0.924-0.756
		c0-0.476,0.224-0.756,0.784-0.882c0.308,0.084,0.672,0.126,1.079,0.126c1.681,0,2.872-0.981,2.872-2.367
		c0-0.728-0.322-1.345-0.882-1.765c0.196-0.504,0.728-0.77,1.667-0.77l-0.252-0.981c-1.051,0-1.709,0.462-1.975,1.429
		c-0.42-0.182-0.896-0.28-1.429-0.28c-1.681,0-2.872,0.981-2.872,2.367c0,0.812,0.35,1.499,1.023,1.919
		c-0.616,0.21-1.051,0.644-1.051,1.373c0,0.616,0.42,1.037,0.953,1.289c-0.77,0.21-1.233,0.714-1.233,1.359
		c0,1.051,1.009,1.849,3.222,1.849c1.891,0,3.46-0.854,3.46-2.241C205.307,158.402,204.522,157.743,203.192,157.743z
		 M201.805,152.407c0.967,0,1.709,0.588,1.709,1.457s-0.742,1.457-1.709,1.457s-1.709-0.588-1.709-1.457
		S200.838,152.407,201.805,152.407z M201.973,160.713c-1.541,0-2.311-0.448-2.311-1.135c0-0.532,0.462-0.868,1.345-0.868h1.877
		c1.051,0,1.387,0.322,1.387,0.826C204.27,160.153,203.458,160.713,201.973,160.713z M209.772,158.78
		c1.793,0,2.928-0.854,2.928-2.073c0-1.149-0.7-1.737-2.661-2.059c-1.429-0.238-1.891-0.546-1.891-1.149
		c0-0.518,0.7-1.023,1.639-1.023c0.882,0,1.513,0.336,1.821,1.261l0.953-0.56c-0.392-1.149-1.275-1.681-2.773-1.681
		c-1.709,0-2.759,0.967-2.759,2.101c0,1.177,0.728,1.723,2.717,2.087c1.401,0.252,1.835,0.56,1.835,1.079
		c0,0.574-0.546,1.037-1.695,1.037c-1.009,0-1.877-0.378-2.213-1.233l-0.91,0.63C207.293,158.276,208.483,158.78,209.772,158.78z
		 M227.655,154.452h-7.004v1.051h7.004z M236.699,150.291c0.504,0,0.84-0.336,0.84-0.84s-0.336-0.84-0.84-0.84
		s-0.84,0.336-0.84,0.84S236.195,150.291,236.699,150.291z M237.259,151.636h-1.121v7.004h1.121z M243.688,151.496
		c-0.967,0-1.863,0.35-2.353,1.233l-0.07-1.093h-0.981v7.004h1.121v-3.726c0-1.793,1.149-2.437,2.171-2.437
		c0.967,0,1.723,0.518,1.723,2.073v4.09h1.121v-4.482C246.419,152.351,245.186,151.496,243.688,151.496z M260.73,157.827
		c-0.392,0-0.532-0.168-0.532-0.504v-3.446c0-1.625-1.163-2.381-2.759-2.381c-1.359,0-2.465,0.672-2.83,1.709l0.826,0.602
		c0.378-0.882,1.079-1.331,2.003-1.331c1.051,0,1.639,0.616,1.639,1.541v0.392l-1.863,0.308c-1.807,0.308-2.731,1.135-2.731,2.185
		c0,1.261,1.065,1.877,2.381,1.877c0.896,0,1.807-0.378,2.255-1.037c0.126,0.784,0.574,1.037,1.261,1.037
		c0.35,0,0.644-0.07,0.84-0.14l0.07-0.882C261.122,157.799,260.912,157.827,260.73,157.827z M256.92,157.799
		c-0.798,0-1.275-0.308-1.275-0.896c0-0.658,0.63-1.065,1.863-1.289l1.569-0.294v0.967
		C259.077,157.211,258.04,157.799,256.92,157.799z"/>
	<path fill="#FFFFFF" d="M7.47,182.78c1.793,0,2.928-0.854,2.928-2.073c0-1.149-0.7-1.737-2.661-2.059
		c-1.429-0.238-1.891-0.546-1.891-1.149c0-0.518,0.7-1.023,1.639-1.023c0.882,0,1.513,0.336,1.821,1.261l0.953-0.56
		c-0.392-1.149-1.275-1.681-2.773-1.681c-1.709,0-2.759,0.967-2.759,2.101c0,1.177,0.728,1.723,2.717,2.087
		c1.401,0.252,1.835,0.56,1.835,1.079c0,0.574-0.546,1.037-1.695,1.037c-1.009,0-1.877-0.378-2.213-1.233l-0.91,0.63
		C4.991,182.276,6.181,182.78,7.47,182.78z M15.736,175.496c-1.107,0-1.989,0.56-2.395,1.359l-0.07-1.219H12.29v9.945h1.121v-4.034
		c0.434,0.728,1.275,1.233,2.325,1.233c1.947,0,3.194-1.359,3.194-3.642S17.683,175.496,15.736,175.496z M15.61,181.799
		c-1.331,0-2.199-0.995-2.199-2.577v-0.168c0-1.583,0.868-2.577,2.199-2.577c1.373,0,2.199,1.037,2.199,2.661
		S16.983,181.799,15.61,181.799z M26.677,181.827c-0.392,0-0.532-0.168-0.532-0.504v-3.446c0-1.625-1.163-2.381-2.759-2.381
		c-1.359,0-2.465,0.672-2.83,1.709l0.826,0.602c0.378-0.882,1.079-1.331,2.003-1.331c1.051,0,1.639,0.616,1.639,1.541v0.392
		l-1.863,0.308c-1.807,0.308-2.731,1.135-2.731,2.185c0,1.261,1.065,1.877,2.381,1.877c0.896,0,1.807-0.378,2.255-1.037
		c0.126,0.784,0.574,1.037,1.261,1.037c0.35,0,0.644-0.07,0.84-0.14l0.07-0.882C27.069,181.799,26.859,181.827,26.677,181.827z
		 M22.867,181.799c-0.798,0-1.275-0.308-1.275-0.896c0-0.658,0.63-1.065,1.863-1.289l1.569-0.294v0.967
		C25.024,181.211,23.987,181.799,22.867,181.799z M31.987,175.496c-1.093,0-1.849,0.434-2.241,1.289l-0.154-1.149h-0.91v7.004h1.121
		v-3.782c0-1.569,1.009-2.311,1.849-2.311c0.364,0,0.672,0.07,0.882,0.182l0.224-1.093
		C32.547,175.524,32.225,175.496,31.987,175.496z M40.002,178.774c0-1.807-1.107-3.278-3.138-3.278
		c-2.115,0-3.306,1.373-3.306,3.642s1.275,3.642,3.39,3.642c1.513,0,2.381-0.574,2.914-1.527l-0.939-0.49
		c-0.252,0.672-0.953,1.037-1.975,1.037c-1.289,0-2.143-0.826-2.283-2.241h5.281C39.974,179.362,40.002,179.096,40.002,178.774z
		 M36.864,176.477c1.191,0,1.905,0.798,2.059,2.087h-4.244C34.847,177.247,35.617,176.477,36.864,176.477z M49.265,175.496
		c-1.093,0-1.849,0.434-2.241,1.289l-0.154-1.149h-0.91v7.004h1.121v-3.782c0-1.569,1.009-2.311,1.849-2.311
		c0.364,0,0.672,0.07,0.882,0.182l0.224-1.093C49.825,175.524,49.503,175.496,49.265,175.496z M54.226,175.496
		c-2.115,0-3.39,1.373-3.39,3.642s1.275,3.642,3.39,3.642s3.39-1.373,3.39-3.642S56.341,175.496,54.226,175.496z M54.226,176.463
		c1.415,0,2.269,1.009,2.269,2.675s-0.854,2.675-2.269,2.675s-2.269-1.009-2.269-2.675S52.812,176.463,54.226,176.463z
		 M62.562,175.496c-2.115,0-3.39,1.373-3.39,3.642s1.275,3.642,3.39,3.642c2.115,0,3.39-1.373,3.39-3.642
		S64.677,175.496,62.562,175.496z M62.562,176.463c1.415,0,2.269,1.009,2.269,2.675s-0.854,2.675-2.269,2.675
		s-2.269-1.009-2.269-2.675S61.147,176.463,62.562,176.463z M76.08,175.496c-0.882,0-2.003,0.42-2.437,1.373
		c-0.462-0.939-1.429-1.373-2.409-1.373c-0.868,0-1.737,0.378-2.241,1.233l-0.07-1.093h-0.981v7.004h1.121v-3.74
		c0-1.737,1.149-2.423,2.073-2.423s1.653,0.518,1.653,1.793v4.37h1.121v-3.838c0-1.499,0.981-2.325,2.073-2.325
		c0.924,0,1.653,0.518,1.653,1.793v4.37h1.121v-4.482C78.755,176.309,77.425,175.496,76.08,175.496z M88.072,175.496
		c-2.115,0-3.39,1.373-3.39,3.642s1.275,3.642,3.39,3.642s3.39-1.373,3.39-3.642S90.187,175.496,88.072,175.496z M88.072,176.463
		c1.415,0,2.269,1.009,2.269,2.675s-0.854,2.675-2.269,2.675s-2.269-1.009-2.269-2.675S86.657,176.463,88.072,176.463z
		 M96.757,175.496c-1.093,0-1.849,0.434-2.241,1.289l-0.154-1.149h-0.91v7.004h1.121v-3.782c0-1.569,1.009-2.311,1.849-2.311
		c0.364,0,0.672,0.07,0.882,0.182l0.224-1.093C97.317,175.524,96.995,175.496,96.757,175.496z M106.12,175.496
		c-1.051,0-1.891,0.504-2.325,1.233v-4.314h-1.121v10.226h0.981l0.07-1.219c0.406,0.798,1.289,1.359,2.395,1.359
		c1.947,0,3.194-1.359,3.194-3.642S108.067,175.496,106.12,175.496z M105.994,181.799c-1.331,0-2.199-0.995-2.199-2.577v-0.168
		c0-1.583,0.868-2.577,2.199-2.577c1.373,0,2.199,1.037,2.199,2.661S107.367,181.799,105.994,181.799z M117.061,181.827
		c-0.392,0-0.532-0.168-0.532-0.504v-3.446c0-1.625-1.163-2.381-2.759-2.381c-1.359,0-2.465,0.672-2.83,1.709l0.826,0.602
		c0.378-0.882,1.079-1.331,2.003-1.331c1.051,0,1.639,0.616,1.639,1.541v0.392l-1.863,0.308c-1.807,0.308-2.731,1.135-2.731,2.185
		c0,1.261,1.065,1.877,2.381,1.877c0.896,0,1.807-0.378,2.255-1.037c0.126,0.784,0.574,1.037,1.261,1.037
		c0.35,0,0.644-0.07,0.84-0.14l0.07-0.882C117.453,181.799,117.243,181.827,117.061,181.827z M113.25,181.799
		c-0.798,0-1.275-0.308-1.275-0.896c0-0.658,0.63-1.065,1.863-1.289l1.569-0.294v0.967
		C115.408,181.211,114.371,181.799,113.25,181.799z M121.446,182.78c1.793,0,2.928-0.854,2.928-2.073c0-1.149-0.7-1.737-2.661-2.059
		c-1.429-0.238-1.891-0.546-1.891-1.149c0-0.518,0.7-1.023,1.639-1.023c0.882,0,1.513,0.336,1.821,1.261l0.953-0.56
		c-0.392-1.149-1.275-1.681-2.773-1.681c-1.709,0-2.759,0.967-2.759,2.101c0,1.177,0.728,1.723,2.717,2.087
		c1.401,0.252,1.835,0.56,1.835,1.079c0,0.574-0.546,1.037-1.695,1.037c-1.009,0-1.877-0.378-2.213-1.233l-0.91,0.63
		C118.967,182.276,120.157,182.78,121.446,182.78z M132.276,178.774c0-1.807-1.107-3.278-3.138-3.278
		c-2.115,0-3.306,1.373-3.306,3.642s1.275,3.642,3.39,3.642c1.513,0,2.381-0.574,2.914-1.527l-0.939-0.49
		c-0.252,0.672-0.953,1.037-1.975,1.037c-1.289,0-2.143-0.826-2.283-2.241h5.281C132.248,179.362,132.276,179.096,132.276,178.774z
		 M129.138,176.477c1.191,0,1.905,0.798,2.059,2.087h-4.244C127.121,177.247,127.891,176.477,129.138,176.477z M142.362,175.496
		c-0.882,0-2.003,0.42-2.437,1.373c-0.462-0.939-1.429-1.373-2.409-1.373c-0.868,0-1.737,0.378-2.241,1.233l-0.07-1.093h-0.981
		v7.004h1.121v-3.74c0-1.737,1.149-2.423,2.073-2.423s1.653,0.518,1.653,1.793v4.37h1.121v-3.838c0-1.499,0.981-2.325,2.073-2.325
		c0.924,0,1.653,0.518,1.653,1.793v4.37h1.121v-4.482C145.038,176.309,143.707,175.496,142.362,175.496z M153.398,178.774
		c0-1.807-1.107-3.278-3.138-3.278c-2.115,0-3.306,1.373-3.306,3.642s1.275,3.642,3.39,3.642c1.513,0,2.381-0.574,2.914-1.527
		l-0.939-0.49c-0.252,0.672-0.953,1.037-1.975,1.037c-1.289,0-2.143-0.826-2.283-2.241h5.281
		C153.37,179.362,153.398,179.096,153.398,178.774z M150.261,176.477c1.191,0,1.905,0.798,2.059,2.087h-4.244
		C148.244,177.247,149.014,176.477,150.261,176.477z M158.75,175.496c-0.967,0-1.863,0.35-2.353,1.233l-0.07-1.093h-0.981v7.004
		h1.121v-3.726c0-1.793,1.149-2.437,2.171-2.437c0.967,0,1.723,0.518,1.723,2.073v4.09h1.121v-4.482
		C161.482,176.351,160.249,175.496,158.75,175.496z M167.632,181.211c-0.322,0.322-0.686,0.518-1.191,0.518
		c-0.616,0-1.051-0.336-1.051-1.023v-4.104h2.591v-0.967h-2.591v-1.989l-1.121,0.308v1.681h-1.401v0.967h1.401v4.3
		c0.014,1.359,0.91,1.877,1.947,1.877c0.77,0,1.373-0.238,1.807-0.63z M178.006,174.291c0.504,0,0.84-0.336,0.84-0.84
		s-0.336-0.84-0.84-0.84s-0.84,0.336-0.84,0.84S177.502,174.291,178.006,174.291z M178.567,175.636h-1.121v7.004h1.121z
		 M184.397,175.496c-0.967,0-1.863,0.35-2.353,1.233l-0.07-1.093h-0.981v7.004h1.121v-3.726c0-1.793,1.149-2.437,2.171-2.437
		c0.967,0,1.723,0.518,1.723,2.073v4.09h1.121v-4.482C187.129,176.351,185.896,175.496,184.397,175.496z M197.106,181.211
		c-0.322,0.322-0.686,0.518-1.191,0.518c-0.616,0-1.051-0.336-1.051-1.023v-4.104h2.591v-0.967h-2.591v-1.989l-1.121,0.308v1.681
		h-1.401v0.967h1.401v4.3c0.014,1.359,0.91,1.877,1.947,1.877c0.77,0,1.373-0.238,1.807-0.63z M202.305,175.496
		c-0.953,0-1.793,0.35-2.283,1.191v-4.272h-1.121v10.226h1.121v-3.712c0-1.793,1.149-2.451,2.171-2.451
		c0.967,0,1.723,0.518,1.723,2.073v4.09h1.121v-4.482C205.037,176.351,203.804,175.496,202.305,175.496z M213.4,178.774
		c0-1.807-1.107-3.278-3.138-3.278c-2.115,0-3.306,1.373-3.306,3.642s1.275,3.642,3.39,3.642c1.513,0,2.381-0.574,2.914-1.527
		l-0.939-0.49c-0.252,0.672-0.953,1.037-1.975,1.037c-1.289,0-2.143-0.826-2.283-2.241h5.281
		C213.372,179.362,213.4,179.096,213.4,178.774z M210.262,176.477c1.191,0,1.905,0.798,2.059,2.087h-4.244
		C208.245,177.247,209.016,176.477,210.262,176.477z M222.972,181.211c-0.322,0.322-0.686,0.518-1.191,0.518
		c-0.616,0-1.051-0.336-1.051-1.023v-4.104h2.591v-0.967h-2.591v-1.989l-1.121,0.308v1.681h-1.401v0.967h1.401v4.3
		c0.014,1.359,0.91,1.877,1.947,1.877c0.77,0,1.373-0.238,1.807-0.63z M227.723,175.496c-2.115,0-3.39,1.373-3.39,3.642
		s1.275,3.642,3.39,3.642s3.39-1.373,3.39-3.642S229.838,175.496,227.723,175.496z M227.723,176.463
		c1.415,0,2.269,1.009,2.269,2.675s-0.854,2.675-2.269,2.675s-2.269-1.009-2.269-2.675S226.308,176.463,227.723,176.463z
		 M241.801,175.636l-1.765,5.701l-1.905-5.701h-1.121l-1.905,5.701l-1.765-5.701h-1.247l2.437,7.004h1.121l1.863-5.575l1.975,5.575
		h1.121l2.437-7.004z M248.09,175.496c-0.967,0-1.863,0.35-2.353,1.233l-0.07-1.093h-0.981v7.004h1.121v-3.726
		c0-1.793,1.149-2.437,2.171-2.437c0.967,0,1.723,0.518,1.723,2.073v4.09h1.121v-4.482
		C250.821,176.351,249.589,175.496,248.09,175.496z M253.008,172.835c-0.504,0-0.91,0.434-0.91,0.939
		c0,0.602,0.434,0.882,0.77,0.882c0.224,0,0.322-0.042,0.392-0.098l0.056,0.028c-0.126,0.588-0.616,1.177-1.373,1.429l0.588,0.546
		c1.065-0.504,1.527-1.429,1.527-2.367C254.058,173.395,253.666,172.835,253.008,172.835z M257.592,182.78
		c1.793,0,2.928-0.854,2.928-2.073c0-1.149-0.7-1.737-2.661-2.059c-1.429-0.238-1.891-0.546-1.891-1.149
		c0-0.518,0.7-1.023,1.639-1.023c0.882,0,1.513,0.336,1.821,1.261l0.953-0.56c-0.392-1.149-1.275-1.681-2.773-1.681
		c-1.709,0-2.759,0.967-2.759,2.101c0,1.177,0.728,1.723,2.717,2.087c1.401,0.252,1.835,0.56,1.835,1.079
		c0,0.574-0.546,1.037-1.695,1.037c-1.009,0-1.877-0.378-2.213-1.233l-0.91,0.63C255.113,182.276,256.303,182.78,257.592,182.78z"/>
	<path fill="#FFFFFF" d="M10.188,196.414v4.314c-0.434-0.728-1.275-1.233-2.325-1.233c-1.947,0-3.194,1.359-3.194,3.642
		s1.247,3.642,3.194,3.642c1.107,0,1.989-0.56,2.395-1.359l0.07,1.219h0.981v-10.226z M7.988,205.799
		c-1.373,0-2.199-1.037-2.199-2.661s0.826-2.661,2.199-2.661c1.331,0,2.199,0.995,2.199,2.577v0.168
		C10.188,204.805,9.319,205.799,7.988,205.799z M20.99,202.774c0-1.807-1.107-3.278-3.138-3.278c-2.115,0-3.306,1.373-3.306,3.642
		s1.275,3.642,3.39,3.642c1.513,0,2.381-0.574,2.914-1.527l-0.939-0.49c-0.252,0.672-0.953,1.037-1.975,1.037
		c-1.289,0-2.143-0.826-2.283-2.241h5.281C20.962,203.362,20.99,203.096,20.99,202.774z M17.852,200.477
		c1.191,0,1.905,0.798,2.059,2.087h-4.244C15.835,201.247,16.606,200.477,17.852,200.477z M27.633,199.496
		c-1.107,0-1.989,0.56-2.395,1.359l-0.07-1.219h-0.981v9.945h1.121v-4.034c0.434,0.728,1.275,1.233,2.325,1.233
		c1.947,0,3.194-1.359,3.194-3.642S29.58,199.496,27.633,199.496z M27.507,205.799c-1.331,0-2.199-0.995-2.199-2.577v-0.168
		c0-1.583,0.868-2.577,2.199-2.577c1.373,0,2.199,1.037,2.199,2.661S28.88,205.799,27.507,205.799z M39.822,205.827
		c-0.392,0-0.532-0.168-0.532-0.504v-3.446c0-1.625-1.163-2.381-2.759-2.381c-1.359,0-2.465,0.672-2.83,1.709l0.826,0.602
		c0.378-0.882,1.079-1.331,2.003-1.331c1.051,0,1.639,0.616,1.639,1.541v0.392l-1.863,0.308c-1.807,0.308-2.731,1.135-2.731,2.185
		c0,1.261,1.065,1.877,2.381,1.877c0.896,0,1.807-0.378,2.255-1.037c0.126,0.784,0.574,1.037,1.261,1.037
		c0.35,0,0.644-0.07,0.84-0.14l0.07-0.882C40.215,205.799,40.004,205.827,39.822,205.827z M36.012,205.799
		c-0.798,0-1.275-0.308-1.275-0.896c0-0.658,0.63-1.065,1.863-1.289l1.569-0.294v0.967
		C38.169,205.211,37.133,205.799,36.012,205.799z M46.381,199.496c-1.093,0-1.849,0.434-2.241,1.289l-0.154-1.149h-0.91v7.004h1.121
		v-3.782c0-1.569,1.009-2.311,1.849-2.311c0.364,0,0.672,0.07,0.882,0.182l0.224-1.093
		C46.942,199.524,46.619,199.496,46.381,199.496z M53.334,205.211c-0.322,0.322-0.686,0.518-1.191,0.518
		c-0.616,0-1.051-0.336-1.051-1.023v-4.104h2.591v-0.967h-2.591v-1.989l-1.121,0.308v1.681h-1.401v0.967h1.401v4.3
		c0.014,1.359,0.91,1.877,1.947,1.877c0.77,0,1.373-0.238,1.807-0.63z M64.516,199.496c-0.882,0-2.003,0.42-2.437,1.373
		c-0.462-0.939-1.429-1.373-2.409-1.373c-0.868,0-1.737,0.378-2.241,1.233l-0.07-1.093h-0.981v7.004h1.121v-3.74
		c0-1.737,1.149-2.423,2.073-2.423s1.653,0.518,1.653,1.793v4.37h1.121v-3.838c0-1.499,0.981-2.325,2.073-2.325
		c0.924,0,1.653,0.518,1.653,1.793v4.37h1.121v-4.482C67.192,200.309,65.861,199.496,64.516,199.496z M76.801,202.774
		c0-1.807-1.107-3.278-3.138-3.278c-2.115,0-3.306,1.373-3.306,3.642s1.275,3.642,3.39,3.642c1.513,0,2.381-0.574,2.914-1.527
		l-0.939-0.49c-0.252,0.672-0.953,1.037-1.975,1.037c-1.289,0-2.143-0.826-2.283-2.241h5.281
		C76.773,203.362,76.801,203.096,76.801,202.774z M73.663,200.477c1.191,0,1.905,0.798,2.059,2.087h-4.244
		C71.646,201.247,72.417,200.477,73.663,200.477z M83.402,199.496c-0.967,0-1.863,0.35-2.353,1.233l-0.07-1.093h-0.981v7.004h1.121
		v-3.726c0-1.793,1.149-2.437,2.171-2.437c0.967,0,1.723,0.518,1.723,2.073v4.09h1.121v-4.482
		C86.133,200.351,84.901,199.496,83.402,199.496z M93.532,205.211c-0.322,0.322-0.686,0.518-1.191,0.518
		c-0.616,0-1.051-0.336-1.051-1.023v-4.104h2.591v-0.967h-2.591v-1.989l-1.121,0.308v1.681H88.77v0.967h1.401v4.3
		c0.014,1.359,0.91,1.877,1.947,1.877c0.77,0,1.373-0.238,1.807-0.63z M106.45,199.496c-2.115,0-3.39,1.373-3.39,3.642
		s1.275,3.642,3.39,3.642s3.39-1.373,3.39-3.642S108.566,199.496,106.45,199.496z M106.45,200.463c1.415,0,2.269,1.009,2.269,2.675
		s-0.854,2.675-2.269,2.675s-2.269-1.009-2.269-2.675S105.036,200.463,106.45,200.463z M114.62,198.572
		c0-0.84,0.462-1.205,1.275-1.205c0.322,0,0.574,0.07,0.798,0.21l0.294-0.91c-0.252-0.21-0.7-0.322-1.191-0.322
		c-1.541,0-2.297,0.868-2.297,2.115v1.177h-1.401v0.967h1.401v6.037h1.121v-6.037h2.339v-0.967h-2.339z M128.267,206.78
		c1.793,0,2.928-0.854,2.928-2.073c0-1.149-0.7-1.737-2.661-2.059c-1.429-0.238-1.891-0.546-1.891-1.149
		c0-0.518,0.7-1.023,1.639-1.023c0.882,0,1.513,0.336,1.821,1.261l0.953-0.56c-0.392-1.149-1.275-1.681-2.773-1.681
		c-1.709,0-2.759,0.967-2.759,2.101c0,1.177,0.728,1.723,2.717,2.087c1.401,0.252,1.835,0.56,1.835,1.079
		c0,0.574-0.546,1.037-1.695,1.037c-1.009,0-1.877-0.378-2.213-1.233l-0.91,0.63C125.788,206.276,126.978,206.78,128.267,206.78z
		 M140.079,205.827c-0.392,0-0.532-0.168-0.532-0.504v-3.446c0-1.625-1.163-2.381-2.759-2.381c-1.359,0-2.465,0.672-2.83,1.709
		l0.826,0.602c0.378-0.882,1.079-1.331,2.003-1.331c1.051,0,1.639,0.616,1.639,1.541v0.392l-1.863,0.308
		c-1.807,0.308-2.731,1.135-2.731,2.185c0,1.261,1.065,1.877,2.381,1.877c0.896,0,1.807-0.378,2.255-1.037
		c0.126,0.784,0.574,1.037,1.261,1.037c0.35,0,0.644-0.07,0.84-0.14l0.07-0.882C140.471,205.799,140.261,205.827,140.079,205.827z
		 M136.269,205.799c-0.798,0-1.275-0.308-1.275-0.896c0-0.658,0.63-1.065,1.863-1.289l1.569-0.294v0.967
		C138.426,205.211,137.39,205.799,136.269,205.799z M146.736,199.496c-0.967,0-1.863,0.35-2.353,1.233l-0.07-1.093h-0.981v7.004
		h1.121v-3.726c0-1.793,1.149-2.437,2.171-2.437c0.967,0,1.723,0.518,1.723,2.073v4.09h1.121v-4.482
		C149.467,200.351,148.235,199.496,146.736,199.496z M153.631,198.291c0.504,0,0.84-0.336,0.84-0.84s-0.336-0.84-0.84-0.84
		s-0.84,0.336-0.84,0.84S153.126,198.291,153.631,198.291z M154.191,199.636h-1.121v7.004h1.121z M161.761,205.211
		c-0.322,0.322-0.686,0.518-1.191,0.518c-0.616,0-1.051-0.336-1.051-1.023v-4.104h2.591v-0.967h-2.591v-1.989l-1.121,0.308v1.681
		h-1.401v0.967h1.401v4.3c0.014,1.359,0.91,1.877,1.947,1.877c0.77,0,1.373-0.238,1.807-0.63z M170.548,205.827
		c-0.392,0-0.532-0.168-0.532-0.504v-3.446c0-1.625-1.163-2.381-2.759-2.381c-1.359,0-2.465,0.672-2.83,1.709l0.826,0.602
		c0.378-0.882,1.079-1.331,2.003-1.331c1.051,0,1.639,0.616,1.639,1.541v0.392l-1.863,0.308c-1.807,0.308-2.731,1.135-2.731,2.185
		c0,1.261,1.065,1.877,2.381,1.877c0.896,0,1.807-0.378,2.255-1.037c0.126,0.784,0.574,1.037,1.261,1.037
		c0.35,0,0.644-0.07,0.84-0.14l0.07-0.882C170.94,205.799,170.73,205.827,170.548,205.827z M166.738,205.799
		c-0.798,0-1.275-0.308-1.275-0.896c0-0.658,0.63-1.065,1.863-1.289l1.569-0.294v0.967
		C168.895,205.211,167.858,205.799,166.738,205.799z M177.415,205.211c-0.322,0.322-0.686,0.518-1.191,0.518
		c-0.616,0-1.051-0.336-1.051-1.023v-4.104h2.591v-0.967h-2.591v-1.989l-1.121,0.308v1.681h-1.401v0.967h1.401v4.3
		c0.014,1.359,0.91,1.877,1.947,1.877c0.77,0,1.373-0.238,1.807-0.63z M181.019,198.291c0.504,0,0.84-0.336,0.84-0.84
		s-0.336-0.84-0.84-0.84s-0.84,0.336-0.84,0.84S180.515,198.291,181.019,198.291z M181.58,199.636h-1.121v7.004h1.121z
		 M188.211,199.496c-2.115,0-3.39,1.373-3.39,3.642s1.275,3.642,3.39,3.642s3.39-1.373,3.39-3.642S190.326,199.496,188.211,199.496z
		 M188.211,200.463c1.415,0,2.269,1.009,2.269,2.675s-0.854,2.675-2.269,2.675s-2.269-1.009-2.269-2.675
		S186.796,200.463,188.211,200.463z M198.243,199.496c-0.967,0-1.863,0.35-2.353,1.233l-0.07-1.093h-0.981v7.004h1.121v-3.726
		c0-1.793,1.149-2.437,2.171-2.437c0.967,0,1.723,0.518,1.723,2.073v4.09h1.121v-4.482
		C200.975,200.351,199.742,199.496,198.243,199.496z M205.138,204.959c-0.546,0-0.91,0.364-0.91,0.91s0.364,0.91,0.91,0.91
		s0.91-0.364,0.91-0.91S205.684,204.959,205.138,204.959z M222.624,197.395h-7.564v1.051h3.222v8.194h1.121v-8.194h3.222z
		 M228.566,199.496c-0.953,0-1.793,0.35-2.283,1.191v-4.272h-1.121v10.226h1.121v-3.712c0-1.793,1.149-2.451,2.171-2.451
		c0.967,0,1.723,0.518,1.723,2.073v4.09h1.121v-4.482C231.298,200.351,230.065,199.496,228.566,199.496z M235.461,198.291
		c0.504,0,0.84-0.336,0.84-0.84s-0.336-0.84-0.84-0.84s-0.84,0.336-0.84,0.84S234.957,198.291,235.461,198.291z M236.021,199.636
		h-1.121v7.004h1.121z M243.101,199.496c-0.967,0-1.863,0.35-2.353,1.233l-0.07-1.093h-0.981v7.004h1.121v-3.726
		c0-1.793,1.149-2.437,2.171-2.437c0.967,0,1.723,0.518,1.723,2.073v4.09h1.121v-4.482
		C245.832,200.351,244.599,199.496,243.101,199.496z M254.394,206.64h1.359l-2.9-4.272l2.731-2.731h-1.401l-3.628,3.628v-6.85
		h-1.121v10.226h1.121v-1.975l1.485-1.485z M259.215,199.496c-0.546,0-0.91,0.364-0.91,0.91s0.364,0.91,0.91,0.91
		s0.91-0.364,0.91-0.91S259.762,199.496,259.215,199.496z M259.215,204.959c-0.546,0-0.91,0.364-0.91,0.91s0.364,0.91,0.91,0.91
		s0.91-0.364,0.91-0.91S259.762,204.959,259.215,204.959z"/>
	<path fill="#FFFFFF" d="M11.756,230.64l-3.082-4.763l2.984-4.482h-1.191L8.1,225.009l-2.353-3.614H4.416l2.956,4.538l-3.236,4.707
		h1.303l2.507-3.824l2.507,3.824z M17.73,226.396h-4.622v1.163h4.622z M27.415,222.445v-1.051h-6.471v9.245h1.121v-4.16h4.174
		v-1.051h-4.174v-2.984z M30.278,222.291c0.504,0,0.84-0.336,0.84-0.84s-0.336-0.84-0.84-0.84s-0.84,0.336-0.84,0.84
		S29.774,222.291,30.278,222.291z M30.839,223.636h-1.121v7.004h1.121z M34.951,220.414H33.83v8.489
		c0,1.275,0.546,1.877,1.681,1.877c0.364,0,0.742-0.07,1.037-0.196l0.182-1.079c-0.406,0.154-0.644,0.196-1.023,0.196
		c-0.574,0-0.756-0.224-0.756-0.939z M44.624,226.774c0-1.807-1.107-3.278-3.138-3.278c-2.115,0-3.306,1.373-3.306,3.642
		s1.275,3.642,3.39,3.642c1.513,0,2.381-0.574,2.914-1.527l-0.939-0.49c-0.252,0.672-0.953,1.037-1.975,1.037
		c-1.289,0-2.143-0.826-2.283-2.241h5.281C44.596,227.362,44.624,227.096,44.624,226.774z M41.486,224.477
		c1.191,0,1.905,0.798,2.059,2.087h-4.244C39.469,225.247,40.24,224.477,41.486,224.477z M49.574,230.78
		c1.793,0,2.928-0.854,2.928-2.073c0-1.149-0.7-1.737-2.661-2.059c-1.429-0.238-1.891-0.546-1.891-1.149
		c0-0.518,0.7-1.023,1.639-1.023c0.882,0,1.513,0.336,1.821,1.261l0.953-0.56c-0.392-1.149-1.275-1.681-2.773-1.681
		c-1.709,0-2.759,0.967-2.759,2.101c0,1.177,0.728,1.723,2.717,2.087c1.401,0.252,1.835,0.56,1.835,1.079
		c0,0.574-0.546,1.037-1.695,1.037c-1.009,0-1.877-0.378-2.213-1.233l-0.91,0.63C47.095,230.276,48.286,230.78,49.574,230.78z
		 M55.576,228.959c-0.546,0-0.91,0.364-0.91,0.91s0.364,0.91,0.91,0.91s0.91-0.364,0.91-0.91S56.122,228.959,55.576,228.959z
		 M72.313,221.395h-1.065v6.528l0.056,1.485H71.29l-0.995-1.849l-3.852-6.163h-1.387v9.245h1.065v-6.528l-0.056-1.485h0.014
		l0.981,1.821l3.866,6.191h1.387z M82.136,221.395h-1.331l-2.535,4.482l-2.535-4.482h-1.331l3.306,5.631v3.614h1.121v-3.614z
		 M87.493,221.395h-3.264v9.245h1.121v-3.614h2.143c1.863,0,3.11-1.079,3.11-2.816S89.356,221.395,87.493,221.395z M87.325,225.975
		H85.35v-3.53h1.975c1.457,0,2.101,0.616,2.101,1.765S88.782,225.975,87.325,225.975z M96.197,221.395h-2.984v9.245h2.984
		c2.9,0,4.651-1.653,4.651-4.622S99.097,221.395,96.197,221.395z M96.309,229.589h-1.975v-7.144h1.975
		c2.115,0,3.362,1.331,3.362,3.572S98.424,229.589,96.309,229.589z M109.415,230.64h3.278c2.185,0,3.404-1.023,3.404-2.591
		c0-1.009-0.7-1.891-1.793-2.101v-0.014c0.995-0.196,1.555-1.051,1.555-1.989c0-1.569-0.967-2.549-3.152-2.549h-3.292z
		 M110.535,225.457v-3.012h2.185c1.317,0,1.961,0.49,1.961,1.499c0,1.023-0.644,1.513-1.961,1.513z M110.535,229.589v-3.082h2.423
		c1.317,0,1.961,0.56,1.961,1.541s-0.644,1.541-1.961,1.541z M119.856,220.414h-1.121v8.489c0,1.275,0.546,1.877,1.681,1.877
		c0.364,0,0.742-0.07,1.037-0.196l0.182-1.079c-0.406,0.154-0.644,0.196-1.023,0.196c-0.574,0-0.756-0.224-0.756-0.939z
		 M128.464,223.636v3.81c0,1.653-1.051,2.353-2.241,2.353c-1.009,0-1.653-0.434-1.653-1.877v-4.286h-1.121v4.58
		c0,1.849,1.191,2.563,2.577,2.563c1.121,0,2.017-0.364,2.507-1.205l0.07,1.065h0.981v-7.004z M138.639,226.774
		c0-1.807-1.107-3.278-3.138-3.278c-2.115,0-3.306,1.373-3.306,3.642s1.275,3.642,3.39,3.642c1.513,0,2.381-0.574,2.914-1.527
		l-0.939-0.49c-0.252,0.672-0.953,1.037-1.975,1.037c-1.289,0-2.143-0.826-2.283-2.241h5.281
		C138.611,227.362,138.639,227.096,138.639,226.774z M135.501,224.477c1.191,0,1.905,0.798,2.059,2.087h-4.244
		C133.484,225.247,134.255,224.477,135.501,224.477z M141.768,228.959c-0.546,0-0.91,0.364-0.91,0.91s0.364,0.91,0.91,0.91
		s0.91-0.364,0.91-0.91S142.315,228.959,141.768,228.959z M157.189,230.64h1.345l-3.726-5.477l3.684-3.768h-1.471l-4.651,4.763
		v-4.763h-1.121v9.245h1.121v-2.97l1.653-1.681z M164.071,223.496c-0.953,0-1.793,0.35-2.283,1.191v-4.272h-1.121v10.226h1.121
		v-3.712c0-1.793,1.149-2.451,2.171-2.451c0.967,0,1.723,0.518,1.723,2.073v4.09h1.121v-4.482
		C166.803,224.351,165.57,223.496,164.071,223.496z M175.521,229.827c-0.392,0-0.532-0.168-0.532-0.504v-3.446
		c0-1.625-1.163-2.381-2.759-2.381c-1.359,0-2.465,0.672-2.83,1.709l0.826,0.602c0.378-0.882,1.079-1.331,2.003-1.331
		c1.051,0,1.639,0.616,1.639,1.541v0.392l-1.863,0.308c-1.807,0.308-2.731,1.135-2.731,2.185c0,1.261,1.065,1.877,2.381,1.877
		c0.896,0,1.807-0.378,2.255-1.037c0.126,0.784,0.574,1.037,1.261,1.037c0.35,0,0.644-0.07,0.84-0.14l0.07-0.882
		C175.913,229.799,175.703,229.827,175.521,229.827z M171.711,229.799c-0.798,0-1.275-0.308-1.275-0.896
		c0-0.658,0.63-1.065,1.863-1.289l1.569-0.294v0.967C173.868,229.211,172.832,229.799,171.711,229.799z M183.105,230.64h1.359
		l-2.9-4.272l2.731-2.731h-1.401l-3.628,3.628v-6.85h-1.121v10.226h1.121v-1.975l1.485-1.485z M187.089,222.291
		c0.504,0,0.84-0.336,0.84-0.84s-0.336-0.84-0.84-0.84s-0.84,0.336-0.84,0.84S186.585,222.291,187.089,222.291z M187.649,223.636
		h-1.121v7.004h1.121z M193.078,230.78c1.793,0,2.928-0.854,2.928-2.073c0-1.149-0.7-1.737-2.661-2.059
		c-1.429-0.238-1.891-0.546-1.891-1.149c0-0.518,0.7-1.023,1.639-1.023c0.882,0,1.513,0.336,1.821,1.261l0.953-0.56
		c-0.392-1.149-1.275-1.681-2.773-1.681c-1.709,0-2.759,0.967-2.759,2.101c0,1.177,0.728,1.723,2.717,2.087
		c1.401,0.252,1.835,0.56,1.835,1.079c0,0.574-0.546,1.037-1.695,1.037c-1.009,0-1.877-0.378-2.213-1.233l-0.91,0.63
		C190.599,230.276,191.789,230.78,193.078,230.78z M199.08,228.959c-0.546,0-0.91,0.364-0.91,0.91s0.364,0.91,0.91,0.91
		s0.91-0.364,0.91-0.91S199.626,228.959,199.08,228.959z M216.012,228.273l-1.121-0.42c-0.406,1.247-1.373,1.877-2.605,1.877
		c-1.919,0-3.11-1.387-3.11-3.712c0-2.339,1.275-3.712,3.166-3.712c1.233,0,1.989,0.56,2.395,1.625l1.107-0.518
		c-0.588-1.401-1.793-2.157-3.586-2.157c-2.577,0-4.258,1.835-4.258,4.763s1.653,4.763,4.286,4.763
		C214.023,230.78,215.424,229.855,216.012,228.273z M221.354,223.496c-2.115,0-3.39,1.373-3.39,3.642s1.275,3.642,3.39,3.642
		s3.39-1.373,3.39-3.642S223.469,223.496,221.354,223.496z M221.354,224.463c1.415,0,2.269,1.009,2.269,2.675
		s-0.854,2.675-2.269,2.675s-2.269-1.009-2.269-2.675S219.939,224.463,221.354,224.463z M228.419,220.414h-1.121v8.489
		c0,1.275,0.546,1.877,1.681,1.877c0.364,0,0.742-0.07,1.037-0.196l0.182-1.079c-0.406,0.154-0.644,0.196-1.023,0.196
		c-0.574,0-0.756-0.224-0.756-0.939z M233.148,220.414h-1.121v8.489c0,1.275,0.546,1.877,1.681,1.877
		c0.364,0,0.742-0.07,1.037-0.196l0.182-1.079c-0.406,0.154-0.644,0.196-1.023,0.196c-0.574,0-0.756-0.224-0.756-0.939z
		 M242.555,229.827c-0.392,0-0.532-0.168-0.532-0.504v-3.446c0-1.625-1.163-2.381-2.759-2.381c-1.359,0-2.465,0.672-2.83,1.709
		l0.826,0.602c0.378-0.882,1.079-1.331,2.003-1.331c1.051,0,1.639,0.616,1.639,1.541v0.392l-1.863,0.308
		c-1.807,0.308-2.731,1.135-2.731,2.185c0,1.261,1.065,1.877,2.381,1.877c0.896,0,1.807-0.378,2.255-1.037
		c0.126,0.784,0.574,1.037,1.261,1.037c0.35,0,0.644-0.07,0.84-0.14l0.07-0.882C242.947,229.799,242.737,229.827,242.555,229.827z
		 M238.745,229.799c-0.798,0-1.275-0.308-1.275-0.896c0-0.658,0.63-1.065,1.863-1.289l1.569-0.294v0.967
		C240.902,229.211,239.865,229.799,238.745,229.799z M248.486,223.496c-1.093,0-1.849,0.434-2.241,1.289l-0.154-1.149h-0.91v7.004
		h1.121v-3.782c0-1.569,1.009-2.311,1.849-2.311c0.364,0,0.672,0.07,0.882,0.182l0.224-1.093
		C249.046,223.524,248.724,223.496,248.486,223.496z M253.424,230.78c1.793,0,2.928-0.854,2.928-2.073
		c0-1.149-0.7-1.737-2.661-2.059c-1.429-0.238-1.891-0.546-1.891-1.149c0-0.518,0.7-1.023,1.639-1.023
		c0.882,0,1.513,0.336,1.821,1.261l0.953-0.56c-0.392-1.149-1.275-1.681-2.773-1.681c-1.709,0-2.759,0.967-2.759,2.101
		c0,1.177,0.728,1.723,2.717,2.087c1.401,0.252,1.835,0.56,1.835,1.079c0,0.574-0.546,1.037-1.695,1.037
		c-1.009,0-1.877-0.378-2.213-1.233l-0.91,0.63C250.944,230.276,252.135,230.78,253.424,230.78z M259.425,228.959
		c-0.546,0-0.91,0.364-0.91,0.91s0.364,0.91,0.91,0.91s0.91-0.364,0.91-0.91S259.971,228.959,259.425,228.959z"/>
	<path fill="#FFFFFF" d="M11.154,254.64h1.331l-2.605-3.964c1.261-0.336,2.045-1.261,2.045-2.577c0-1.667-1.247-2.703-3.124-2.703
		H5.299v9.245h1.121v-3.838h2.213z M6.419,246.445h2.367c1.317,0,1.961,0.546,1.961,1.653s-0.644,1.653-1.961,1.653H6.419z
		 M17.116,247.496c-2.115,0-3.39,1.373-3.39,3.642s1.275,3.642,3.39,3.642s3.39-1.373,3.39-3.642S19.231,247.496,17.116,247.496z
		 M17.116,248.463c1.415,0,2.269,1.009,2.269,2.675s-0.854,2.675-2.269,2.675s-2.269-1.009-2.269-2.675
		S15.702,248.463,17.116,248.463z M23.737,244.414h-1.121v8.489c0,1.275,0.546,1.877,1.681,1.877c0.364,0,0.742-0.07,1.037-0.196
		l0.182-1.079c-0.406,0.154-0.644,0.196-1.023,0.196c-0.574,0-0.756-0.224-0.756-0.939z M28.021,244.414H26.9v8.489
		c0,1.275,0.546,1.877,1.681,1.877c0.364,0,0.742-0.07,1.037-0.196l0.182-1.079c-0.406,0.154-0.644,0.196-1.023,0.196
		c-0.574,0-0.756-0.224-0.756-0.939z M37.25,250.774c0-1.807-1.107-3.278-3.138-3.278c-2.115,0-3.306,1.373-3.306,3.642
		s1.275,3.642,3.39,3.642c1.513,0,2.381-0.574,2.914-1.527l-0.939-0.49c-0.252,0.672-0.953,1.037-1.975,1.037
		c-1.289,0-2.143-0.826-2.283-2.241h5.281C37.222,251.362,37.25,251.096,37.25,250.774z M34.112,248.477
		c1.191,0,1.905,0.798,2.059,2.087h-4.244C32.095,249.247,32.865,248.477,34.112,248.477z M44.473,244.414v4.314
		c-0.434-0.728-1.275-1.233-2.325-1.233c-1.947,0-3.194,1.359-3.194,3.642s1.247,3.642,3.194,3.642c1.107,0,1.989-0.56,2.395-1.359
		l0.07,1.219h0.981v-10.226z M42.274,253.799c-1.373,0-2.199-1.037-2.199-2.661s0.826-2.661,2.199-2.661
		c1.331,0,2.199,0.995,2.199,2.577v0.168C44.473,252.805,43.605,253.799,42.274,253.799z M57.913,247.636v3.81
		c0,1.653-1.051,2.353-2.241,2.353c-1.009,0-1.653-0.434-1.653-1.877v-4.286h-1.121v4.58c0,1.849,1.191,2.563,2.577,2.563
		c1.121,0,2.017-0.364,2.507-1.205l0.07,1.065h0.981v-7.004z M65.08,247.496c-1.107,0-1.989,0.56-2.395,1.359l-0.07-1.219h-0.981
		v9.945h1.121v-4.034c0.434,0.728,1.275,1.233,2.325,1.233c1.947,0,3.194-1.359,3.194-3.642S67.027,247.496,65.08,247.496z
		 M64.954,253.799c-1.331,0-2.199-0.995-2.199-2.577v-0.168c0-1.583,0.868-2.577,2.199-2.577c1.373,0,2.199,1.037,2.199,2.661
		S66.326,253.799,64.954,253.799z M77.609,254.78c1.793,0,2.928-0.854,2.928-2.073c0-1.149-0.7-1.737-2.661-2.059
		c-1.429-0.238-1.891-0.546-1.891-1.149c0-0.518,0.7-1.023,1.639-1.023c0.882,0,1.513,0.336,1.821,1.261l0.953-0.56
		c-0.392-1.149-1.275-1.681-2.773-1.681c-1.709,0-2.759,0.967-2.759,2.101c0,1.177,0.728,1.723,2.717,2.087
		c1.401,0.252,1.835,0.56,1.835,1.079c0,0.574-0.546,1.037-1.695,1.037c-1.009,0-1.877-0.378-2.213-1.233l-0.91,0.63
		C75.13,254.276,76.32,254.78,77.609,254.78z M83.67,244.414h-1.121v8.489c0,1.275,0.546,1.877,1.681,1.877
		c0.364,0,0.742-0.07,1.037-0.196l0.182-1.079c-0.406,0.154-0.644,0.196-1.023,0.196c-0.574,0-0.756-0.224-0.756-0.939z
		 M92.899,250.774c0-1.807-1.107-3.278-3.138-3.278c-2.115,0-3.306,1.373-3.306,3.642s1.275,3.642,3.39,3.642
		c1.513,0,2.381-0.574,2.914-1.527l-0.939-0.49c-0.252,0.672-0.953,1.037-1.975,1.037c-1.289,0-2.143-0.826-2.283-2.241h5.281
		C92.871,251.362,92.899,251.096,92.899,250.774z M89.761,248.477c1.191,0,1.905,0.798,2.059,2.087h-4.244
		C87.744,249.247,88.514,248.477,89.761,248.477z M101.033,250.774c0-1.807-1.107-3.278-3.138-3.278
		c-2.115,0-3.306,1.373-3.306,3.642s1.275,3.642,3.39,3.642c1.513,0,2.381-0.574,2.914-1.527l-0.939-0.49
		c-0.252,0.672-0.953,1.037-1.975,1.037c-1.289,0-2.143-0.826-2.283-2.241h5.281C101.005,251.362,101.033,251.096,101.033,250.774z
		 M97.895,248.477c1.191,0,1.905,0.798,2.059,2.087H95.71C95.878,249.247,96.648,248.477,97.895,248.477z M107.598,247.636
		l-2.283,5.869l-2.213-5.869h-1.275l2.914,7.004h1.121l2.914-7.004z M116.251,250.774c0-1.807-1.107-3.278-3.138-3.278
		c-2.115,0-3.306,1.373-3.306,3.642s1.275,3.642,3.39,3.642c1.513,0,2.381-0.574,2.914-1.527l-0.939-0.49
		c-0.252,0.672-0.953,1.037-1.975,1.037c-1.289,0-2.143-0.826-2.283-2.241h5.281C116.223,251.362,116.251,251.096,116.251,250.774z
		 M113.113,248.477c1.191,0,1.905,0.798,2.059,2.087h-4.244C111.096,249.247,111.866,248.477,113.113,248.477z M120.757,254.78
		c1.793,0,2.928-0.854,2.928-2.073c0-1.149-0.7-1.737-2.661-2.059c-1.429-0.238-1.891-0.546-1.891-1.149
		c0-0.518,0.7-1.023,1.639-1.023c0.882,0,1.513,0.336,1.821,1.261l0.953-0.56c-0.392-1.149-1.275-1.681-2.773-1.681
		c-1.709,0-2.759,0.967-2.759,2.101c0,1.177,0.728,1.723,2.717,2.087c1.401,0.252,1.835,0.56,1.835,1.079
		c0,0.574-0.546,1.037-1.695,1.037c-1.009,0-1.877-0.378-2.213-1.233l-0.91,0.63C118.277,254.276,119.468,254.78,120.757,254.78z
		 M126.313,252.959c-0.546,0-0.91,0.364-0.91,0.91s0.364,0.91,0.91,0.91s0.91-0.364,0.91-0.91S126.86,252.959,126.313,252.959z"/>
</g>
</svg>
