<!-- Generator: Adobe InDesign 21.0 SVG Export Plug-in, SVG Library version: 9.3 build 128 -->
<!DOCTYPE svg PUBLIC "-//W3C//DTD SVG 1.1//EN" "http://www.w3.org/Graphics/SVG/1.1/DTD/svg11.dtd">
<svg version="1.1" xmlns="http://www.w3.org/2000/svg" xmlns:xlink="http://www.w3.org/1999/xlink" x="0%" y="0%" width="100%"
	 height="100%" viewBox="0 0 353.409 318.383" preserveAspectRatio="xMidYMid slice" overflow="visible" xml:space="preserve">
<clipPath id="clp_unq_id_1" fill="none">
	<path shape-rendering="crispEdges" stroke="#000000" d="M0,0h353.409v318.383H0V0"/>
</clipPath>
<g clip-path="url(#clp_unq_id_1)" fill="none">
	<path fill="#000000" d="M328.204,41.652c-0.7,0-1.149-0.168-1.541-0.588l0.392-0.952c0.322,0.448,0.742,0.56,1.135,0.56
		c0.49,0,0.925-0.21,1.275-1.135l0.364-0.911l-2.928-6.99h1.275l1.751,4.567l0.434,1.247l0.504-1.387l1.639-4.426h1.205l-3.292,8.18
		C329.871,41.189,329.241,41.652,328.204,41.652 M40.258,41.652c-2.213,0-3.222-0.798-3.222-1.849c0-0.644,0.462-1.149,1.233-1.359
		c-0.532-0.252-0.952-0.672-0.952-1.289c0-0.728,0.434-1.163,1.051-1.373c-0.672-0.42-1.023-1.107-1.023-1.919
		c0-1.387,1.191-2.367,2.872-2.367c0.532,0,1.008,0.098,1.429,0.28c0.266-0.966,0.925-1.429,1.975-1.429l0.252,0.981
		c-0.939,0-1.471,0.266-1.667,0.77c0.56,0.42,0.883,1.037,0.883,1.765c0,1.387-1.191,2.367-2.872,2.367
		c-0.406,0-0.77-0.042-1.079-0.126c-0.56,0.126-0.784,0.406-0.784,0.883c0,0.49,0.378,0.756,0.925,0.756h2.325
		c1.331,0,2.115,0.658,2.115,1.667C43.718,40.797,42.149,41.652,40.258,41.652 M39.417,38.71c-0.882,0-1.345,0.336-1.345,0.869
		c0,0.686,0.77,1.135,2.311,1.135c1.485,0,2.297-0.56,2.297-1.177c0-0.504-0.336-0.827-1.387-0.827H39.417 M40.216,32.407
		c-0.967,0-1.709,0.588-1.709,1.457c0,0.868,0.742,1.457,1.709,1.457c0.966,0,1.709-0.588,1.709-1.457
		C41.925,32.995,41.182,32.407,40.216,32.407 M316.866,38.78c-2.115,0-3.39-1.373-3.39-3.642c0-2.269,1.191-3.642,3.306-3.642
		c2.031,0,3.138,1.471,3.138,3.278c0,0.322-0.028,0.588-0.056,0.784h-5.281c0.14,1.415,0.995,2.241,2.283,2.241
		c1.023,0,1.723-0.364,1.975-1.037l0.939,0.49C319.247,38.206,318.379,38.78,316.866,38.78 M316.782,32.477
		c-1.247,0-2.017,0.77-2.185,2.087h4.244C318.687,33.275,317.972,32.477,316.782,32.477 M297.028,38.78
		c-2.115,0-3.39-1.373-3.39-3.642c0-2.269,1.191-3.642,3.306-3.642c2.031,0,3.138,1.471,3.138,3.278
		c0,0.322-0.028,0.588-0.056,0.784h-5.281c0.14,1.415,0.995,2.241,2.283,2.241c1.023,0,1.723-0.364,1.975-1.037l0.939,0.49
		C299.409,38.206,298.541,38.78,297.028,38.78 M296.944,32.477c-1.247,0-2.017,0.77-2.185,2.087h4.244
		C298.849,33.275,298.135,32.477,296.944,32.477 M282.02,38.78c-1.037,0-1.933-0.518-1.947-1.877v-4.3h-1.401v-0.967h1.401v-1.681
		l1.121-0.308v1.989h2.591v0.967h-2.591v4.104c0,0.686,0.434,1.023,1.051,1.023c0.504,0,0.868-0.196,1.191-0.518l0.392,0.939
		C283.393,38.542,282.791,38.78,282.02,38.78 M269.491,38.78c-2.115,0-3.39-1.373-3.39-3.642c0-2.269,1.275-3.642,3.39-3.642
		s3.39,1.373,3.39,3.642C272.88,37.407,271.606,38.78,269.491,38.78 M269.491,32.463c-1.415,0-2.269,1.009-2.269,2.675
		s0.854,2.675,2.269,2.675s2.269-1.008,2.269-2.675S270.905,32.463,269.491,32.463 M263.148,38.78c-1.037,0-1.933-0.518-1.947-1.877
		v-4.3h-1.401v-0.967h1.401v-1.681l1.121-0.308v1.989h2.591v0.967h-2.591v4.104c0,0.686,0.434,1.023,1.051,1.023
		c0.504,0,0.869-0.196,1.191-0.518l0.392,0.939C264.521,38.542,263.919,38.78,263.148,38.78 M243.605,38.78
		c-2.115,0-3.39-1.373-3.39-3.642c0-2.269,1.275-3.642,3.39-3.642c1.443,0,2.381,0.714,2.9,1.863l-1.065,0.504
		c-0.294-0.896-0.896-1.387-1.863-1.387c-1.401,0-2.241,0.995-2.241,2.661s0.84,2.661,2.241,2.661c1.093,0,1.751-0.518,1.961-1.443
		l1.037,0.364C246.098,38.01,245.09,38.78,243.605,38.78 M238.118,38.78c-0.686,0-1.135-0.252-1.261-1.037
		c-0.448,0.658-1.359,1.037-2.255,1.037c-1.317,0-2.381-0.616-2.381-1.877c0-1.051,0.925-1.877,2.732-2.185l1.863-0.308v-0.392
		c0-0.925-0.588-1.541-1.639-1.541c-0.924,0-1.625,0.448-2.003,1.331l-0.827-0.602c0.364-1.037,1.471-1.709,2.83-1.709
		c1.597,0,2.76,0.756,2.76,2.381v3.446c0,0.336,0.14,0.504,0.532,0.504c0.182,0,0.392-0.028,0.56-0.07l-0.07,0.883
		C238.763,38.71,238.468,38.78,238.118,38.78 M236.816,35.32l-1.569,0.294c-1.233,0.224-1.863,0.63-1.863,1.289
		c0,0.588,0.476,0.896,1.275,0.896c1.121,0,2.157-0.588,2.157-1.513V35.32 M227.351,38.78c-1.107,0-1.989-0.56-2.395-1.359
		l-0.07,1.219h-0.981V28.414h1.121v4.314c0.434-0.728,1.275-1.233,2.325-1.233c1.947,0,3.194,1.359,3.194,3.642
		S229.298,38.78,227.351,38.78 M227.225,32.477c-1.331,0-2.199,0.995-2.199,2.577v0.168c0,1.583,0.868,2.577,2.199,2.577
		c1.373,0,2.199-1.037,2.199-2.661C229.424,33.513,228.598,32.477,227.225,32.477 M186.164,38.78c-2.115,0-3.39-1.373-3.39-3.642
		c0-2.269,1.275-3.642,3.39-3.642c2.115,0,3.39,1.373,3.39,3.642C189.554,37.407,188.279,38.78,186.164,38.78 M186.164,32.463
		c-1.415,0-2.269,1.009-2.269,2.675s0.854,2.675,2.269,2.675c1.415,0,2.269-1.008,2.269-2.675S187.579,32.463,186.164,32.463
		 M177.652,38.78c-2.115,0-3.39-1.373-3.39-3.642c0-2.269,1.275-3.642,3.39-3.642c2.115,0,3.39,1.373,3.39,3.642
		C181.042,37.407,179.767,38.78,177.652,38.78 M177.652,32.463c-1.415,0-2.269,1.009-2.269,2.675s0.854,2.675,2.269,2.675
		c1.415,0,2.269-1.008,2.269-2.675S179.067,32.463,177.652,32.463 M157.156,38.78c-1.037,0-1.933-0.518-1.947-1.877v-4.3h-1.401
		v-0.967h1.401v-1.681l1.121-0.308v1.989h2.591v0.967h-2.591v4.104c0,0.686,0.434,1.023,1.051,1.023
		c0.504,0,0.869-0.196,1.191-0.518l0.392,0.939C158.529,38.542,157.927,38.78,157.156,38.78 M152.426,38.78
		c-0.686,0-1.135-0.252-1.261-1.037c-0.448,0.658-1.359,1.037-2.255,1.037c-1.317,0-2.381-0.616-2.381-1.877
		c0-1.051,0.924-1.877,2.731-2.185l1.863-0.308v-0.392c0-0.925-0.588-1.541-1.639-1.541c-0.925,0-1.625,0.448-2.003,1.331
		l-0.826-0.602c0.364-1.037,1.471-1.709,2.83-1.709c1.597,0,2.759,0.756,2.759,2.381v3.446c0,0.336,0.14,0.504,0.532,0.504
		c0.182,0,0.392-0.028,0.56-0.07l-0.07,0.883C153.07,38.71,152.776,38.78,152.426,38.78 M151.123,35.32l-1.569,0.294
		c-1.233,0.224-1.863,0.63-1.863,1.289c0,0.588,0.476,0.896,1.275,0.896c1.121,0,2.157-0.588,2.157-1.513V35.32 M141.659,38.78
		c-1.107,0-1.989-0.56-2.395-1.359l-0.07,1.219h-0.981V28.414h1.121v4.314c0.434-0.728,1.275-1.233,2.325-1.233
		c1.947,0,3.194,1.359,3.194,3.642S143.606,38.78,141.659,38.78 M141.533,32.477c-1.331,0-2.199,0.995-2.199,2.577v0.168
		c0,1.583,0.869,2.577,2.199,2.577c1.373,0,2.199-1.037,2.199-2.661C143.732,33.513,142.905,32.477,141.533,32.477 M128.261,38.78
		c-2.115,0-3.39-1.373-3.39-3.642c0-2.269,1.191-3.642,3.306-3.642c2.031,0,3.138,1.471,3.138,3.278
		c0,0.322-0.028,0.588-0.056,0.784h-5.281c0.14,1.415,0.995,2.241,2.283,2.241c1.023,0,1.723-0.364,1.975-1.037l0.938,0.49
		C130.642,38.206,129.774,38.78,128.261,38.78 M128.177,32.477c-1.247,0-2.017,0.77-2.185,2.087h4.244
		C130.082,33.275,129.367,32.477,128.177,32.477 M113.253,38.78c-1.037,0-1.933-0.518-1.947-1.877v-4.3h-1.401v-0.967h1.401v-1.681
		l1.121-0.308v1.989h2.591v0.967h-2.591v4.104c0,0.686,0.434,1.023,1.051,1.023c0.504,0,0.868-0.196,1.191-0.518l0.392,0.939
		C114.626,38.542,114.023,38.78,113.253,38.78 M101.283,38.78c-1.289,0-2.479-0.504-3.012-1.583l0.91-0.63
		c0.336,0.854,1.205,1.233,2.213,1.233c1.149,0,1.695-0.462,1.695-1.037c0-0.518-0.434-0.826-1.835-1.079
		c-1.989-0.364-2.717-0.911-2.717-2.087c0-1.135,1.051-2.101,2.759-2.101c1.499,0,2.381,0.532,2.774,1.681l-0.952,0.56
		c-0.308-0.924-0.939-1.261-1.821-1.261c-0.938,0-1.639,0.504-1.639,1.023c0,0.602,0.462,0.91,1.891,1.149
		c1.961,0.322,2.661,0.911,2.661,2.059C104.21,37.926,103.076,38.78,101.283,38.78 M93.723,38.78c-2.115,0-3.39-1.373-3.39-3.642
		c0-2.269,1.191-3.642,3.306-3.642c2.031,0,3.138,1.471,3.138,3.278c0,0.322-0.028,0.588-0.056,0.784H91.44
		c0.14,1.415,0.995,2.241,2.283,2.241c1.023,0,1.723-0.364,1.975-1.037l0.939,0.49C96.105,38.206,95.236,38.78,93.723,38.78
		 M93.639,32.477c-1.247,0-2.017,0.77-2.185,2.087h4.244C95.544,33.275,94.83,32.477,93.639,32.477 M81.195,38.78
		c-0.686,0-1.135-0.252-1.261-1.037c-0.448,0.658-1.359,1.037-2.255,1.037c-1.317,0-2.381-0.616-2.381-1.877
		c0-1.051,0.924-1.877,2.731-2.185l1.863-0.308v-0.392c0-0.925-0.588-1.541-1.639-1.541c-0.925,0-1.625,0.448-2.003,1.331
		l-0.826-0.602c0.364-1.037,1.471-1.709,2.83-1.709c1.597,0,2.759,0.756,2.759,2.381v3.446c0,0.336,0.14,0.504,0.532,0.504
		c0.182,0,0.392-0.028,0.56-0.07l-0.07,0.883C81.839,38.71,81.545,38.78,81.195,38.78 M79.892,35.32l-1.569,0.294
		c-1.233,0.224-1.863,0.63-1.863,1.289c0,0.588,0.476,0.896,1.275,0.896c1.121,0,2.157-0.588,2.157-1.513V35.32 M70.624,38.78
		c-2.115,0-3.39-1.373-3.39-3.642c0-2.269,1.191-3.642,3.306-3.642c2.031,0,3.138,1.471,3.138,3.278
		c0,0.322-0.028,0.588-0.056,0.784H68.34c0.14,1.415,0.995,2.241,2.283,2.241c1.023,0,1.723-0.364,1.975-1.037l0.939,0.49
		C73.005,38.206,72.136,38.78,70.624,38.78 M70.539,32.477c-1.247,0-2.017,0.77-2.185,2.087h4.244
		C72.445,33.275,71.73,32.477,70.539,32.477 M65.009,38.78c-1.135,0-1.681-0.602-1.681-1.877v-8.489h1.121v8.349
		c0,0.714,0.182,0.939,0.756,0.939c0.378,0,0.616-0.042,1.023-0.196l-0.182,1.079C65.751,38.71,65.373,38.78,65.009,38.78
		 M56.441,38.78c-1.135,0-1.681-0.602-1.681-1.877v-8.489h1.121v8.349c0,0.714,0.182,0.939,0.756,0.939
		c0.378,0,0.616-0.042,1.023-0.196l-0.182,1.079C57.183,38.71,56.805,38.78,56.441,38.78 M27.742,38.78
		c-2.115,0-3.39-1.373-3.39-3.642c0-2.269,1.191-3.642,3.306-3.642c2.031,0,3.138,1.471,3.138,3.278
		c0,0.322-0.028,0.588-0.056,0.784h-5.281c0.14,1.415,0.995,2.241,2.283,2.241c1.023,0,1.723-0.364,1.975-1.037l0.939,0.49
		C30.123,38.206,29.255,38.78,27.742,38.78 M27.658,32.477c-1.247,0-2.017,0.77-2.185,2.087h4.244
		C29.563,33.275,28.849,32.477,27.658,32.477 M323.165,38.64h-1.121v-7.004h0.91l0.154,1.149c0.392-0.854,1.149-1.289,2.241-1.289
		c0.238,0,0.56,0.028,0.77,0.14l-0.224,1.093c-0.21-0.112-0.518-0.182-0.883-0.182c-0.84,0-1.849,0.742-1.849,2.311V38.64
		 M309.53,38.64h-1.121l-2.914-7.004h1.275l2.213,5.869l2.283-5.869h1.177L309.53,38.64 M291.542,38.64h-1.121v-4.09
		c0-1.555-0.756-2.073-1.723-2.073c-1.023,0-2.171,0.658-2.171,2.451v3.712h-1.121V28.414h1.121v4.272
		c0.49-0.84,1.331-1.191,2.283-1.191c1.499,0,2.732,0.854,2.732,2.661V38.64 M254.863,38.64h-1.359l-2.353-3.46l-1.485,1.485v1.975
		h-1.121V28.414h1.121v6.85l3.628-3.628h1.401l-2.731,2.731L254.863,38.64 M202.534,38.64h-1.121v-4.37
		c0-1.275-0.728-1.793-1.653-1.793c-1.093,0-2.073,0.826-2.073,2.325v3.838h-1.121v-4.37c0-1.275-0.728-1.793-1.653-1.793
		s-2.073,0.686-2.073,2.423v3.74h-1.121v-7.004h0.981l0.07,1.093c0.504-0.854,1.373-1.233,2.241-1.233
		c0.981,0,1.947,0.434,2.409,1.373c0.434-0.952,1.555-1.373,2.437-1.373c1.345,0,2.676,0.812,2.676,2.661V38.64 M170.329,38.64
		h-1.121v-7.004h0.91l0.154,1.149c0.392-0.854,1.149-1.289,2.241-1.289c0.238,0,0.56,0.028,0.77,0.14l-0.224,1.093
		c-0.21-0.112-0.518-0.182-0.883-0.182c-0.84,0-1.849,0.742-1.849,2.311V38.64 M166.678,38.64h-1.121v-4.09
		c0-1.555-0.756-2.073-1.723-2.073c-1.023,0-2.171,0.658-2.171,2.451v3.712h-1.121V28.414h1.121v4.272
		c0.49-0.84,1.331-1.191,2.283-1.191c1.499,0,2.731,0.854,2.731,2.661V38.64 M122.775,38.64h-1.121v-4.09
		c0-1.555-0.756-2.073-1.723-2.073c-1.023,0-2.171,0.658-2.171,2.451v3.712h-1.121V28.414h1.121v4.272
		c0.49-0.84,1.331-1.191,2.283-1.191c1.499,0,2.731,0.854,2.731,2.661V38.64 M86.387,38.64h-1.121l-2.914-7.004h1.275l2.213,5.869
		l2.283-5.869h1.177L86.387,38.64 M50.225,38.64h-1.121v-7.004h0.91l0.154,1.149c0.392-0.854,1.149-1.289,2.241-1.289
		c0.238,0,0.56,0.028,0.77,0.14l-0.224,1.093c-0.21-0.112-0.518-0.182-0.883-0.182c-0.84,0-1.849,0.742-1.849,2.311V38.64
		 M46.501,38.64H45.38v-7.004h1.121V38.64 M22.256,38.64h-1.121v-4.09c0-1.555-0.756-2.073-1.723-2.073
		c-1.022,0-2.171,0.658-2.171,2.451v3.712h-1.121V28.414h1.121v4.272c0.49-0.84,1.331-1.191,2.283-1.191
		c1.499,0,2.731,0.854,2.731,2.661V38.64 M11.433,38.64h-1.121v-8.194H7.09v-1.051h7.564v1.051h-3.222V38.64 M216.685,35.502h-7.004
		v-1.051h7.004V35.502 M45.941,30.291c-0.504,0-0.84-0.336-0.84-0.84c0-0.504,0.336-0.84,0.84-0.84s0.84,0.336,0.84,0.84
		C46.781,29.955,46.445,30.291,45.941,30.291"/>
	<path fill="#000000" d="M200.121,62.652c-2.213,0-3.222-0.798-3.222-1.849c0-0.644,0.462-1.149,1.233-1.359
		c-0.532-0.252-0.952-0.672-0.952-1.289c0-0.728,0.434-1.163,1.051-1.373c-0.672-0.42-1.023-1.107-1.023-1.919
		c0-1.387,1.191-2.367,2.872-2.367c0.532,0,1.009,0.098,1.429,0.28c0.266-0.967,0.924-1.429,1.975-1.429l0.252,0.981
		c-0.939,0-1.471,0.266-1.667,0.77c0.56,0.42,0.882,1.037,0.882,1.765c0,1.387-1.191,2.367-2.872,2.367
		c-0.406,0-0.77-0.042-1.079-0.126c-0.56,0.126-0.784,0.406-0.784,0.882c0,0.49,0.378,0.756,0.924,0.756h2.325
		c1.331,0,2.115,0.658,2.115,1.667C203.581,61.797,202.012,62.652,200.121,62.652 M199.281,59.71c-0.883,0-1.345,0.336-1.345,0.869
		c0,0.686,0.77,1.135,2.311,1.135c1.485,0,2.297-0.56,2.297-1.177c0-0.504-0.336-0.827-1.387-0.827H199.281 M200.079,53.407
		c-0.966,0-1.709,0.588-1.709,1.457c0,0.869,0.742,1.457,1.709,1.457c0.967,0,1.709-0.588,1.709-1.457
		C201.788,53.995,201.046,53.407,200.079,53.407 M333.217,59.78c-1.037,0-1.933-0.518-1.947-1.877v-4.3h-1.401v-0.967h1.401v-1.681
		l1.121-0.308v1.989h2.591v0.967h-2.591v4.104c0,0.686,0.434,1.023,1.051,1.023c0.504,0,0.868-0.196,1.191-0.518l0.392,0.939
		C334.59,59.542,333.988,59.78,333.217,59.78 M328.487,59.78c-0.686,0-1.135-0.252-1.261-1.037
		c-0.448,0.658-1.359,1.037-2.255,1.037c-1.317,0-2.381-0.616-2.381-1.877c0-1.051,0.924-1.877,2.731-2.185l1.863-0.308v-0.392
		c0-0.925-0.588-1.541-1.639-1.541c-0.925,0-1.625,0.448-2.003,1.331l-0.826-0.602c0.364-1.037,1.471-1.709,2.83-1.709
		c1.597,0,2.759,0.756,2.759,2.381v3.446c0,0.336,0.14,0.504,0.532,0.504c0.182,0,0.392-0.028,0.56-0.07l-0.07,0.883
		C329.131,59.71,328.837,59.78,328.487,59.78 M327.184,56.32l-1.569,0.294c-1.233,0.224-1.863,0.63-1.863,1.289
		c0,0.588,0.476,0.896,1.275,0.896c1.121,0,2.157-0.588,2.157-1.513V56.32 M307.752,59.78c-2.115,0-3.39-1.373-3.39-3.642
		c0-2.269,1.191-3.642,3.306-3.642c2.031,0,3.138,1.471,3.138,3.278c0,0.322-0.028,0.588-0.056,0.784h-5.281
		c0.14,1.415,0.995,2.241,2.283,2.241c1.023,0,1.723-0.364,1.975-1.037l0.939,0.49C310.133,59.206,309.265,59.78,307.752,59.78
		 M307.668,53.477c-1.247,0-2.017,0.77-2.185,2.087h4.244C309.573,54.275,308.858,53.477,307.668,53.477 M301.41,59.78
		c-1.037,0-1.933-0.518-1.947-1.877v-4.3h-1.401v-0.967h1.401v-1.681l1.121-0.308v1.989h2.591v0.967h-2.591v4.104
		c0,0.686,0.434,1.023,1.051,1.023c0.504,0,0.868-0.196,1.191-0.518l0.392,0.939C302.782,59.542,302.18,59.78,301.41,59.78
		 M284.204,59.78c-1.387,0-2.577-0.714-2.577-2.563v-4.58h1.121v4.286c0,1.443,0.644,1.877,1.653,1.877
		c1.191,0,2.241-0.7,2.241-2.353v-3.81h1.121v7.004h-0.981l-0.07-1.065C286.221,59.416,285.324,59.78,284.204,59.78 M276.14,59.78
		c-2.115,0-3.39-1.373-3.39-3.642c0-2.269,1.275-3.642,3.39-3.642c2.115,0,3.39,1.373,3.39,3.642
		C279.53,58.407,278.255,59.78,276.14,59.78 M276.14,53.463c-1.415,0-2.269,1.008-2.269,2.675s0.854,2.675,2.269,2.675
		s2.269-1.009,2.269-2.675S277.555,53.463,276.14,53.463 M268.244,59.78c-2.115,0-3.39-1.373-3.39-3.642
		c0-2.269,1.275-3.642,3.39-3.642c1.443,0,2.381,0.714,2.9,1.863l-1.065,0.504c-0.294-0.896-0.897-1.387-1.863-1.387
		c-1.401,0-2.241,0.995-2.241,2.661s0.84,2.661,2.241,2.661c1.093,0,1.751-0.518,1.961-1.443l1.037,0.364
		C270.738,59.01,269.729,59.78,268.244,59.78 M258.306,59.78c-0.686,0-1.135-0.252-1.261-1.037
		c-0.448,0.658-1.359,1.037-2.255,1.037c-1.317,0-2.381-0.616-2.381-1.877c0-1.051,0.925-1.877,2.731-2.185l1.863-0.308v-0.392
		c0-0.925-0.588-1.541-1.639-1.541c-0.925,0-1.625,0.448-2.003,1.331l-0.826-0.602c0.364-1.037,1.471-1.709,2.83-1.709
		c1.597,0,2.759,0.756,2.759,2.381v3.446c0,0.336,0.14,0.504,0.532,0.504c0.182,0,0.392-0.028,0.56-0.07l-0.07,0.883
		C258.95,59.71,258.656,59.78,258.306,59.78 M257.003,56.32l-1.569,0.294c-1.233,0.224-1.863,0.63-1.863,1.289
		c0,0.588,0.476,0.896,1.275,0.896c1.121,0,2.157-0.588,2.157-1.513V56.32 M242.583,59.78c-2.115,0-3.39-1.373-3.39-3.642
		c0-2.269,1.275-3.642,3.39-3.642c2.115,0,3.39,1.373,3.39,3.642C245.973,58.407,244.698,59.78,242.583,59.78 M242.583,53.463
		c-1.415,0-2.269,1.008-2.269,2.675s0.854,2.675,2.269,2.675s2.269-1.009,2.269-2.675S243.998,53.463,242.583,53.463 M236.241,59.78
		c-1.037,0-1.933-0.518-1.947-1.877v-4.3h-1.401v-0.967h1.401v-1.681l1.121-0.308v1.989h2.591v0.967h-2.591v4.104
		c0,0.686,0.434,1.023,1.051,1.023c0.504,0,0.868-0.196,1.191-0.518l0.392,0.939C237.613,59.542,237.011,59.78,236.241,59.78
		 M224.271,59.78c-1.289,0-2.479-0.504-3.012-1.583l0.91-0.63c0.336,0.854,1.205,1.233,2.213,1.233c1.149,0,1.695-0.462,1.695-1.037
		c0-0.518-0.434-0.826-1.835-1.079c-1.989-0.364-2.717-0.91-2.717-2.087c0-1.135,1.051-2.101,2.759-2.101
		c1.499,0,2.381,0.532,2.774,1.681l-0.952,0.56c-0.308-0.924-0.939-1.261-1.821-1.261c-0.939,0-1.639,0.504-1.639,1.023
		c0,0.602,0.462,0.91,1.891,1.149c1.961,0.322,2.661,0.91,2.661,2.059C227.198,58.926,226.064,59.78,224.271,59.78 M216.711,59.78
		c-2.115,0-3.39-1.373-3.39-3.642c0-2.269,1.191-3.642,3.306-3.642c2.031,0,3.138,1.471,3.138,3.278
		c0,0.322-0.028,0.588-0.056,0.784h-5.281c0.14,1.415,0.995,2.241,2.283,2.241c1.023,0,1.723-0.364,1.975-1.037l0.939,0.49
		C219.092,59.206,218.224,59.78,216.711,59.78 M216.627,53.477c-1.247,0-2.017,0.77-2.185,2.087h4.244
		C218.532,54.275,217.818,53.477,216.627,53.477 M208.199,59.78c-2.115,0-3.39-1.373-3.39-3.642c0-2.269,1.275-3.642,3.39-3.642
		c2.115,0,3.39,1.373,3.39,3.642C211.589,58.407,210.314,59.78,208.199,59.78 M208.199,53.463c-1.415,0-2.269,1.008-2.269,2.675
		s0.854,2.675,2.269,2.675c1.415,0,2.269-1.009,2.269-2.675S209.614,53.463,208.199,53.463 M187.606,59.78
		c-2.115,0-3.39-1.373-3.39-3.642c0-2.269,1.191-3.642,3.306-3.642c2.031,0,3.138,1.471,3.138,3.278
		c0,0.322-0.028,0.588-0.056,0.784h-5.281c0.14,1.415,0.995,2.241,2.283,2.241c1.023,0,1.723-0.364,1.975-1.037l0.939,0.49
		C189.987,59.206,189.118,59.78,187.606,59.78 M187.522,53.477c-1.247,0-2.017,0.77-2.185,2.087h4.244
		C189.427,54.275,188.712,53.477,187.522,53.477 M170.274,59.78c-1.961,0-3.25-0.854-3.894-2.003l0.967-0.784
		c0.49,1.065,1.443,1.737,2.956,1.737c1.429,0,2.381-0.532,2.381-1.527c0-0.798-0.602-1.261-2.549-1.597
		c-2.493-0.434-3.39-1.191-3.39-2.605c0-1.485,1.303-2.745,3.446-2.745c1.695,0,2.858,0.672,3.572,1.961L172.795,53
		c-0.56-1.219-1.233-1.695-2.591-1.695c-1.471,0-2.283,0.686-2.283,1.569c0,0.868,0.616,1.303,2.563,1.639
		c2.479,0.42,3.362,1.205,3.362,2.633C173.846,58.729,172.431,59.78,170.274,59.78 M159.073,59.78c-0.546,0-0.911-0.364-0.911-0.91
		c0-0.546,0.364-0.91,0.911-0.91c0.546,0,0.91,0.364,0.91,0.91C159.983,59.416,159.619,59.78,159.073,59.78 M148.742,59.78
		c-2.115,0-3.39-1.373-3.39-3.642c0-2.269,1.191-3.642,3.306-3.642c2.031,0,3.138,1.471,3.138,3.278
		c0,0.322-0.028,0.588-0.056,0.784h-5.281c0.14,1.415,0.995,2.241,2.283,2.241c1.023,0,1.723-0.364,1.975-1.037l0.938,0.49
		C151.124,59.206,150.255,59.78,148.742,59.78 M148.658,53.477c-1.247,0-2.017,0.77-2.185,2.087h4.244
		C150.563,54.275,149.849,53.477,148.658,53.477 M127.169,59.78c-2.115,0-3.39-1.373-3.39-3.642c0-2.269,1.191-3.642,3.306-3.642
		c2.031,0,3.138,1.471,3.138,3.278c0,0.322-0.028,0.588-0.056,0.784h-5.281c0.14,1.415,0.995,2.241,2.283,2.241
		c1.023,0,1.723-0.364,1.975-1.037l0.939,0.49C129.55,59.206,128.681,59.78,127.169,59.78 M127.085,53.477
		c-1.247,0-2.017,0.77-2.185,2.087h4.244C128.99,54.275,128.275,53.477,127.085,53.477 M113.169,59.78
		c-2.115,0-3.39-1.373-3.39-3.642c0-2.269,1.275-3.642,3.39-3.642c2.115,0,3.39,1.373,3.39,3.642
		C116.559,58.407,115.284,59.78,113.169,59.78 M113.169,53.463c-1.415,0-2.269,1.008-2.269,2.675s0.854,2.675,2.269,2.675
		c1.415,0,2.269-1.009,2.269-2.675S114.584,53.463,113.169,53.463 M99.799,59.78c-2.115,0-3.39-1.373-3.39-3.642
		c0-2.269,1.191-3.642,3.306-3.642c2.031,0,3.138,1.471,3.138,3.278c0,0.322-0.028,0.588-0.056,0.784h-5.281
		c0.14,1.415,0.995,2.241,2.283,2.241c1.023,0,1.723-0.364,1.975-1.037l0.939,0.49C102.18,59.206,101.312,59.78,99.799,59.78
		 M99.715,53.477c-1.247,0-2.017,0.77-2.185,2.087h4.244C101.62,54.275,100.905,53.477,99.715,53.477 M91.469,59.78
		c-1.107,0-1.989-0.56-2.395-1.359l-0.07,1.219h-0.981V49.414h1.121v4.314c0.434-0.728,1.275-1.233,2.325-1.233
		c1.947,0,3.194,1.359,3.194,3.642S93.416,59.78,91.469,59.78 M91.343,53.477c-1.331,0-2.199,0.995-2.199,2.577v0.168
		c0,1.583,0.868,2.577,2.199,2.577c1.373,0,2.199-1.037,2.199-2.661C93.542,54.513,92.716,53.477,91.343,53.477 M78.071,59.78
		c-2.115,0-3.39-1.373-3.39-3.642c0-2.269,1.191-3.642,3.306-3.642c2.031,0,3.138,1.471,3.138,3.278
		c0,0.322-0.028,0.588-0.056,0.784h-5.281c0.14,1.415,0.995,2.241,2.283,2.241c1.023,0,1.723-0.364,1.975-1.037l0.939,0.49
		C80.453,59.206,79.584,59.78,78.071,59.78 M77.987,53.477c-1.247,0-2.017,0.77-2.185,2.087h4.244
		C79.892,54.275,79.178,53.477,77.987,53.477 M61.272,59.78c-2.115,0-3.39-1.373-3.39-3.642c0-2.269,1.191-3.642,3.306-3.642
		c2.031,0,3.138,1.471,3.138,3.278c0,0.322-0.028,0.588-0.056,0.784h-5.281c0.14,1.415,0.995,2.241,2.283,2.241
		c1.023,0,1.723-0.364,1.975-1.037l0.939,0.49C63.653,59.206,62.784,59.78,61.272,59.78 M61.187,53.477
		c-1.247,0-2.017,0.77-2.185,2.087h4.244C63.093,54.275,62.378,53.477,61.187,53.477 M53.376,59.78c-2.115,0-3.39-1.373-3.39-3.642
		c0-2.269,1.275-3.642,3.39-3.642c1.443,0,2.381,0.714,2.9,1.863l-1.065,0.504c-0.294-0.896-0.896-1.387-1.863-1.387
		c-1.401,0-2.241,0.995-2.241,2.661s0.84,2.661,2.241,2.661c1.093,0,1.751-0.518,1.961-1.443l1.037,0.364
		C55.869,59.01,54.86,59.78,53.376,59.78 M45.423,59.78c-1.289,0-2.479-0.504-3.012-1.583l0.91-0.63
		c0.336,0.854,1.205,1.233,2.213,1.233c1.149,0,1.695-0.462,1.695-1.037c0-0.518-0.434-0.826-1.835-1.079
		c-1.989-0.364-2.717-0.91-2.717-2.087c0-1.135,1.051-2.101,2.759-2.101c1.499,0,2.381,0.532,2.774,1.681l-0.952,0.56
		c-0.308-0.924-0.939-1.261-1.821-1.261c-0.939,0-1.639,0.504-1.639,1.023c0,0.602,0.462,0.91,1.891,1.149
		c1.961,0.322,2.661,0.91,2.661,2.059C48.351,58.926,47.216,59.78,45.423,59.78 M25.264,59.78c-1.709,0-2.675-0.728-3.208-2.087
		l1.107-0.588c0.294,0.966,0.714,1.625,2.087,1.625c1.933,0,2.549-1.611,2.549-4.09v-0.126h-0.056
		c-0.294,1.345-1.541,1.737-2.577,1.737c-1.863,0-3.096-1.163-3.096-2.998c0-1.835,1.233-2.998,3.18-2.998
		c2.325,0,3.572,1.961,3.572,4.763C28.822,58.113,27.589,59.78,25.264,59.78 M25.264,51.333c-1.275,0-2.017,0.714-2.017,1.933
		c0,1.177,0.742,1.905,2.017,1.905c1.205,0,2.017-0.784,2.017-1.905C27.281,52.104,26.469,51.333,25.264,51.333 M16.542,59.78
		c-1.709,0-2.675-0.728-3.208-2.087l1.107-0.588c0.294,0.966,0.714,1.625,2.087,1.625c1.933,0,2.549-1.611,2.549-4.09v-0.126h-0.056
		c-0.294,1.345-1.541,1.737-2.577,1.737c-1.863,0-3.096-1.163-3.096-2.998c0-1.835,1.233-2.998,3.18-2.998
		c2.325,0,3.572,1.961,3.572,4.763C20.1,58.113,18.867,59.78,16.542,59.78 M16.542,51.333c-1.275,0-2.017,0.714-2.017,1.933
		c0,1.177,0.742,1.905,2.017,1.905c1.205,0,2.017-0.784,2.017-1.905C18.559,52.104,17.747,51.333,16.542,51.333 M314.051,59.64
		h-1.121v-7.004h0.91l0.154,1.149c0.392-0.854,1.149-1.289,2.241-1.289c0.238,0,0.56,0.028,0.77,0.14l-0.224,1.093
		c-0.21-0.112-0.518-0.182-0.883-0.182c-0.84,0-1.849,0.742-1.849,2.311V59.64 M296.498,59.64h-1.121v-4.09
		c0-1.555-0.756-2.073-1.723-2.073c-1.023,0-2.171,0.644-2.171,2.437v3.726h-1.121v-7.004h0.981l0.07,1.093
		c0.49-0.883,1.387-1.233,2.353-1.233c1.499,0,2.731,0.854,2.731,2.661V59.64 M182.12,59.64h-1.121v-4.09
		c0-1.555-0.756-2.073-1.723-2.073c-1.023,0-2.171,0.658-2.171,2.451v3.712h-1.121V49.414h1.121v4.272
		c0.49-0.84,1.331-1.191,2.283-1.191c1.499,0,2.731,0.854,2.731,2.661V59.64 M155.041,59.64h-1.121v-7.004h0.91l0.154,1.149
		c0.392-0.854,1.149-1.289,2.241-1.289c0.238,0,0.56,0.028,0.77,0.14l-0.224,1.093c-0.21-0.112-0.518-0.182-0.883-0.182
		c-0.84,0-1.849,0.742-1.849,2.311V59.64 M143.256,59.64h-1.121v-4.09c0-1.555-0.756-2.073-1.723-2.073
		c-1.023,0-2.171,0.658-2.171,2.451v3.712h-1.121V49.414h1.121v4.272c0.49-0.84,1.331-1.191,2.283-1.191
		c1.499,0,2.731,0.854,2.731,2.661V59.64 M119.846,59.64h-1.121v-7.004h0.91l0.154,1.149c0.392-0.854,1.149-1.289,2.241-1.289
		c0.238,0,0.56,0.028,0.77,0.14l-0.224,1.093c-0.21-0.112-0.518-0.182-0.883-0.182c-0.84,0-1.849,0.742-1.849,2.311V59.64
		 M106.574,59.64h-1.121v-6.037h-1.401v-0.967h1.401V51.46c0-1.247,0.756-2.115,2.297-2.115c0.49,0,0.939,0.112,1.191,0.322
		l-0.294,0.91c-0.224-0.14-0.476-0.21-0.798-0.21c-0.812,0-1.275,0.364-1.275,1.205v1.065h2.339v0.967h-2.339V59.64 M72.585,59.64
		h-1.121v-4.09c0-1.555-0.756-2.073-1.723-2.073c-1.023,0-2.171,0.644-2.171,2.437v3.726H66.45v-7.004h0.981l0.07,1.093
		c0.49-0.883,1.387-1.233,2.353-1.233c1.499,0,2.731,0.854,2.731,2.661V59.64 M33.594,59.64h-1.149c0-2.984,1.079-5.855,3.236-8.194
		h-5.589v-1.051H36.9v1.051C34.56,53.897,33.594,56.516,33.594,59.64 M10.942,59.64H9.822v-6.78c0-0.308,0.014-0.686,0.028-1.079
		c-0.644,0.616-1.527,1.093-2.395,1.303L7.16,52.062c0.658-0.084,2.283-0.952,2.802-1.667h0.981V59.64"/>
	<path fill="#000000" d="M291.537,83.652c-0.574,0-1.079-0.196-1.401-0.462l0.238-1.065c0.266,0.238,0.658,0.434,1.149,0.434
		c0.602,0,1.023-0.336,1.023-1.317v-7.606h1.121v7.718C293.666,83.105,292.489,83.652,291.537,83.652 M209.974,83.652
		c-0.574,0-1.079-0.196-1.401-0.462l0.238-1.065c0.266,0.238,0.658,0.434,1.149,0.434c0.602,0,1.023-0.336,1.023-1.317v-7.606h1.121
		v7.718C212.103,83.105,210.927,83.652,209.974,83.652 M145.45,83.652c-0.7,0-1.149-0.168-1.541-0.588l0.392-0.953
		c0.322,0.448,0.742,0.56,1.135,0.56c0.49,0,0.924-0.21,1.275-1.135l0.364-0.91l-2.928-6.99h1.275l1.751,4.566l0.434,1.247
		l0.504-1.387l1.639-4.426h1.205l-3.292,8.18C147.117,83.189,146.487,83.652,145.45,83.652 M314.792,80.78
		c-1.037,0-1.933-0.518-1.947-1.877v-4.3h-1.401v-0.966h1.401v-1.681l1.121-0.308v1.989h2.591v0.966h-2.591v4.104
		c0,0.686,0.434,1.023,1.051,1.023c0.504,0,0.868-0.196,1.191-0.518l0.392,0.939C316.165,80.542,315.563,80.78,314.792,80.78
		 M307.316,80.78c-1.289,0-2.479-0.504-3.012-1.583l0.911-0.63c0.336,0.854,1.205,1.233,2.213,1.233
		c1.149,0,1.695-0.462,1.695-1.037c0-0.518-0.434-0.826-1.835-1.079c-1.989-0.364-2.717-0.91-2.717-2.087
		c0-1.135,1.051-2.101,2.76-2.101c1.499,0,2.381,0.532,2.774,1.681l-0.953,0.56c-0.308-0.925-0.939-1.261-1.821-1.261
		c-0.939,0-1.639,0.504-1.639,1.023c0,0.602,0.462,0.91,1.891,1.149c1.961,0.322,2.661,0.91,2.661,2.059
		C310.244,79.926,309.109,80.78,307.316,80.78 M298.777,80.78c-1.387,0-2.577-0.714-2.577-2.563v-4.58h1.121v4.286
		c0,1.443,0.644,1.877,1.653,1.877c1.191,0,2.241-0.7,2.241-2.353v-3.81h1.121v7.004h-0.981l-0.07-1.065
		C300.794,80.416,299.897,80.78,298.777,80.78 M273.927,80.78c-2.115,0-3.39-1.373-3.39-3.642c0-2.269,1.191-3.642,3.306-3.642
		c2.031,0,3.138,1.471,3.138,3.278c0,0.322-0.028,0.588-0.056,0.784h-5.281c0.14,1.415,0.995,2.241,2.283,2.241
		c1.023,0,1.723-0.364,1.975-1.037l0.939,0.49C276.309,80.206,275.44,80.78,273.927,80.78 M273.843,74.477
		c-1.247,0-2.017,0.77-2.185,2.087h4.244C275.748,75.275,275.034,74.477,273.843,74.477 M245.2,80.78c-0.546,0-0.91-0.364-0.91-0.91
		s0.364-0.91,0.91-0.91c0.546,0,0.91,0.364,0.91,0.91S245.746,80.78,245.2,80.78 M237.948,80.78c-2.115,0-3.39-1.373-3.39-3.642
		c0-2.269,1.191-3.642,3.306-3.642c2.031,0,3.138,1.471,3.138,3.278c0,0.322-0.028,0.588-0.056,0.784h-5.281
		c0.14,1.415,0.995,2.241,2.283,2.241c1.023,0,1.723-0.364,1.975-1.037l0.939,0.49C240.329,80.206,239.461,80.78,237.948,80.78
		 M237.864,74.477c-1.247,0-2.017,0.77-2.185,2.087h4.244C239.769,75.275,239.054,74.477,237.864,74.477 M230.052,80.78
		c-2.115,0-3.39-1.373-3.39-3.642c0-2.269,1.275-3.642,3.39-3.642c1.443,0,2.381,0.714,2.9,1.863l-1.065,0.504
		c-0.294-0.896-0.896-1.387-1.863-1.387c-1.401,0-2.241,0.995-2.241,2.661c0,1.667,0.84,2.661,2.241,2.661
		c1.093,0,1.751-0.518,1.961-1.443l1.037,0.364C232.545,80.01,231.537,80.78,230.052,80.78 M217.214,80.78
		c-1.387,0-2.577-0.714-2.577-2.563v-4.58h1.121v4.286c0,1.443,0.644,1.877,1.653,1.877c1.191,0,2.241-0.7,2.241-2.353v-3.81h1.121
		v7.004h-0.981l-0.07-1.065C219.231,80.416,218.335,80.78,217.214,80.78 M201.031,80.78c-2.115,0-3.39-1.373-3.39-3.642
		c0-2.269,1.191-3.642,3.306-3.642c2.031,0,3.138,1.471,3.138,3.278c0,0.322-0.028,0.588-0.056,0.784h-5.281
		c0.14,1.415,0.995,2.241,2.283,2.241c1.023,0,1.723-0.364,1.975-1.037l0.939,0.49C203.412,80.206,202.543,80.78,201.031,80.78
		 M200.947,74.477c-1.247,0-2.017,0.77-2.185,2.087h4.244C202.852,75.275,202.137,74.477,200.947,74.477 M188.502,80.78
		c-0.686,0-1.135-0.252-1.261-1.037c-0.448,0.658-1.359,1.037-2.255,1.037c-1.317,0-2.381-0.616-2.381-1.877
		c0-1.051,0.924-1.877,2.731-2.185l1.863-0.308v-0.392c0-0.924-0.588-1.541-1.639-1.541c-0.925,0-1.625,0.448-2.003,1.331
		l-0.826-0.602c0.364-1.037,1.471-1.709,2.83-1.709c1.597,0,2.759,0.756,2.759,2.381v3.446c0,0.336,0.14,0.504,0.532,0.504
		c0.182,0,0.392-0.028,0.56-0.07l-0.07,0.883C189.146,80.71,188.852,80.78,188.502,80.78 M187.199,77.32l-1.569,0.294
		c-1.233,0.224-1.863,0.63-1.863,1.289c0,0.588,0.476,0.896,1.275,0.896c1.121,0,2.157-0.588,2.157-1.513V77.32 M163.511,80.78
		c-1.387,0-2.577-0.714-2.577-2.563v-4.58h1.121v4.286c0,1.443,0.644,1.877,1.653,1.877c1.191,0,2.241-0.7,2.241-2.353v-3.81h1.121
		v7.004h-0.981l-0.07-1.065C165.528,80.416,164.632,80.78,163.511,80.78 M155.447,80.78c-2.115,0-3.39-1.373-3.39-3.642
		c0-2.269,1.275-3.642,3.39-3.642c2.115,0,3.39,1.373,3.39,3.642C158.837,79.407,157.563,80.78,155.447,80.78 M155.447,74.463
		c-1.415,0-2.269,1.008-2.269,2.675c0,1.667,0.854,2.675,2.269,2.675c1.415,0,2.269-1.009,2.269-2.675
		C157.717,75.471,156.862,74.463,155.447,74.463 M135.022,80.78c-2.115,0-3.39-1.373-3.39-3.642c0-2.269,1.275-3.642,3.39-3.642
		c2.115,0,3.39,1.373,3.39,3.642C138.412,79.407,137.137,80.78,135.022,80.78 M135.022,74.463c-1.415,0-2.269,1.008-2.269,2.675
		c0,1.667,0.854,2.675,2.269,2.675s2.269-1.009,2.269-2.675C137.291,75.471,136.437,74.463,135.022,74.463 M107.833,80.78
		c-0.546,0-0.911-0.364-0.911-0.91s0.364-0.91,0.911-0.91c0.546,0,0.91,0.364,0.91,0.91S108.379,80.78,107.833,80.78 M103.886,80.78
		c-1.037,0-1.933-0.518-1.947-1.877v-4.3h-1.401v-0.966h1.401v-1.681l1.121-0.308v1.989h2.591v0.966h-2.591v4.104
		c0,0.686,0.434,1.023,1.051,1.023c0.504,0,0.868-0.196,1.191-0.518l0.392,0.939C105.259,80.542,104.657,80.78,103.886,80.78
		 M89.957,80.78c-1.387,0-2.577-0.714-2.577-2.563v-4.58H88.5v4.286c0,1.443,0.644,1.877,1.653,1.877c1.191,0,2.241-0.7,2.241-2.353
		v-3.81h1.121v7.004h-0.981l-0.07-1.065C91.974,80.416,91.077,80.78,89.957,80.78 M81.893,80.78c-2.115,0-3.39-1.373-3.39-3.642
		c0-2.269,1.275-3.642,3.39-3.642c2.115,0,3.39,1.373,3.39,3.642C85.283,79.407,84.008,80.78,81.893,80.78 M81.893,74.463
		c-1.415,0-2.269,1.008-2.269,2.675c0,1.667,0.854,2.675,2.269,2.675c1.415,0,2.269-1.009,2.269-2.675
		C84.162,75.471,83.308,74.463,81.893,74.463 M73.997,80.78c-2.115,0-3.39-1.373-3.39-3.642c0-2.269,1.275-3.642,3.39-3.642
		c1.443,0,2.381,0.714,2.9,1.863l-1.065,0.504c-0.294-0.896-0.896-1.387-1.863-1.387c-1.401,0-2.241,0.995-2.241,2.661
		c0,1.667,0.84,2.661,2.241,2.661c1.093,0,1.751-0.518,1.961-1.443l1.037,0.364C76.49,80.01,75.482,80.78,73.997,80.78
		 M60.221,80.78c-1.947,0-3.194-1.359-3.194-3.642c0-2.283,1.247-3.642,3.194-3.642c1.051,0,1.891,0.504,2.325,1.233v-4.314h1.121
		V80.64h-0.981l-0.07-1.219C62.21,80.22,61.328,80.78,60.221,80.78 M60.347,74.477c-1.373,0-2.199,1.037-2.199,2.661
		c0,1.625,0.826,2.661,2.199,2.661c1.331,0,2.199-0.995,2.199-2.577v-0.168C62.547,75.471,61.678,74.477,60.347,74.477
		 M51.892,80.78c-2.115,0-3.39-1.373-3.39-3.642c0-2.269,1.275-3.642,3.39-3.642c2.115,0,3.39,1.373,3.39,3.642
		C55.281,79.407,54.007,80.78,51.892,80.78 M51.892,74.463c-1.415,0-2.269,1.008-2.269,2.675c0,1.667,0.854,2.675,2.269,2.675
		c1.415,0,2.269-1.009,2.269-2.675C54.161,75.471,53.306,74.463,51.892,74.463 M43.38,80.78c-2.115,0-3.39-1.373-3.39-3.642
		c0-2.269,1.275-3.642,3.39-3.642c2.115,0,3.39,1.373,3.39,3.642C46.77,79.407,45.495,80.78,43.38,80.78 M43.38,74.463
		c-1.415,0-2.269,1.008-2.269,2.675c0,1.667,0.854,2.675,2.269,2.675s2.269-1.009,2.269-2.675
		C45.649,75.471,44.795,74.463,43.38,74.463 M25.432,80.78c-2.115,0-3.39-1.373-3.39-3.642c0-2.269,1.191-3.642,3.306-3.642
		c2.031,0,3.138,1.471,3.138,3.278c0,0.322-0.028,0.588-0.056,0.784h-5.281c0.14,1.415,0.995,2.241,2.283,2.241
		c1.023,0,1.723-0.364,1.975-1.037l0.939,0.49C27.813,80.206,26.945,80.78,25.432,80.78 M25.348,74.477
		c-1.247,0-2.017,0.77-2.185,2.087h4.244C27.253,75.275,26.539,74.477,25.348,74.477 M10.424,80.78
		c-1.037,0-1.933-0.518-1.947-1.877v-4.3H7.076v-0.966h1.401v-1.681l1.121-0.308v1.989h2.591v0.966H9.598v4.104
		c0,0.686,0.434,1.023,1.051,1.023c0.504,0,0.868-0.196,1.191-0.518l0.392,0.939C11.797,80.542,11.194,80.78,10.424,80.78
		 M285.241,80.64h-1.121v-4.09c0-1.555-0.756-2.073-1.723-2.073c-1.023,0-2.171,0.644-2.171,2.437v3.726h-1.121v-7.004h0.981
		l0.07,1.093c0.49-0.883,1.387-1.233,2.353-1.233c1.499,0,2.732,0.854,2.732,2.661V80.64 M266.591,80.64h-1.121l-2.914-7.004h1.275
		l2.213,5.869l2.283-5.869h1.177L266.591,80.64 M262.114,80.64h-6.696v-9.245h6.485v1.051h-5.365v2.984h4.174v1.051h-4.174v3.11
		h5.575V80.64 M224.493,80.64h-1.121v-7.004h1.121V80.64 M193.695,80.64h-1.121l-2.914-7.004h1.275l2.213,5.869l2.283-5.869h1.177
		L193.695,80.64 M180.579,80.64h-1.121v-4.09c0-1.555-0.756-2.073-1.723-2.073c-1.023,0-2.171,0.658-2.171,2.451v3.712h-1.121
		V70.414h1.121v4.272c0.49-0.84,1.331-1.191,2.283-1.191c1.499,0,2.732,0.854,2.732,2.661V80.64 M125.166,80.64h-2.984v-9.245h2.984
		c2.9,0,4.651,1.653,4.651,4.623C129.817,78.987,128.066,80.64,125.166,80.64 M123.303,72.446v7.144h1.975
		c2.115,0,3.362-1.331,3.362-3.572c0-2.241-1.247-3.572-3.362-3.572H123.303 M97.236,80.64h-1.121v-7.004h0.91l0.154,1.149
		c0.392-0.854,1.149-1.289,2.241-1.289c0.238,0,0.56,0.028,0.77,0.14l-0.224,1.093c-0.21-0.112-0.518-0.182-0.883-0.182
		c-0.84,0-1.849,0.742-1.849,2.311V80.64 M36.785,80.64h-1.121v-6.037h-1.401v-0.966h1.401v-1.177c0-1.247,0.756-2.115,2.297-2.115
		c0.49,0,0.939,0.112,1.191,0.322l-0.294,0.91c-0.224-0.14-0.476-0.21-0.798-0.21c-0.812,0-1.275,0.364-1.275,1.205v1.065h2.339
		v0.966h-2.339V80.64 M19.946,80.64h-1.121v-4.09c0-1.555-0.756-2.073-1.723-2.073c-1.023,0-2.171,0.658-2.171,2.451v3.712h-1.121
		V70.414h1.121v4.272c0.49-0.84,1.331-1.191,2.283-1.191c1.499,0,2.731,0.854,2.731,2.661V80.64 M245.802,77.726h-1.163v-2.101
		c1.863-0.28,2.619-0.784,2.619-1.849c0-0.883-0.644-1.471-1.975-1.471c-1.233,0-2.059,0.728-2.199,1.905l-0.995-0.574
		c0.308-1.429,1.513-2.381,3.278-2.381c1.793,0,3.068,0.91,3.068,2.381c0,1.639-1.177,2.437-2.633,2.591V77.726 M118.894,74.561
		c-0.658,0-1.051-0.56-1.051-1.359c0-0.939,0.462-1.863,1.527-2.367l0.588,0.546c-0.756,0.252-1.247,0.84-1.373,1.429l0.056,0.028
		c0.07-0.056,0.168-0.098,0.392-0.098c0.336,0,0.77,0.28,0.77,0.882C119.805,74.126,119.398,74.561,118.894,74.561 M116.261,74.561
		c-0.658,0-1.051-0.56-1.051-1.359c0-0.939,0.462-1.863,1.527-2.367l0.588,0.546c-0.756,0.252-1.247,0.84-1.373,1.429l0.056,0.028
		c0.07-0.056,0.168-0.098,0.392-0.098c0.336,0,0.77,0.28,0.77,0.882C117.171,74.126,116.765,74.561,116.261,74.561 M293.106,72.291
		c-0.462,0-0.84-0.378-0.84-0.84c0-0.462,0.378-0.84,0.84-0.84c0.462,0,0.84,0.378,0.84,0.84
		C293.946,71.913,293.568,72.291,293.106,72.291 M223.933,72.291c-0.504,0-0.84-0.336-0.84-0.84c0-0.504,0.336-0.84,0.84-0.84
		c0.504,0,0.84,0.336,0.84,0.84C224.773,71.955,224.437,72.291,223.933,72.291 M211.543,72.291c-0.462,0-0.84-0.378-0.84-0.84
		c0-0.462,0.378-0.84,0.84-0.84s0.84,0.378,0.84,0.84C212.384,71.913,212.005,72.291,211.543,72.291"/>
	<path fill="#000000" d="M188.628,101.78c-0.546,0-0.911-0.364-0.911-0.911c0-0.546,0.364-0.91,0.911-0.91
		c0.546,0,0.91,0.364,0.91,0.91C189.538,101.416,189.174,101.78,188.628,101.78 M180.228,101.78c-1.947,0-3.194-1.359-3.194-3.642
		c0-2.283,1.247-3.642,3.194-3.642c1.051,0,1.891,0.504,2.325,1.233v-4.314h1.121v10.225h-0.98l-0.07-1.219
		C182.217,101.22,181.334,101.78,180.228,101.78 M180.354,95.477c-1.373,0-2.199,1.037-2.199,2.662c0,1.625,0.826,2.661,2.199,2.661
		c1.331,0,2.199-0.995,2.199-2.577v-0.168C182.553,96.471,181.685,95.477,180.354,95.477 M174.923,101.78
		c-0.686,0-1.135-0.252-1.261-1.037c-0.448,0.658-1.359,1.037-2.255,1.037c-1.317,0-2.381-0.616-2.381-1.877
		c0-1.051,0.924-1.877,2.731-2.185l1.863-0.308v-0.392c0-0.924-0.588-1.541-1.639-1.541c-0.925,0-1.625,0.448-2.003,1.331
		l-0.826-0.602c0.364-1.037,1.471-1.709,2.83-1.709c1.597,0,2.759,0.756,2.759,2.381v3.446c0,0.336,0.14,0.504,0.532,0.504
		c0.182,0,0.392-0.028,0.56-0.07l-0.07,0.882C175.568,101.71,175.274,101.78,174.923,101.78 M173.621,98.32l-1.569,0.294
		c-1.233,0.224-1.863,0.63-1.863,1.289c0,0.588,0.476,0.896,1.275,0.896c1.121,0,2.157-0.588,2.157-1.513V98.32 M166.871,101.78
		c-1.135,0-1.681-0.602-1.681-1.877v-8.489h1.121v8.348c0,0.714,0.182,0.939,0.756,0.939c0.378,0,0.616-0.042,1.023-0.196
		l-0.182,1.079C167.614,101.71,167.236,101.78,166.871,101.78 M162.715,101.78c-0.686,0-1.135-0.252-1.261-1.037
		c-0.448,0.658-1.359,1.037-2.255,1.037c-1.317,0-2.381-0.616-2.381-1.877c0-1.051,0.925-1.877,2.731-2.185l1.863-0.308v-0.392
		c0-0.924-0.588-1.541-1.639-1.541c-0.925,0-1.625,0.448-2.003,1.331l-0.826-0.602c0.364-1.037,1.471-1.709,2.83-1.709
		c1.597,0,2.759,0.756,2.759,2.381v3.446c0,0.336,0.14,0.504,0.532,0.504c0.182,0,0.392-0.028,0.56-0.07l-0.07,0.882
		C163.36,101.71,163.066,101.78,162.715,101.78 M161.413,98.32l-1.569,0.294c-1.233,0.224-1.863,0.63-1.863,1.289
		c0,0.588,0.476,0.896,1.275,0.896c1.121,0,2.157-0.588,2.157-1.513V98.32 M152.326,101.78c-1.289,0-2.479-0.504-3.012-1.583
		l0.91-0.63c0.336,0.854,1.205,1.233,2.213,1.233c1.149,0,1.695-0.462,1.695-1.037c0-0.518-0.434-0.826-1.835-1.079
		c-1.989-0.364-2.718-0.91-2.718-2.087c0-1.135,1.051-2.101,2.76-2.101c1.499,0,2.381,0.532,2.773,1.681l-0.952,0.56
		c-0.308-0.925-0.939-1.261-1.821-1.261c-0.939,0-1.639,0.504-1.639,1.023c0,0.602,0.462,0.911,1.891,1.149
		c1.961,0.322,2.661,0.91,2.661,2.059C155.254,100.926,154.119,101.78,152.326,101.78 M127.042,101.78
		c-0.546,0-0.911-0.364-0.911-0.911c0-0.546,0.364-0.91,0.911-0.91c0.546,0,0.91,0.364,0.91,0.91
		C127.953,101.416,127.589,101.78,127.042,101.78 M119.791,101.78c-2.115,0-3.39-1.373-3.39-3.642c0-2.269,1.191-3.642,3.306-3.642
		c2.031,0,3.138,1.471,3.138,3.278c0,0.322-0.028,0.588-0.056,0.784h-5.281c0.14,1.415,0.995,2.241,2.283,2.241
		c1.022,0,1.723-0.364,1.975-1.037l0.939,0.49C122.172,101.206,121.303,101.78,119.791,101.78 M119.707,95.477
		c-1.247,0-2.017,0.77-2.185,2.087h4.244C121.612,96.275,120.897,95.477,119.707,95.477 M101.059,101.78
		c-1.037,0-1.933-0.518-1.947-1.877v-4.3h-1.401v-0.966h1.401v-1.681l1.121-0.308v1.989h2.591v0.966h-2.591v4.104
		c0,0.686,0.434,1.023,1.051,1.023c0.504,0,0.869-0.196,1.191-0.518l0.392,0.939C102.431,101.542,101.829,101.78,101.059,101.78
		 M93.149,101.78c-2.115,0-3.39-1.373-3.39-3.642c0-2.269,1.275-3.642,3.39-3.642c2.115,0,3.39,1.373,3.39,3.642
		C96.539,100.407,95.264,101.78,93.149,101.78 M93.149,95.463c-1.415,0-2.269,1.009-2.269,2.675c0,1.667,0.854,2.675,2.269,2.675
		c1.415,0,2.269-1.009,2.269-2.675C95.418,96.471,94.564,95.463,93.149,95.463 M84.637,101.78c-2.115,0-3.39-1.373-3.39-3.642
		c0-2.269,1.275-3.642,3.39-3.642c2.115,0,3.39,1.373,3.39,3.642C88.027,100.407,86.752,101.78,84.637,101.78 M84.637,95.463
		c-1.415,0-2.269,1.009-2.269,2.675c0,1.667,0.854,2.675,2.269,2.675c1.415,0,2.269-1.009,2.269-2.675
		C86.906,96.471,86.052,95.463,84.637,95.463 M63.343,101.78c-1.289,0-2.479-0.504-3.012-1.583l0.91-0.63
		c0.336,0.854,1.205,1.233,2.213,1.233c1.149,0,1.695-0.462,1.695-1.037c0-0.518-0.434-0.826-1.835-1.079
		c-1.989-0.364-2.718-0.91-2.718-2.087c0-1.135,1.051-2.101,2.76-2.101c1.499,0,2.381,0.532,2.774,1.681l-0.953,0.56
		c-0.308-0.925-0.939-1.261-1.821-1.261c-0.939,0-1.639,0.504-1.639,1.023c0,0.602,0.462,0.911,1.891,1.149
		c1.961,0.322,2.661,0.91,2.661,2.059C66.271,100.926,65.136,101.78,63.343,101.78 M53.979,101.78c-0.686,0-1.135-0.252-1.261-1.037
		c-0.448,0.658-1.359,1.037-2.255,1.037c-1.317,0-2.381-0.616-2.381-1.877c0-1.051,0.924-1.877,2.731-2.185l1.863-0.308v-0.392
		c0-0.924-0.588-1.541-1.639-1.541c-0.925,0-1.625,0.448-2.003,1.331l-0.826-0.602c0.364-1.037,1.471-1.709,2.83-1.709
		c1.597,0,2.759,0.756,2.759,2.381v3.446c0,0.336,0.14,0.504,0.532,0.504c0.182,0,0.392-0.028,0.56-0.07l-0.07,0.882
		C54.623,101.71,54.329,101.78,53.979,101.78 M52.676,98.32l-1.569,0.294c-1.233,0.224-1.863,0.63-1.863,1.289
		c0,0.588,0.476,0.896,1.275,0.896c1.121,0,2.157-0.588,2.157-1.513V98.32 M40.555,101.78c-0.546,0-0.911-0.364-0.911-0.911
		c0-0.546,0.364-0.91,0.911-0.91c0.546,0,0.91,0.364,0.91,0.91C41.466,101.416,41.101,101.78,40.555,101.78 M36.493,101.78
		c-0.546,0-0.91-0.364-0.91-0.911c0-0.546,0.364-0.91,0.91-0.91c0.546,0,0.91,0.364,0.91,0.91
		C37.403,101.416,37.039,101.78,36.493,101.78 M32.431,101.78c-0.546,0-0.91-0.364-0.91-0.911c0-0.546,0.364-0.91,0.91-0.91
		c0.546,0,0.91,0.364,0.91,0.91C33.341,101.416,32.977,101.78,32.431,101.78 M26.594,101.78c-2.115,0-3.39-1.373-3.39-3.642
		c0-2.269,1.191-3.642,3.306-3.642c2.031,0,3.138,1.471,3.138,3.278c0,0.322-0.028,0.588-0.056,0.784h-5.281
		c0.14,1.415,0.995,2.241,2.283,2.241c1.023,0,1.723-0.364,1.975-1.037l0.939,0.49C28.975,101.206,28.107,101.78,26.594,101.78
		 M26.51,95.477c-1.247,0-2.017,0.77-2.185,2.087h4.244C28.415,96.275,27.701,95.477,26.51,95.477 M9.57,101.78
		c-1.135,0-1.681-0.602-1.681-1.877v-8.489h1.121v8.348c0,0.714,0.182,0.939,0.756,0.939c0.378,0,0.616-0.042,1.023-0.196
		l-0.182,1.079C10.312,101.71,9.934,101.78,9.57,101.78 M144.069,101.64h-1.191l-0.98-2.563h-4.188l-0.981,2.563h-1.177l3.6-9.245
		h1.331L144.069,101.64 M139.783,93.459l-0.406,1.247l-1.261,3.32h3.376l-1.247-3.278l-0.434-1.289H139.783 M114.232,101.64h-1.121
		v-7.004h1.121V101.64 M110.581,101.64h-1.121v-4.09c0-1.555-0.756-2.073-1.723-2.073c-1.023,0-2.171,0.658-2.171,2.451v3.712
		h-1.121V91.414h1.121v4.272c0.49-0.84,1.331-1.191,2.283-1.191c1.499,0,2.731,0.854,2.731,2.662V101.64 M79.154,101.64h-1.121
		v-4.37c0-1.275-0.728-1.793-1.653-1.793c-1.093,0-2.073,0.827-2.073,2.325v3.838h-1.121v-4.37c0-1.275-0.728-1.793-1.653-1.793
		c-0.925,0-2.073,0.686-2.073,2.423v3.74H68.34v-7.004h0.981l0.07,1.093c0.504-0.854,1.373-1.233,2.241-1.233
		c0.981,0,1.947,0.434,2.409,1.373c0.434-0.953,1.555-1.373,2.437-1.373c1.345,0,2.675,0.812,2.675,2.662V101.64 M22.27,101.64
		h-1.359l-2.353-3.46l-1.485,1.485v1.975h-1.121V91.414h1.121v6.85l3.628-3.628h1.401l-2.731,2.731L22.27,101.64 M13.349,101.64
		h-1.121v-7.004h1.121V101.64 M189.23,98.726h-1.163v-2.101c1.863-0.28,2.619-0.784,2.619-1.849c0-0.883-0.644-1.471-1.975-1.471
		c-1.233,0-2.059,0.728-2.199,1.905l-0.995-0.574c0.308-1.429,1.513-2.381,3.278-2.381c1.793,0,3.068,0.91,3.068,2.381
		c0,1.639-1.177,2.437-2.633,2.591V98.726 M127.645,98.726h-1.163v-2.101c1.863-0.28,2.619-0.784,2.619-1.849
		c0-0.883-0.644-1.471-1.975-1.471c-1.233,0-2.059,0.728-2.199,1.905l-0.995-0.574c0.308-1.429,1.513-2.381,3.278-2.381
		c1.793,0,3.068,0.91,3.068,2.381c0,1.639-1.177,2.437-2.633,2.591V98.726 M196.552,95.561l-0.588-0.546
		c0.756-0.252,1.247-0.84,1.373-1.429l-0.056-0.028c-0.07,0.056-0.168,0.098-0.392,0.098c-0.336,0-0.77-0.28-0.77-0.883
		c0-0.504,0.406-0.939,0.91-0.939c0.658,0,1.051,0.56,1.051,1.359C198.078,94.132,197.616,95.056,196.552,95.561 M193.918,95.561
		l-0.588-0.546c0.756-0.252,1.247-0.84,1.373-1.429l-0.056-0.028c-0.07,0.056-0.168,0.098-0.392,0.098
		c-0.336,0-0.77-0.28-0.77-0.883c0-0.504,0.406-0.939,0.91-0.939c0.658,0,1.051,0.56,1.051,1.359
		C195.445,94.132,194.983,95.056,193.918,95.561 M113.671,93.291c-0.504,0-0.84-0.336-0.84-0.84s0.336-0.84,0.84-0.84
		c0.504,0,0.84,0.336,0.84,0.84S114.176,93.291,113.671,93.291 M12.789,93.291c-0.504,0-0.84-0.336-0.84-0.84s0.336-0.84,0.84-0.84
		c0.504,0,0.84,0.336,0.84,0.84S13.293,93.291,12.789,93.291"/>
	<path fill="#000000" d="M27.727,146.581h-1.121v-9.945h0.981l0.07,1.219c0.406-0.798,1.289-1.359,2.395-1.359
		c1.947,0,3.194,1.359,3.194,3.642s-1.247,3.642-3.194,3.642c-1.051,0-1.891-0.504-2.325-1.233V146.581 M29.926,137.477
		c-1.331,0-2.199,0.995-2.199,2.577v0.168c0,1.583,0.868,2.577,2.199,2.577c1.373,0,2.199-1.037,2.199-2.661
		C32.126,138.513,31.299,137.477,29.926,137.477 M279.639,143.78c-0.546,0-0.91-0.364-0.91-0.91c0-0.546,0.364-0.911,0.91-0.911
		c0.546,0,0.911,0.364,0.911,0.911C280.55,143.416,280.185,143.78,279.639,143.78 M275.915,143.78c-0.546,0-0.91-0.364-0.91-0.91
		c0-0.546,0.364-0.911,0.91-0.911c0.546,0,0.911,0.364,0.911,0.911C276.826,143.416,276.461,143.78,275.915,143.78 M272.191,143.78
		c-0.546,0-0.911-0.364-0.911-0.91c0-0.546,0.364-0.911,0.911-0.911c0.546,0,0.91,0.364,0.91,0.911
		C273.102,143.416,272.738,143.78,272.191,143.78 M257.409,143.78c-2.115,0-3.39-1.373-3.39-3.642s1.275-3.642,3.39-3.642
		c2.115,0,3.39,1.373,3.39,3.642S259.524,143.78,257.409,143.78 M257.409,137.463c-1.415,0-2.269,1.008-2.269,2.675
		c0,1.667,0.854,2.675,2.269,2.675s2.269-1.008,2.269-2.675C259.678,138.471,258.824,137.463,257.409,137.463 M249.079,143.78
		c-1.107,0-1.989-0.56-2.395-1.359l-0.07,1.219h-0.981v-10.226h1.121v4.314c0.434-0.728,1.275-1.233,2.325-1.233
		c1.947,0,3.194,1.359,3.194,3.642S251.026,143.78,249.079,143.78 M248.953,137.477c-1.331,0-2.199,0.995-2.199,2.577v0.168
		c0,1.583,0.868,2.577,2.199,2.577c1.373,0,2.199-1.037,2.199-2.661C251.152,138.513,250.326,137.477,248.953,137.477
		 M243.102,143.78c-0.686,0-1.135-0.252-1.261-1.037c-0.448,0.658-1.359,1.037-2.255,1.037c-1.317,0-2.381-0.616-2.381-1.877
		c0-1.051,0.925-1.877,2.732-2.185l1.863-0.308v-0.392c0-0.925-0.588-1.541-1.639-1.541c-0.924,0-1.625,0.448-2.003,1.331
		l-0.827-0.602c0.364-1.037,1.471-1.709,2.83-1.709c1.597,0,2.76,0.756,2.76,2.381v3.446c0,0.336,0.14,0.504,0.532,0.504
		c0.182,0,0.392-0.028,0.56-0.07l-0.07,0.883C243.747,143.71,243.453,143.78,243.102,143.78 M241.8,140.32l-1.569,0.294
		c-1.233,0.224-1.863,0.63-1.863,1.289c0,0.588,0.476,0.896,1.275,0.896c1.121,0,2.157-0.588,2.157-1.513V140.32 M210.986,143.78
		c-2.633,0-4.286-1.835-4.286-4.763c0-2.928,1.681-4.763,4.258-4.763c1.793,0,2.998,0.756,3.586,2.157l-1.107,0.518
		c-0.406-1.065-1.163-1.625-2.395-1.625c-1.891,0-3.166,1.373-3.166,3.712c0,2.325,1.191,3.712,3.11,3.712
		c1.233,0,2.199-0.63,2.605-1.877l1.121,0.42C214.124,142.855,212.723,143.78,210.986,143.78 M200.067,143.78
		c-0.686,0-1.135-0.252-1.261-1.037c-0.448,0.658-1.359,1.037-2.255,1.037c-1.317,0-2.381-0.616-2.381-1.877
		c0-1.051,0.924-1.877,2.731-2.185l1.863-0.308v-0.392c0-0.925-0.588-1.541-1.639-1.541c-0.925,0-1.625,0.448-2.003,1.331
		l-0.826-0.602c0.364-1.037,1.471-1.709,2.83-1.709c1.597,0,2.759,0.756,2.759,2.381v3.446c0,0.336,0.14,0.504,0.532,0.504
		c0.182,0,0.392-0.028,0.56-0.07l-0.07,0.883C200.712,143.71,200.417,143.78,200.067,143.78 M198.765,140.32l-1.569,0.294
		c-1.233,0.224-1.863,0.63-1.863,1.289c0,0.588,0.476,0.896,1.275,0.896c1.121,0,2.157-0.588,2.157-1.513V140.32 M183.854,143.78
		c-1.947,0-3.194-1.359-3.194-3.642s1.247-3.642,3.194-3.642c1.051,0,1.891,0.504,2.325,1.233v-4.314h1.121v10.226h-0.981
		l-0.07-1.219C185.843,143.22,184.961,143.78,183.854,143.78 M183.98,137.477c-1.373,0-2.199,1.037-2.199,2.661
		c0,1.625,0.826,2.661,2.199,2.661c1.331,0,2.199-0.995,2.199-2.577v-0.168C186.179,138.471,185.311,137.477,183.98,137.477
		 M169.884,143.78c-0.686,0-1.135-0.252-1.261-1.037c-0.448,0.658-1.359,1.037-2.255,1.037c-1.317,0-2.381-0.616-2.381-1.877
		c0-1.051,0.925-1.877,2.732-2.185l1.863-0.308v-0.392c0-0.925-0.588-1.541-1.639-1.541c-0.924,0-1.625,0.448-2.003,1.331
		l-0.827-0.602c0.364-1.037,1.471-1.709,2.83-1.709c1.597,0,2.76,0.756,2.76,2.381v3.446c0,0.336,0.14,0.504,0.532,0.504
		c0.182,0,0.392-0.028,0.56-0.07l-0.07,0.883C170.528,143.71,170.234,143.78,169.884,143.78 M168.581,140.32l-1.569,0.294
		c-1.233,0.224-1.863,0.63-1.863,1.289c0,0.588,0.476,0.896,1.275,0.896c1.121,0,2.157-0.588,2.157-1.513V140.32 M157.548,143.78
		c-1.135,0-1.681-0.602-1.681-1.877v-8.489h1.121v8.349c0,0.714,0.182,0.939,0.756,0.939c0.378,0,0.616-0.042,1.023-0.196
		l-0.182,1.079C158.29,143.71,157.912,143.78,157.548,143.78 M153.264,143.78c-1.135,0-1.681-0.602-1.681-1.877v-8.489h1.121v8.349
		c0,0.714,0.182,0.939,0.756,0.939c0.378,0,0.616-0.042,1.023-0.196l-0.182,1.079C154.006,143.71,153.628,143.78,153.264,143.78
		 M146.461,143.78c-2.115,0-3.39-1.373-3.39-3.642s1.191-3.642,3.306-3.642c2.031,0,3.138,1.471,3.138,3.278
		c0,0.322-0.028,0.588-0.056,0.784h-5.281c0.14,1.415,0.995,2.241,2.283,2.241c1.023,0,1.723-0.364,1.975-1.037l0.938,0.49
		C148.842,143.206,147.973,143.78,146.461,143.78 M146.376,137.477c-1.247,0-2.017,0.77-2.185,2.087h4.244
		C148.282,138.275,147.567,137.477,146.376,137.477 M124.033,143.78c-2.115,0-3.39-1.373-3.39-3.642s1.275-3.642,3.39-3.642
		c2.115,0,3.39,1.373,3.39,3.642S126.148,143.78,124.033,143.78 M124.033,137.463c-1.415,0-2.269,1.008-2.269,2.675
		c0,1.667,0.854,2.675,2.269,2.675c1.415,0,2.269-1.008,2.269-2.675C126.302,138.471,125.448,137.463,124.033,137.463
		 M116.137,143.78c-2.115,0-3.39-1.373-3.39-3.642s1.275-3.642,3.39-3.642c1.443,0,2.381,0.714,2.9,1.863l-1.065,0.504
		c-0.294-0.896-0.896-1.387-1.863-1.387c-1.401,0-2.241,0.995-2.241,2.661c0,1.667,0.84,2.661,2.241,2.661
		c1.093,0,1.751-0.518,1.961-1.443l1.037,0.364C118.63,143.01,117.622,143.78,116.137,143.78 M110.65,143.78
		c-0.686,0-1.135-0.252-1.261-1.037c-0.448,0.658-1.359,1.037-2.255,1.037c-1.317,0-2.381-0.616-2.381-1.877
		c0-1.051,0.924-1.877,2.731-2.185l1.863-0.308v-0.392c0-0.925-0.588-1.541-1.639-1.541c-0.925,0-1.625,0.448-2.003,1.331
		l-0.826-0.602c0.364-1.037,1.471-1.709,2.83-1.709c1.597,0,2.759,0.756,2.759,2.381v3.446c0,0.336,0.14,0.504,0.532,0.504
		c0.182,0,0.392-0.028,0.56-0.07l-0.07,0.883C111.295,143.71,111.001,143.78,110.65,143.78 M109.348,140.32l-1.569,0.294
		c-1.233,0.224-1.863,0.63-1.863,1.289c0,0.588,0.476,0.896,1.275,0.896c1.121,0,2.157-0.588,2.157-1.513V140.32 M91.611,143.78
		c-0.686,0-1.135-0.252-1.261-1.037c-0.448,0.658-1.359,1.037-2.255,1.037c-1.317,0-2.381-0.616-2.381-1.877
		c0-1.051,0.925-1.877,2.731-2.185l1.863-0.308v-0.392c0-0.925-0.588-1.541-1.639-1.541c-0.924,0-1.625,0.448-2.003,1.331
		l-0.827-0.602c0.364-1.037,1.471-1.709,2.83-1.709c1.597,0,2.76,0.756,2.76,2.381v3.446c0,0.336,0.14,0.504,0.532,0.504
		c0.182,0,0.392-0.028,0.56-0.07l-0.07,0.883C92.255,143.71,91.961,143.78,91.611,143.78 M90.308,140.32l-1.569,0.294
		c-1.233,0.224-1.863,0.63-1.863,1.289c0,0.588,0.476,0.896,1.275,0.896c1.121,0,2.157-0.588,2.157-1.513V140.32 M78.057,143.78
		c-1.037,0-1.933-0.518-1.947-1.877v-4.3H74.71v-0.967h1.401v-1.681l1.121-0.308v1.989h2.591v0.967h-2.591v4.104
		c0,0.686,0.434,1.022,1.051,1.022c0.504,0,0.868-0.196,1.191-0.518l0.392,0.939C79.43,143.542,78.828,143.78,78.057,143.78
		 M70.581,143.78c-1.289,0-2.479-0.504-3.012-1.583l0.91-0.63c0.336,0.854,1.205,1.233,2.213,1.233c1.149,0,1.695-0.462,1.695-1.037
		c0-0.518-0.434-0.826-1.835-1.079c-1.989-0.364-2.718-0.911-2.718-2.087c0-1.135,1.051-2.101,2.76-2.101
		c1.499,0,2.381,0.532,2.774,1.681l-0.953,0.56c-0.308-0.924-0.939-1.261-1.821-1.261c-0.939,0-1.639,0.504-1.639,1.023
		c0,0.602,0.462,0.91,1.891,1.149c1.961,0.322,2.661,0.91,2.661,2.059C73.509,142.926,72.374,143.78,70.581,143.78 M62.042,143.78
		c-1.387,0-2.577-0.714-2.577-2.563v-4.58h1.121v4.286c0,1.443,0.644,1.877,1.653,1.877c1.191,0,2.241-0.7,2.241-2.353v-3.81H65.6
		v7.004h-0.981l-0.07-1.065C64.059,143.416,63.162,143.78,62.042,143.78 M53.795,143.78c-2.073,0-3.082-1.247-2.717-3.194
		l1.037-0.21c-0.21,1.583,0.238,2.353,1.639,2.353c1.583,0,2.059-0.882,2.059-2.535v-5.799h1.121v6.079
		C56.933,142.547,55.756,143.78,53.795,143.78 M44.121,143.78c-0.546,0-0.91-0.364-0.91-0.91c0-0.546,0.364-0.911,0.91-0.911
		c0.546,0,0.911,0.364,0.911,0.911C45.031,143.416,44.667,143.78,44.121,143.78 M38.382,143.78c-2.115,0-3.39-1.373-3.39-3.642
		s1.191-3.642,3.306-3.642c2.031,0,3.138,1.471,3.138,3.278c0,0.322-0.028,0.588-0.056,0.784h-5.281
		c0.14,1.415,0.995,2.241,2.283,2.241c1.023,0,1.723-0.364,1.975-1.037l0.939,0.49C40.763,143.206,39.895,143.78,38.382,143.78
		 M38.298,137.477c-1.247,0-2.017,0.77-2.185,2.087h4.244C40.203,138.275,39.489,137.477,38.298,137.477 M21.05,143.78
		c-2.115,0-3.39-1.373-3.39-3.642s1.275-3.642,3.39-3.642c2.115,0,3.39,1.373,3.39,3.642S23.166,143.78,21.05,143.78 M21.05,137.463
		c-1.415,0-2.269,1.008-2.269,2.675c0,1.667,0.854,2.675,2.269,2.675c1.415,0,2.269-1.008,2.269-2.675
		C23.32,138.471,22.465,137.463,21.05,137.463 M269.1,143.64h-1.121v-4.09c0-1.555-0.756-2.073-1.723-2.073
		c-1.023,0-2.171,0.644-2.171,2.437v3.726h-1.121v-7.004h0.981l0.07,1.093c0.49-0.883,1.387-1.233,2.353-1.233
		c1.499,0,2.731,0.854,2.731,2.661V143.64 M235.179,143.64h-1.121v-4.09c0-1.555-0.756-2.073-1.723-2.073
		c-1.023,0-2.171,0.644-2.171,2.437v3.726h-1.121v-7.004h0.981l0.07,1.093c0.49-0.883,1.387-1.233,2.353-1.233
		c1.499,0,2.732,0.854,2.732,2.661V143.64 M226.513,143.64h-1.121v-4.09c0-1.555-0.756-2.073-1.723-2.073
		c-1.023,0-2.171,0.644-2.171,2.437v3.726h-1.121v-7.004h0.981l0.07,1.093c0.49-0.883,1.387-1.233,2.353-1.233
		c1.499,0,2.731,0.854,2.731,2.661V143.64 M217.775,143.64h-1.121v-7.004h1.121V143.64 M178.55,143.64h-1.121v-4.09
		c0-1.555-0.756-2.073-1.723-2.073c-1.023,0-2.171,0.644-2.171,2.437v3.726h-1.121v-7.004h0.981l0.07,1.093
		c0.49-0.883,1.387-1.233,2.353-1.233c1.499,0,2.731,0.854,2.731,2.661V143.64 M137.851,143.64h-3.278v-9.245h3.292
		c2.185,0,3.152,0.981,3.152,2.549c0,0.939-0.56,1.793-1.555,1.989v0.014c1.093,0.21,1.793,1.093,1.793,2.101
		C141.255,142.617,140.036,143.64,137.851,143.64 M135.694,139.508v3.082h2.423c1.317,0,1.961-0.56,1.961-1.541
		c0-0.981-0.644-1.541-1.961-1.541H135.694 M135.694,135.445v3.012h2.185c1.317,0,1.961-0.49,1.961-1.513
		c0-1.008-0.644-1.499-1.961-1.499H135.694 M101.704,143.64h-1.121v-8.194h-3.222v-1.051h7.564v1.051h-3.222V143.64 M15.411,143.64
		h-1.387l-3.866-6.191l-0.981-1.821H9.163l0.056,1.485v6.528H8.155v-9.245h1.387l3.852,6.163l0.995,1.849h0.014l-0.056-1.485v-6.527
		h1.065V143.64 M217.214,135.291c-0.504,0-0.84-0.336-0.84-0.84s0.336-0.84,0.84-0.84c0.504,0,0.84,0.336,0.84,0.84
		S217.719,135.291,217.214,135.291"/>
	<path fill="#000000" d="M41.056,188.652c-2.213,0-3.222-0.798-3.222-1.849c0-0.644,0.462-1.149,1.233-1.359
		c-0.532-0.252-0.952-0.672-0.952-1.289c0-0.728,0.434-1.163,1.051-1.373c-0.672-0.42-1.023-1.107-1.023-1.919
		c0-1.387,1.191-2.367,2.872-2.367c0.532,0,1.009,0.098,1.429,0.28c0.266-0.967,0.924-1.429,1.975-1.429l0.252,0.98
		c-0.939,0-1.471,0.266-1.667,0.77c0.56,0.42,0.882,1.037,0.882,1.765c0,1.387-1.191,2.367-2.872,2.367
		c-0.406,0-0.77-0.042-1.079-0.126c-0.56,0.126-0.784,0.406-0.784,0.883c0,0.49,0.378,0.756,0.924,0.756H42.4
		c1.331,0,2.115,0.658,2.115,1.667C44.515,187.797,42.947,188.652,41.056,188.652 M40.215,185.71c-0.883,0-1.345,0.336-1.345,0.868
		c0,0.686,0.77,1.135,2.311,1.135c1.485,0,2.297-0.56,2.297-1.177c0-0.504-0.336-0.826-1.387-0.826H40.215 M41.013,179.407
		c-0.966,0-1.709,0.588-1.709,1.457c0,0.868,0.742,1.457,1.709,1.457c0.967,0,1.709-0.588,1.709-1.457
		C42.722,179.995,41.98,179.407,41.013,179.407 M187.62,185.78c-2.115,0-3.39-1.373-3.39-3.642s1.191-3.642,3.306-3.642
		c2.031,0,3.138,1.471,3.138,3.278c0,0.322-0.028,0.588-0.056,0.784h-5.281c0.14,1.415,0.995,2.241,2.283,2.241
		c1.023,0,1.723-0.364,1.975-1.037l0.939,0.49C190.001,185.206,189.133,185.78,187.62,185.78 M187.536,179.477
		c-1.247,0-2.017,0.77-2.185,2.087h4.244C189.441,180.275,188.726,179.477,187.536,179.477 M182.005,185.78
		c-1.135,0-1.681-0.602-1.681-1.877v-8.489h1.121v8.349c0,0.714,0.182,0.939,0.756,0.939c0.378,0,0.616-0.042,1.023-0.196
		l-0.182,1.079C182.747,185.71,182.369,185.78,182.005,185.78 M175.006,185.78c-1.107,0-1.989-0.56-2.395-1.359l-0.07,1.219h-0.981
		v-10.226h1.121v4.314c0.434-0.728,1.275-1.233,2.325-1.233c1.947,0,3.194,1.359,3.194,3.642
		C178.2,184.421,176.953,185.78,175.006,185.78 M174.88,179.477c-1.331,0-2.199,0.995-2.199,2.577v0.168
		c0,1.583,0.868,2.577,2.199,2.577c1.373,0,2.199-1.037,2.199-2.662C177.079,180.513,176.253,179.477,174.88,179.477
		 M169.029,185.78c-0.686,0-1.135-0.252-1.261-1.037c-0.448,0.658-1.359,1.037-2.255,1.037c-1.317,0-2.381-0.616-2.381-1.877
		c0-1.051,0.925-1.877,2.731-2.185l1.863-0.308v-0.392c0-0.924-0.588-1.541-1.639-1.541c-0.924,0-1.625,0.448-2.003,1.331
		l-0.826-0.602c0.364-1.037,1.471-1.709,2.83-1.709c1.597,0,2.76,0.756,2.76,2.381v3.446c0,0.336,0.14,0.504,0.532,0.504
		c0.182,0,0.392-0.028,0.56-0.07l-0.07,0.882C169.674,185.71,169.379,185.78,169.029,185.78 M167.727,182.32l-1.569,0.294
		c-1.233,0.224-1.863,0.63-1.863,1.289c0,0.588,0.476,0.896,1.275,0.896c1.121,0,2.157-0.588,2.157-1.513V182.32 M160.25,185.78
		c-1.037,0-1.933-0.518-1.947-1.877v-4.3h-1.401v-0.966h1.401v-1.681l1.121-0.308v1.989h2.591v0.966h-2.591v4.104
		c0,0.686,0.434,1.023,1.051,1.023c0.504,0,0.869-0.196,1.191-0.518l0.392,0.939C161.623,185.542,161.02,185.78,160.25,185.78
		 M148.098,185.78c-2.115,0-3.39-1.373-3.39-3.642s1.191-3.642,3.306-3.642c2.031,0,3.138,1.471,3.138,3.278
		c0,0.322-0.028,0.588-0.056,0.784h-5.281c0.14,1.415,0.995,2.241,2.283,2.241c1.022,0,1.723-0.364,1.975-1.037l0.939,0.49
		C150.479,185.206,149.611,185.78,148.098,185.78 M148.014,179.477c-1.247,0-2.017,0.77-2.185,2.087h4.244
		C149.919,180.275,149.205,179.477,148.014,179.477 M133.09,185.78c-1.037,0-1.933-0.518-1.947-1.877v-4.3h-1.401v-0.966h1.401
		v-1.681l1.121-0.308v1.989h2.591v0.966h-2.591v4.104c0,0.686,0.434,1.023,1.051,1.023c0.504,0,0.869-0.196,1.191-0.518l0.392,0.939
		C134.463,185.542,133.861,185.78,133.09,185.78 M120.561,185.78c-2.115,0-3.39-1.373-3.39-3.642s1.275-3.642,3.39-3.642
		c2.115,0,3.39,1.373,3.39,3.642S122.676,185.78,120.561,185.78 M120.561,179.463c-1.415,0-2.269,1.008-2.269,2.675
		c0,1.667,0.854,2.675,2.269,2.675c1.415,0,2.269-1.009,2.269-2.675C122.83,180.471,121.975,179.463,120.561,179.463
		 M114.219,185.78c-1.037,0-1.933-0.518-1.947-1.877v-4.3h-1.401v-0.966h1.401v-1.681l1.121-0.308v1.989h2.591v0.966h-2.591v4.104
		c0,0.686,0.434,1.023,1.051,1.023c0.504,0,0.869-0.196,1.191-0.518l0.392,0.939C115.591,185.542,114.989,185.78,114.219,185.78
		 M94.675,185.78c-2.115,0-3.39-1.373-3.39-3.642s1.275-3.642,3.39-3.642c1.443,0,2.381,0.714,2.9,1.863l-1.065,0.504
		c-0.294-0.896-0.896-1.387-1.863-1.387c-1.401,0-2.241,0.995-2.241,2.661c0,1.667,0.84,2.662,2.241,2.662
		c1.093,0,1.751-0.518,1.961-1.443l1.037,0.364C97.168,185.01,96.16,185.78,94.675,185.78 M89.188,185.78
		c-0.686,0-1.135-0.252-1.261-1.037c-0.448,0.658-1.359,1.037-2.255,1.037c-1.317,0-2.381-0.616-2.381-1.877
		c0-1.051,0.924-1.877,2.731-2.185l1.863-0.308v-0.392c0-0.924-0.588-1.541-1.639-1.541c-0.925,0-1.625,0.448-2.003,1.331
		l-0.826-0.602c0.364-1.037,1.471-1.709,2.83-1.709c1.597,0,2.759,0.756,2.759,2.381v3.446c0,0.336,0.14,0.504,0.532,0.504
		c0.182,0,0.392-0.028,0.56-0.07l-0.07,0.882C89.833,185.71,89.538,185.78,89.188,185.78 M87.886,182.32l-1.569,0.294
		c-1.233,0.224-1.863,0.63-1.863,1.289c0,0.588,0.476,0.896,1.275,0.896c1.121,0,2.157-0.588,2.157-1.513V182.32 M78.421,185.78
		c-1.107,0-1.989-0.56-2.395-1.359l-0.07,1.219h-0.981v-10.226h1.121v4.314c0.434-0.728,1.275-1.233,2.325-1.233
		c1.947,0,3.194,1.359,3.194,3.642C81.615,184.421,80.368,185.78,78.421,185.78 M78.295,179.477c-1.331,0-2.199,0.995-2.199,2.577
		v0.168c0,1.583,0.868,2.577,2.199,2.577c1.373,0,2.199-1.037,2.199-2.662C80.495,180.513,79.668,179.477,78.295,179.477
		 M65.205,185.78c-1.289,0-2.479-0.504-3.012-1.583l0.91-0.63c0.336,0.854,1.205,1.233,2.213,1.233c1.149,0,1.695-0.462,1.695-1.037
		c0-0.518-0.434-0.826-1.835-1.079c-1.989-0.364-2.717-0.91-2.717-2.087c0-1.135,1.051-2.101,2.759-2.101
		c1.499,0,2.381,0.532,2.774,1.681l-0.952,0.56c-0.308-0.925-0.939-1.261-1.821-1.261c-0.939,0-1.639,0.504-1.639,1.023
		c0,0.602,0.462,0.91,1.891,1.149c1.961,0.322,2.661,0.91,2.661,2.059C68.133,184.925,66.998,185.78,65.205,185.78 M57.646,185.78
		c-2.115,0-3.39-1.373-3.39-3.642s1.191-3.642,3.306-3.642c2.031,0,3.138,1.471,3.138,3.278c0,0.322-0.028,0.588-0.056,0.784h-5.281
		c0.14,1.415,0.995,2.241,2.283,2.241c1.023,0,1.723-0.364,1.975-1.037l0.939,0.49C60.027,185.206,59.158,185.78,57.646,185.78
		 M57.561,179.477c-1.247,0-2.017,0.77-2.185,2.087h4.244C59.467,180.275,58.752,179.477,57.561,179.477 M49.134,185.78
		c-2.115,0-3.39-1.373-3.39-3.642s1.275-3.642,3.39-3.642c2.115,0,3.39,1.373,3.39,3.642S51.249,185.78,49.134,185.78
		 M49.134,179.463c-1.415,0-2.269,1.008-2.269,2.675c0,1.667,0.854,2.675,2.269,2.675c1.415,0,2.269-1.009,2.269-2.675
		C51.403,180.471,50.548,179.463,49.134,179.463 M28.54,185.78c-2.115,0-3.39-1.373-3.39-3.642s1.191-3.642,3.306-3.642
		c2.031,0,3.138,1.471,3.138,3.278c0,0.322-0.028,0.588-0.056,0.784h-5.281c0.14,1.415,0.995,2.241,2.283,2.241
		c1.023,0,1.723-0.364,1.975-1.037l0.939,0.49C30.921,185.206,30.053,185.78,28.54,185.78 M28.456,179.477
		c-1.247,0-2.017,0.77-2.185,2.087h4.244C30.361,180.275,29.647,179.477,28.456,179.477 M11.208,185.78
		c-1.961,0-3.25-0.854-3.894-2.003l0.967-0.784c0.49,1.065,1.443,1.737,2.956,1.737c1.429,0,2.381-0.532,2.381-1.527
		c0-0.798-0.602-1.261-2.549-1.597c-2.493-0.434-3.39-1.191-3.39-2.605c0-1.485,1.303-2.745,3.446-2.745
		c1.695,0,2.858,0.672,3.572,1.961L13.73,179c-0.56-1.219-1.233-1.695-2.591-1.695c-1.471,0-2.283,0.686-2.283,1.569
		c0,0.868,0.616,1.303,2.563,1.639c2.479,0.42,3.362,1.205,3.362,2.633C14.78,184.729,13.366,185.78,11.208,185.78 M142.612,185.64
		h-1.121v-4.09c0-1.555-0.756-2.073-1.723-2.073c-1.023,0-2.171,0.658-2.171,2.451v3.712h-1.121v-10.226h1.121v4.272
		c0.49-0.84,1.331-1.191,2.283-1.191c1.499,0,2.731,0.854,2.731,2.662V185.64 M105.933,185.64h-1.359l-2.353-3.46l-1.485,1.485
		v1.975h-1.121v-10.226h1.121v6.85l3.628-3.628h1.401l-2.731,2.731L105.933,185.64 M23.054,185.64h-1.121v-4.09
		c0-1.555-0.756-2.073-1.723-2.073c-1.023,0-2.171,0.658-2.171,2.451v3.712h-1.121v-10.226h1.121v4.272
		c0.49-0.84,1.331-1.191,2.283-1.191c1.499,0,2.731,0.854,2.731,2.662V185.64 M209.292,182.558h-4.623v-1.163h4.623V182.558
		 M202.152,182.558h-4.622v-1.163h4.622V182.558"/>
	<path fill="#000000" d="M199.659,230.652c-2.213,0-3.222-0.798-3.222-1.849c0-0.644,0.462-1.149,1.233-1.359
		c-0.532-0.252-0.953-0.672-0.953-1.289c0-0.728,0.434-1.163,1.051-1.373c-0.672-0.42-1.023-1.107-1.023-1.919
		c0-1.387,1.191-2.367,2.872-2.367c0.532,0,1.009,0.098,1.429,0.28c0.266-0.966,0.925-1.429,1.975-1.429l0.252,0.981
		c-0.939,0-1.471,0.266-1.667,0.77c0.56,0.42,0.883,1.037,0.883,1.765c0,1.387-1.191,2.367-2.872,2.367
		c-0.406,0-0.77-0.042-1.079-0.126c-0.56,0.126-0.784,0.406-0.784,0.883c0,0.49,0.378,0.756,0.924,0.756h2.325
		c1.331,0,2.115,0.658,2.115,1.667C203.119,229.797,201.55,230.652,199.659,230.652 M198.819,227.71
		c-0.882,0-1.345,0.336-1.345,0.869c0,0.686,0.77,1.135,2.311,1.135c1.485,0,2.297-0.56,2.297-1.177
		c0-0.504-0.336-0.827-1.387-0.827H198.819 M199.617,221.407c-0.967,0-1.709,0.588-1.709,1.457c0,0.868,0.742,1.457,1.709,1.457
		c0.967,0,1.709-0.588,1.709-1.457C201.326,221.995,200.584,221.407,199.617,221.407 M177.665,230.652
		c-0.7,0-1.149-0.168-1.541-0.588l0.392-0.952c0.322,0.448,0.742,0.56,1.135,0.56c0.49,0,0.924-0.21,1.275-1.135l0.364-0.911
		l-2.928-6.99h1.275l1.751,4.567l0.434,1.247l0.504-1.387l1.639-4.426h1.205l-3.292,8.18
		C179.332,230.189,178.701,230.652,177.665,230.652 M49.3,230.652c-0.7,0-1.149-0.168-1.541-0.588l0.392-0.952
		c0.322,0.448,0.742,0.56,1.135,0.56c0.49,0,0.925-0.21,1.275-1.135l0.364-0.911l-2.928-6.99h1.275l1.751,4.567l0.434,1.247
		l0.504-1.387l1.639-4.426h1.205l-3.292,8.18C50.967,230.189,50.337,230.652,49.3,230.652 M157.715,230.581h-1.121v-9.945h0.981
		l0.07,1.219c0.406-0.798,1.289-1.359,2.395-1.359c1.947,0,3.194,1.359,3.194,3.642s-1.247,3.642-3.194,3.642
		c-1.051,0-1.891-0.504-2.325-1.233V230.581 M159.914,221.477c-1.331,0-2.199,0.995-2.199,2.577v0.168
		c0,1.583,0.868,2.577,2.199,2.577c1.373,0,2.199-1.037,2.199-2.661S161.287,221.477,159.914,221.477 M70.791,230.581H69.67v-9.945
		h0.98l0.07,1.219c0.406-0.798,1.289-1.359,2.395-1.359c1.947,0,3.194,1.359,3.194,3.642s-1.247,3.642-3.194,3.642
		c-1.051,0-1.891-0.504-2.325-1.233V230.581 M72.99,221.477c-1.331,0-2.199,0.995-2.199,2.577v0.168
		c0,1.583,0.868,2.577,2.199,2.577c1.373,0,2.199-1.037,2.199-2.661S74.363,221.477,72.99,221.477 M285.841,227.78
		c-1.135,0-1.681-0.602-1.681-1.877v-8.489h1.121v8.349c0,0.714,0.182,0.939,0.756,0.939c0.378,0,0.616-0.042,1.023-0.196
		l-0.182,1.079C286.584,227.71,286.206,227.78,285.841,227.78 M281.557,227.78c-1.135,0-1.681-0.602-1.681-1.877v-8.489h1.121v8.349
		c0,0.714,0.182,0.939,0.756,0.939c0.378,0,0.616-0.042,1.023-0.196l-0.182,1.079C282.3,227.71,281.922,227.78,281.557,227.78
		 M277.402,227.78c-0.686,0-1.135-0.252-1.261-1.037c-0.448,0.658-1.359,1.037-2.255,1.037c-1.317,0-2.381-0.616-2.381-1.877
		c0-1.051,0.924-1.877,2.731-2.185l1.863-0.308v-0.392c0-0.925-0.588-1.541-1.639-1.541c-0.925,0-1.625,0.448-2.003,1.331
		l-0.826-0.602c0.364-1.037,1.471-1.709,2.83-1.709c1.597,0,2.759,0.756,2.759,2.381v3.446c0,0.336,0.14,0.504,0.532,0.504
		c0.182,0,0.392-0.028,0.56-0.07l-0.07,0.883C278.046,227.71,277.752,227.78,277.402,227.78 M276.099,224.32l-1.569,0.294
		c-1.233,0.224-1.863,0.63-1.863,1.289c0,0.588,0.476,0.896,1.275,0.896c1.121,0,2.157-0.588,2.157-1.513V224.32 M248.715,227.78
		c-2.115,0-3.39-1.373-3.39-3.642s1.191-3.642,3.306-3.642c2.031,0,3.138,1.471,3.138,3.278c0,0.322-0.028,0.588-0.056,0.784h-5.281
		c0.14,1.415,0.995,2.241,2.283,2.241c1.022,0,1.723-0.364,1.975-1.037l0.939,0.49C251.096,227.206,250.227,227.78,248.715,227.78
		 M248.631,221.477c-1.247,0-2.017,0.77-2.185,2.087h4.244C250.536,222.275,249.821,221.477,248.631,221.477 M233.707,227.78
		c-1.037,0-1.933-0.518-1.947-1.877v-4.3h-1.401v-0.967h1.401v-1.681l1.121-0.308v1.989h2.591v0.967h-2.591v4.104
		c0,0.686,0.434,1.023,1.051,1.023c0.504,0,0.869-0.196,1.191-0.518l0.392,0.939C235.079,227.542,234.477,227.78,233.707,227.78
		 M212.511,227.78c-2.115,0-3.39-1.373-3.39-3.642s1.275-3.642,3.39-3.642c2.115,0,3.39,1.373,3.39,3.642
		S214.626,227.78,212.511,227.78 M212.511,221.463c-1.415,0-2.269,1.009-2.269,2.675c0,1.667,0.854,2.675,2.269,2.675
		c1.415,0,2.269-1.008,2.269-2.675C214.781,222.471,213.926,221.463,212.511,221.463 M175.091,227.78
		c-0.686,0-1.135-0.252-1.261-1.037c-0.448,0.658-1.359,1.037-2.255,1.037c-1.317,0-2.381-0.616-2.381-1.877
		c0-1.051,0.924-1.877,2.731-2.185l1.863-0.308v-0.392c0-0.925-0.588-1.541-1.639-1.541c-0.925,0-1.625,0.448-2.003,1.331
		l-0.827-0.602c0.364-1.037,1.471-1.709,2.83-1.709c1.597,0,2.759,0.756,2.759,2.381v3.446c0,0.336,0.14,0.504,0.532,0.504
		c0.182,0,0.392-0.028,0.56-0.07l-0.07,0.883C175.736,227.71,175.441,227.78,175.091,227.78 M173.789,224.32l-1.569,0.294
		c-1.233,0.224-1.863,0.63-1.863,1.289c0,0.588,0.476,0.896,1.275,0.896c1.121,0,2.157-0.588,2.157-1.513V224.32 M167.039,227.78
		c-1.135,0-1.681-0.602-1.681-1.877v-8.489h1.121v8.349c0,0.714,0.182,0.939,0.756,0.939c0.378,0,0.616-0.042,1.023-0.196
		l-0.182,1.079C167.782,227.71,167.403,227.78,167.039,227.78 M146.824,227.78c-1.289,0-2.479-0.504-3.012-1.583l0.91-0.63
		c0.336,0.854,1.205,1.233,2.213,1.233c1.149,0,1.695-0.462,1.695-1.037c0-0.518-0.434-0.827-1.835-1.079
		c-1.989-0.364-2.717-0.911-2.717-2.087c0-1.135,1.051-2.101,2.759-2.101c1.499,0,2.381,0.532,2.774,1.681l-0.952,0.56
		c-0.308-0.924-0.939-1.261-1.821-1.261c-0.939,0-1.639,0.504-1.639,1.023c0,0.602,0.462,0.91,1.891,1.149
		c1.961,0.322,2.661,0.911,2.661,2.059C149.752,226.926,148.617,227.78,146.824,227.78 M141.056,227.78
		c-1.037,0-1.933-0.518-1.947-1.877v-4.3h-1.401v-0.967h1.401v-1.681l1.121-0.308v1.989h2.591v0.967h-2.591v4.104
		c0,0.686,0.434,1.023,1.051,1.023c0.504,0,0.868-0.196,1.191-0.518l0.392,0.939C142.429,227.542,141.827,227.78,141.056,227.78
		 M130.754,227.78c-0.686,0-1.135-0.252-1.261-1.037c-0.448,0.658-1.359,1.037-2.255,1.037c-1.317,0-2.381-0.616-2.381-1.877
		c0-1.051,0.925-1.877,2.731-2.185l1.863-0.308v-0.392c0-0.925-0.588-1.541-1.639-1.541c-0.924,0-1.625,0.448-2.003,1.331
		l-0.826-0.602c0.364-1.037,1.471-1.709,2.83-1.709c1.597,0,2.76,0.756,2.76,2.381v3.446c0,0.336,0.14,0.504,0.532,0.504
		c0.182,0,0.392-0.028,0.56-0.07l-0.07,0.883C131.398,227.71,131.104,227.78,130.754,227.78 M129.451,224.32l-1.569,0.294
		c-1.233,0.224-1.863,0.63-1.863,1.289c0,0.588,0.476,0.896,1.275,0.896c1.121,0,2.157-0.588,2.157-1.513V224.32 M121.975,227.78
		c-1.037,0-1.933-0.518-1.947-1.877v-4.3h-1.401v-0.967h1.401v-1.681l1.121-0.308v1.989h2.591v0.967h-2.591v4.104
		c0,0.686,0.434,1.023,1.051,1.023c0.504,0,0.869-0.196,1.191-0.518l0.392,0.939C123.347,227.542,122.745,227.78,121.975,227.78
		 M114.499,227.78c-1.289,0-2.479-0.504-3.012-1.583l0.911-0.63c0.336,0.854,1.205,1.233,2.213,1.233
		c1.149,0,1.695-0.462,1.695-1.037c0-0.518-0.434-0.827-1.835-1.079c-1.989-0.364-2.717-0.911-2.717-2.087
		c0-1.135,1.051-2.101,2.759-2.101c1.499,0,2.381,0.532,2.774,1.681l-0.952,0.56c-0.308-0.924-0.939-1.261-1.821-1.261
		c-0.939,0-1.639,0.504-1.639,1.023c0,0.602,0.462,0.91,1.891,1.149c1.961,0.322,2.661,0.911,2.661,2.059
		C117.426,226.926,116.292,227.78,114.499,227.78 M102.347,227.78c-1.289,0-2.479-0.504-3.012-1.583l0.91-0.63
		c0.336,0.854,1.205,1.233,2.213,1.233c1.149,0,1.695-0.462,1.695-1.037c0-0.518-0.434-0.827-1.835-1.079
		c-1.989-0.364-2.717-0.911-2.717-2.087c0-1.135,1.051-2.101,2.759-2.101c1.499,0,2.381,0.532,2.774,1.681l-0.952,0.56
		c-0.308-0.924-0.939-1.261-1.821-1.261c-0.938,0-1.639,0.504-1.639,1.023c0,0.602,0.462,0.91,1.891,1.149
		c1.961,0.322,2.661,0.911,2.661,2.059C105.274,226.926,104.14,227.78,102.347,227.78 M92.017,227.78
		c-0.686,0-1.135-0.252-1.261-1.037c-0.448,0.658-1.359,1.037-2.255,1.037c-1.317,0-2.381-0.616-2.381-1.877
		c0-1.051,0.924-1.877,2.731-2.185l1.863-0.308v-0.392c0-0.925-0.588-1.541-1.639-1.541c-0.925,0-1.625,0.448-2.003,1.331
		l-0.826-0.602c0.364-1.037,1.471-1.709,2.83-1.709c1.597,0,2.759,0.756,2.759,2.381v3.446c0,0.336,0.14,0.504,0.532,0.504
		c0.182,0,0.392-0.028,0.56-0.07l-0.07,0.883C92.661,227.71,92.367,227.78,92.017,227.78 M90.714,224.32l-1.569,0.294
		c-1.233,0.224-1.863,0.63-1.863,1.289c0,0.588,0.476,0.896,1.275,0.896c1.121,0,2.157-0.588,2.157-1.513V224.32 M81.445,227.78
		c-2.115,0-3.39-1.373-3.39-3.642s1.191-3.642,3.306-3.642c2.031,0,3.138,1.471,3.138,3.278c0,0.322-0.028,0.588-0.056,0.784h-5.281
		c0.14,1.415,0.995,2.241,2.283,2.241c1.023,0,1.723-0.364,1.975-1.037l0.939,0.49C83.827,227.206,82.958,227.78,81.445,227.78
		 M81.361,221.477c-1.247,0-2.017,0.77-2.185,2.087h4.244C83.266,222.275,82.552,221.477,81.361,221.477 M64.03,227.78
		c-1.961,0-3.25-0.854-3.894-2.003l0.967-0.784c0.49,1.065,1.443,1.737,2.956,1.737c1.429,0,2.381-0.532,2.381-1.527
		c0-0.798-0.602-1.261-2.549-1.597c-2.493-0.434-3.39-1.191-3.39-2.605c0-1.485,1.303-2.746,3.446-2.746
		c1.695,0,2.858,0.672,3.572,1.961L66.551,221c-0.56-1.219-1.233-1.695-2.591-1.695c-1.471,0-2.283,0.686-2.283,1.569
		c0,0.868,0.616,1.303,2.563,1.639c2.479,0.42,3.362,1.205,3.362,2.633C67.602,226.729,66.187,227.78,64.03,227.78 M44.01,227.78
		c-2.115,0-3.39-1.373-3.39-3.642s1.191-3.642,3.306-3.642c2.031,0,3.138,1.471,3.138,3.278c0,0.322-0.028,0.588-0.056,0.784h-5.281
		c0.14,1.415,0.995,2.241,2.283,2.241c1.023,0,1.723-0.364,1.975-1.037l0.938,0.49C46.391,227.206,45.523,227.78,44.01,227.78
		 M43.926,221.477c-1.247,0-2.017,0.77-2.185,2.087h4.244C45.831,222.275,45.116,221.477,43.926,221.477 M29.002,227.78
		c-1.037,0-1.933-0.518-1.947-1.877v-4.3h-1.401v-0.967h1.401v-1.681l1.121-0.308v1.989h2.591v0.967h-2.591v4.104
		c0,0.686,0.434,1.023,1.051,1.023c0.504,0,0.868-0.196,1.191-0.518l0.392,0.939C30.375,227.542,29.772,227.78,29.002,227.78
		 M269.481,227.64h-1.121v-4.37c0-1.275-0.728-1.793-1.653-1.793c-1.093,0-2.073,0.826-2.073,2.325v3.838h-1.121v-4.37
		c0-1.275-0.728-1.793-1.653-1.793c-0.925,0-2.073,0.686-2.073,2.423v3.74h-1.121v-7.004h0.981l0.07,1.093
		c0.504-0.854,1.373-1.233,2.241-1.233c0.981,0,1.947,0.434,2.409,1.373c0.434-0.952,1.555-1.373,2.437-1.373
		c1.345,0,2.676,0.812,2.676,2.661V227.64 M243.229,227.64h-1.121v-4.09c0-1.555-0.756-2.073-1.723-2.073
		c-1.023,0-2.171,0.658-2.171,2.451v3.712h-1.121v-10.226h1.121v4.272c0.49-0.84,1.331-1.191,2.283-1.191
		c1.499,0,2.732,0.854,2.732,2.661V227.64 M224.203,227.64h-1.121v-4.09c0-1.555-0.756-2.073-1.723-2.073
		c-1.023,0-2.171,0.644-2.171,2.437v3.726h-1.121v-7.004h0.981l0.07,1.093c0.49-0.883,1.387-1.233,2.353-1.233
		c1.499,0,2.731,0.854,2.731,2.661V227.64 M194.565,227.64h-1.121v-4.09c0-1.555-0.756-2.073-1.723-2.073
		c-1.022,0-2.171,0.644-2.171,2.437v3.726h-1.121v-7.004h0.98l0.07,1.093c0.49-0.883,1.387-1.233,2.353-1.233
		c1.499,0,2.731,0.854,2.731,2.661V227.64 M185.827,227.64h-1.121v-7.004h1.121V227.64 M134.406,227.64h-1.121v-7.004h0.91
		l0.154,1.149c0.392-0.854,1.149-1.289,2.241-1.289c0.238,0,0.56,0.028,0.77,0.14l-0.224,1.093c-0.21-0.112-0.518-0.182-0.883-0.182
		c-0.84,0-1.849,0.742-1.849,2.311V227.64 M95.668,227.64h-1.121v-7.004h0.91l0.154,1.149c0.392-0.854,1.149-1.289,2.241-1.289
		c0.238,0,0.56,0.028,0.77,0.14l-0.224,1.093c-0.21-0.112-0.518-0.182-0.883-0.182c-0.84,0-1.849,0.742-1.849,2.311V227.64
		 M38.524,227.64h-1.121v-4.09c0-1.555-0.756-2.073-1.723-2.073c-1.023,0-2.171,0.644-2.171,2.437v3.726h-1.121v-7.004h0.981
		l0.07,1.093c0.49-0.883,1.387-1.233,2.353-1.233c1.499,0,2.731,0.854,2.731,2.661V227.64 M23.919,227.64h-1.121v-7.004h1.121
		V227.64 M18.207,227.64h-1.121v-7.004h0.911l0.154,1.149c0.392-0.854,1.149-1.289,2.241-1.289c0.238,0,0.56,0.028,0.77,0.14
		l-0.224,1.093c-0.21-0.112-0.518-0.182-0.882-0.182c-0.84,0-1.849,0.742-1.849,2.311V227.64 M11.433,227.64H8.155v-9.245h3.292
		c2.185,0,3.152,0.981,3.152,2.549c0,0.939-0.56,1.793-1.555,1.989v0.014c1.093,0.21,1.793,1.093,1.793,2.101
		C14.836,226.617,13.618,227.64,11.433,227.64 M9.275,223.508v3.082h2.423c1.317,0,1.961-0.56,1.961-1.541
		c0-0.981-0.644-1.541-1.961-1.541H9.275 M9.275,219.445v3.012h2.185c1.317,0,1.961-0.49,1.961-1.513
		c0-1.008-0.644-1.499-1.961-1.499H9.275 M185.267,219.291c-0.504,0-0.84-0.336-0.84-0.84c0-0.504,0.336-0.84,0.84-0.84
		s0.84,0.336,0.84,0.84C186.107,218.955,185.771,219.291,185.267,219.291 M23.359,219.291c-0.504,0-0.84-0.336-0.84-0.84
		c0-0.504,0.336-0.84,0.84-0.84c0.504,0,0.84,0.336,0.84,0.84C24.199,218.955,23.863,219.291,23.359,219.291"/>
	<path fill="#000000" d="M46.725,251.581h-1.121v-9.945h0.981l0.07,1.219c0.406-0.798,1.289-1.359,2.395-1.359
		c1.947,0,3.194,1.359,3.194,3.642c0,2.283-1.247,3.642-3.194,3.642c-1.051,0-1.891-0.504-2.325-1.233V251.581 M48.924,242.477
		c-1.331,0-2.199,0.995-2.199,2.577v0.168c0,1.583,0.868,2.577,2.199,2.577c1.373,0,2.199-1.037,2.199-2.661
		C51.123,243.513,50.297,242.477,48.924,242.477 M90.978,250.685l-0.588-0.546c0.756-0.252,1.247-0.84,1.373-1.429l-0.056-0.028
		c-0.07,0.056-0.168,0.098-0.392,0.098c-0.336,0-0.77-0.28-0.77-0.883c0-0.504,0.406-0.938,0.91-0.938
		c0.658,0,1.051,0.56,1.051,1.359C92.505,249.256,92.042,250.181,90.978,250.685 M81.123,248.78c-2.115,0-3.39-1.373-3.39-3.642
		c0-2.269,1.191-3.642,3.306-3.642c2.031,0,3.138,1.471,3.138,3.278c0,0.322-0.028,0.588-0.056,0.784H78.84
		c0.14,1.415,0.995,2.241,2.283,2.241c1.023,0,1.723-0.364,1.975-1.037l0.939,0.49C83.505,248.206,82.636,248.78,81.123,248.78
		 M81.039,242.477c-1.247,0-2.017,0.77-2.185,2.087h4.244C82.944,243.275,82.23,242.477,81.039,242.477 M67.951,248.78
		c-0.686,0-1.135-0.252-1.261-1.037c-0.448,0.658-1.359,1.037-2.255,1.037c-1.317,0-2.381-0.616-2.381-1.877
		c0-1.051,0.925-1.877,2.731-2.185l1.863-0.308v-0.392c0-0.925-0.588-1.541-1.639-1.541c-0.924,0-1.625,0.448-2.003,1.331
		l-0.827-0.602c0.364-1.037,1.471-1.709,2.83-1.709c1.597,0,2.76,0.756,2.76,2.381v3.446c0,0.336,0.14,0.504,0.532,0.504
		c0.182,0,0.392-0.028,0.56-0.07l-0.07,0.883C68.595,248.71,68.301,248.78,67.951,248.78 M66.648,245.32l-1.569,0.294
		c-1.233,0.224-1.863,0.63-1.863,1.289c0,0.588,0.476,0.896,1.275,0.896c1.121,0,2.157-0.588,2.157-1.513V245.32 M57.38,248.78
		c-2.115,0-3.39-1.373-3.39-3.642c0-2.269,1.191-3.642,3.306-3.642c2.031,0,3.138,1.471,3.138,3.278
		c0,0.322-0.028,0.588-0.056,0.784h-5.281c0.14,1.415,0.995,2.241,2.283,2.241c1.023,0,1.723-0.364,1.975-1.037l0.939,0.49
		C59.761,248.206,58.892,248.78,57.38,248.78 M57.296,242.477c-1.247,0-2.017,0.77-2.185,2.087h4.244
		C59.2,243.275,58.486,242.477,57.296,242.477 M40.607,248.78c-1.289,0-2.479-0.504-3.012-1.583l0.91-0.63
		c0.336,0.854,1.205,1.233,2.213,1.233c1.149,0,1.695-0.462,1.695-1.037c0-0.518-0.434-0.826-1.835-1.079
		c-1.989-0.364-2.717-0.91-2.717-2.087c0-1.135,1.051-2.101,2.759-2.101c1.499,0,2.381,0.532,2.774,1.681l-0.952,0.56
		c-0.308-0.924-0.939-1.261-1.821-1.261c-0.939,0-1.639,0.504-1.639,1.023c0,0.602,0.462,0.91,1.891,1.149
		c1.961,0.322,2.661,0.91,2.661,2.059C43.535,247.926,42.4,248.78,40.607,248.78 M32.18,248.78c-1.947,0-3.194-1.359-3.194-3.642
		c0-2.283,1.247-3.642,3.194-3.642c1.051,0,1.891,0.504,2.325,1.233v-4.314h1.121v10.226h-0.981l-0.07-1.219
		C34.169,248.22,33.286,248.78,32.18,248.78 M32.306,242.477c-1.373,0-2.199,1.037-2.199,2.661c0,1.625,0.826,2.661,2.199,2.661
		c1.331,0,2.199-0.995,2.199-2.577v-0.168C34.505,243.471,33.637,242.477,32.306,242.477 M23.248,248.78
		c-1.387,0-2.577-0.714-2.577-2.563v-4.58h1.121v4.286c0,1.443,0.644,1.877,1.653,1.877c1.191,0,2.241-0.7,2.241-2.353v-3.81h1.121
		v7.004h-0.981l-0.07-1.065C25.265,248.416,24.368,248.78,23.248,248.78 M15.184,248.78c-2.115,0-3.39-1.373-3.39-3.642
		c0-2.269,1.275-3.642,3.39-3.642c2.115,0,3.39,1.373,3.39,3.642C18.574,247.407,17.299,248.78,15.184,248.78 M15.184,242.463
		c-1.415,0-2.269,1.008-2.269,2.675c0,1.667,0.854,2.675,2.269,2.675c1.415,0,2.269-1.009,2.269-2.675
		C17.454,243.471,16.599,242.463,15.184,242.463 M9.57,248.78c-1.135,0-1.681-0.602-1.681-1.877v-8.489h1.121v8.349
		c0,0.714,0.182,0.939,0.756,0.939c0.378,0,0.616-0.042,1.023-0.196l-0.182,1.079C10.312,248.71,9.934,248.78,9.57,248.78
		 M87.422,248.64h-1.121v-7.004h0.91l0.154,1.149c0.392-0.854,1.149-1.289,2.241-1.289c0.238,0,0.56,0.028,0.77,0.14l-0.224,1.093
		c-0.21-0.112-0.518-0.182-0.882-0.182c-0.84,0-1.849,0.742-1.849,2.311V248.64 M76.799,248.64H75.44l-2.353-3.46l-1.485,1.485
		v1.975h-1.121v-10.226h1.121v6.85l3.628-3.628h1.401l-2.731,2.732L76.799,248.64"/>
	<path fill="#EE4799" d="M105.709,247.281c-0.336,0-0.504-0.182-0.504-0.546v-2.549c0-1.807-1.191-2.689-3.348-2.689
		c-1.905,0-2.998,0.826-3.236,2.157l1.933,0.56c0.14-0.812,0.63-1.079,1.303-1.079c0.63,0,0.995,0.406,0.995,1.037v0.252
		l-1.583,0.308c-1.989,0.392-2.731,1.135-2.731,2.297c0,1.135,0.784,1.751,2.171,1.751c1.289,0,2.101-0.406,2.493-1.079
		c0.21,0.756,0.868,1.079,1.807,1.079c0.35,0,0.672-0.07,0.953-0.224l0.182-1.331C106.017,247.267,105.877,247.281,105.709,247.281z
		 M101.577,247.239c-0.434,0-0.686-0.21-0.686-0.602s0.238-0.588,0.826-0.728l1.135-0.266v0.602
		C102.851,246.889,102.165,247.239,101.577,247.239z M111.672,241.496c-1.107,0-1.961,0.504-2.395,1.499l-0.07-1.359h-2.129v7.004
		h2.381v-3.698c0-1.163,0.574-1.625,1.261-1.625c0.588,0,0.995,0.322,0.995,1.317v4.006h2.381v-4.665
		C114.095,242.351,113.114,241.496,111.672,241.496z M120.478,238.667v4.16c-0.378-0.798-1.107-1.331-2.129-1.331
		c-1.793,0-2.886,1.345-2.886,3.67c0,2.283,1.065,3.614,2.886,3.614c1.079,0,1.877-0.588,2.269-1.471l0.098,1.331h2.143v-9.973z
		 M119.175,247.029c-0.812,0-1.317-0.574-1.317-1.891s0.504-1.891,1.317-1.891c0.826,0,1.289,0.658,1.289,1.821l0.014-0.028v0.182
		l-0.014-0.014C120.464,246.413,119.973,247.029,119.175,247.029z M131.452,248.78c2.255,0,3.334-1.009,3.334-2.297
		c0-1.205-0.826-1.863-2.9-2.227c-0.981-0.182-1.289-0.364-1.289-0.644s0.364-0.532,1.065-0.532c0.84,0,1.457,0.28,1.905,0.939
		l1.233-1.205c-0.602-0.826-1.527-1.317-3.208-1.317c-2.283,0-3.376,1.177-3.376,2.325s0.77,1.835,2.9,2.255
		c0.939,0.196,1.275,0.364,1.275,0.63c0,0.294-0.392,0.49-1.051,0.49c-0.896,0-1.653-0.294-2.073-0.995l-1.233,1.345
		C128.749,248.416,129.912,248.78,131.452,248.78z M139.335,241.496c-2.339,0-3.698,1.345-3.698,3.642s1.359,3.642,3.698,3.642
		s3.698-1.345,3.698-3.642S141.674,241.496,139.335,241.496z M139.335,243.191c0.882,0,1.317,0.574,1.317,1.947
		s-0.434,1.947-1.317,1.947s-1.317-0.574-1.317-1.947S138.452,243.191,139.335,243.191z M153.52,241.496
		c-1.023,0-1.891,0.49-2.339,1.415c-0.35-0.939-1.191-1.415-2.227-1.415c-1.065,0-1.905,0.504-2.353,1.485l-0.07-1.345h-2.129v7.004
		h2.381v-3.698c0-1.149,0.574-1.625,1.233-1.625c0.56,0,0.953,0.322,0.953,1.205v4.118h2.381v-3.74c0-1.051,0.518-1.583,1.233-1.583
		c0.574,0,0.953,0.322,0.953,1.205v4.118h2.353l0.028-4.665C155.929,242.337,154.892,241.496,153.52,241.496z M164.396,245.04
		c0-2.213-1.219-3.544-3.502-3.544c-2.339,0-3.656,1.331-3.656,3.642s1.331,3.642,3.782,3.642c1.625,0,2.816-0.616,3.222-1.835
		l-1.933-0.616c-0.154,0.49-0.588,0.77-1.289,0.77c-0.798,0-1.317-0.364-1.471-1.275h4.777
		C164.368,245.642,164.396,245.278,164.396,245.04z M160.88,243.163c0.742,0,1.177,0.476,1.303,1.373h-2.633
		C159.676,243.583,160.124,243.163,160.88,243.163z M170.485,246.777c-0.28,0.196-0.574,0.308-1.009,0.308
		c-0.588,0-0.924-0.266-0.924-0.939v-2.816h2.101v-1.695h-2.101v-2.227l-2.381,0.658v1.569h-1.205v1.695h1.205v3.208
		c0.014,1.625,0.995,2.241,2.577,2.241c0.728,0,1.513-0.21,1.975-0.532z M176.491,241.496c-1.023,0-1.793,0.476-2.213,1.401v-4.23
		h-2.381v9.973h2.381v-3.684c0-1.177,0.574-1.653,1.261-1.653c0.588,0,0.995,0.336,0.995,1.331v4.006h2.381v-4.665
		C178.914,242.351,177.934,241.496,176.491,241.496z M181.767,240.824c0.967,0,1.387-0.35,1.387-1.135
		c0-0.798-0.42-1.149-1.387-1.149s-1.387,0.35-1.387,1.149C180.38,240.474,180.8,240.824,181.767,240.824z M182.957,241.636h-2.381
		v7.004h2.381z M189.244,241.496c-1.107,0-1.961,0.504-2.395,1.499l-0.07-1.359h-2.129v7.004h2.381v-3.698
		c0-1.163,0.574-1.625,1.261-1.625c0.588,0,0.995,0.322,0.995,1.317v4.006h2.381v-4.665
		C191.668,242.351,190.687,241.496,189.244,241.496z M197.77,247.085h-2.395c-0.462,0-0.728-0.168-0.728-0.476
		c0-0.252,0.126-0.406,0.448-0.49c0.392,0.084,0.84,0.126,1.345,0.126c2.171,0,3.418-0.854,3.418-2.367
		c0-0.868-0.406-1.527-1.177-1.933c0.21-0.434,0.756-0.728,1.639-0.602l-0.266-1.583c-1.373-0.112-2.031,0.798-2.213,1.877
		c-0.406-0.084-0.882-0.14-1.401-0.14c-2.171,0-3.418,0.868-3.418,2.381c0,0.868,0.392,1.513,1.135,1.919
		c-0.672,0.238-1.135,0.756-1.135,1.429c0,0.728,0.462,1.191,1.065,1.457c-0.91,0.21-1.289,0.742-1.289,1.317
		c0,1.009,1.051,1.653,3.586,1.653c2.367,0,3.936-0.84,3.936-2.465C200.32,247.785,199.381,247.085,197.77,247.085z M196.44,242.855
		c0.616,0,1.037,0.406,1.037,1.023s-0.42,1.009-1.037,1.009s-1.037-0.392-1.037-1.009S195.823,242.855,196.44,242.855z
		 M196.552,250.111c-1.359,0-1.947-0.238-1.947-0.644c0-0.336,0.294-0.49,1.065-0.49h1.919c0.644,0,0.854,0.168,0.854,0.448
		C198.443,249.817,197.84,250.111,196.552,250.111z M206.448,240.824c0.967,0,1.387-0.35,1.387-1.135
		c0-0.798-0.42-1.149-1.387-1.149s-1.387,0.35-1.387,1.149C205.062,240.474,205.482,240.824,206.448,240.824z M207.639,241.636
		h-2.381v7.004h2.381z M213.926,241.496c-1.107,0-1.961,0.504-2.395,1.499l-0.07-1.359h-2.129v7.004h2.381v-3.698
		c0-1.163,0.574-1.625,1.261-1.625c0.588,0,0.995,0.322,0.995,1.317v4.006h2.381v-4.665
		C216.349,242.351,215.369,241.496,213.926,241.496z M226.75,246.777c-0.28,0.196-0.574,0.308-1.009,0.308
		c-0.588,0-0.924-0.266-0.924-0.939v-2.816h2.101v-1.695h-2.101v-2.227l-2.381,0.658v1.569h-1.205v1.695h1.205v3.208
		c0.014,1.625,0.995,2.241,2.577,2.241c0.728,0,1.513-0.21,1.975-0.532z M232.756,241.496c-1.023,0-1.793,0.476-2.213,1.401v-4.23
		h-2.381v9.973h2.381v-3.684c0-1.177,0.574-1.653,1.261-1.653c0.588,0,0.995,0.336,0.995,1.331v4.006h2.381v-4.665
		C235.179,242.351,234.199,241.496,232.756,241.496z M243.663,245.04c0-2.213-1.219-3.544-3.502-3.544
		c-2.339,0-3.656,1.331-3.656,3.642s1.331,3.642,3.782,3.642c1.625,0,2.816-0.616,3.222-1.835l-1.933-0.616
		c-0.154,0.49-0.588,0.77-1.289,0.77c-0.798,0-1.317-0.364-1.471-1.275h4.777C243.635,245.642,243.663,245.278,243.663,245.04z
		 M240.147,243.163c0.742,0,1.177,0.476,1.303,1.373h-2.633C238.942,243.583,239.391,243.163,240.147,243.163z M253.433,247.085
		h-2.395c-0.462,0-0.728-0.168-0.728-0.476c0-0.252,0.126-0.406,0.448-0.49c0.392,0.084,0.84,0.126,1.345,0.126
		c2.171,0,3.418-0.854,3.418-2.367c0-0.868-0.406-1.527-1.177-1.933c0.21-0.434,0.756-0.728,1.639-0.602l-0.266-1.583
		c-1.373-0.112-2.031,0.798-2.213,1.877c-0.406-0.084-0.882-0.14-1.401-0.14c-2.171,0-3.418,0.868-3.418,2.381
		c0,0.868,0.392,1.513,1.135,1.919c-0.672,0.238-1.135,0.756-1.135,1.429c0,0.728,0.462,1.191,1.065,1.457
		c-0.91,0.21-1.289,0.742-1.289,1.317c0,1.009,1.051,1.653,3.586,1.653c2.367,0,3.936-0.84,3.936-2.465
		C255.983,247.785,255.044,247.085,253.433,247.085z M252.103,242.855c0.616,0,1.037,0.406,1.037,1.023s-0.42,1.009-1.037,1.009
		s-1.037-0.392-1.037-1.009S251.486,242.855,252.103,242.855z M252.215,250.111c-1.359,0-1.947-0.238-1.947-0.644
		c0-0.336,0.294-0.49,1.065-0.49h1.919c0.644,0,0.854,0.168,0.854,0.448C254.106,249.817,253.503,250.111,252.215,250.111z
		 M258.108,240.824c0.967,0,1.387-0.35,1.387-1.135c0-0.798-0.42-1.149-1.387-1.149s-1.387,0.35-1.387,1.149
		C256.721,240.474,257.141,240.824,258.108,240.824z M259.298,241.636h-2.381v7.004h2.381z M265.319,241.496
		c-1.093,0-1.779,0.602-2.129,1.639l-0.098-1.499h-2.101v7.004h2.381v-3.53c0-1.107,0.728-1.653,1.569-1.653
		c0.364,0,0.7,0.098,0.882,0.21l0.252-2.017C265.921,241.566,265.669,241.496,265.319,241.496z M269.364,238.667h-2.381v7.9
		c0,1.555,0.63,2.213,2.129,2.213c0.518,0,1.121-0.14,1.457-0.35l0.154-1.471c-0.252,0.084-0.434,0.126-0.714,0.126
		c-0.49,0-0.644-0.252-0.644-0.868z M278.296,248.78c2.255,0,3.334-1.009,3.334-2.297c0-1.205-0.826-1.863-2.9-2.227
		c-0.981-0.182-1.289-0.364-1.289-0.644s0.364-0.532,1.065-0.532c0.84,0,1.457,0.28,1.905,0.939l1.233-1.205
		c-0.602-0.826-1.527-1.317-3.208-1.317c-2.283,0-3.376,1.177-3.376,2.325s0.77,1.835,2.9,2.255c0.939,0.196,1.275,0.364,1.275,0.63
		c0,0.294-0.392,0.49-1.051,0.49c-0.896,0-1.653-0.294-2.073-0.995l-1.233,1.345C275.593,248.416,276.755,248.78,278.296,248.78z
		 M287.453,241.496c-1.107,0-1.961,0.504-2.395,1.499l-0.07-1.359h-2.129v7.004h2.381v-3.698c0-1.163,0.574-1.625,1.261-1.625
		c0.588,0,0.995,0.322,0.995,1.317v4.006h2.381v-4.665C289.876,242.351,288.896,241.496,287.453,241.496z M298.304,247.281
		c-0.336,0-0.504-0.182-0.504-0.546v-2.549c0-1.807-1.191-2.689-3.348-2.689c-1.905,0-2.998,0.826-3.236,2.157l1.933,0.56
		c0.14-0.812,0.63-1.079,1.303-1.079c0.63,0,0.995,0.406,0.995,1.037v0.252l-1.583,0.308c-1.989,0.392-2.731,1.135-2.731,2.297
		c0,1.135,0.784,1.751,2.171,1.751c1.289,0,2.101-0.406,2.493-1.079c0.21,0.756,0.868,1.079,1.807,1.079
		c0.35,0,0.672-0.07,0.953-0.224l0.182-1.331C298.612,247.267,298.472,247.281,298.304,247.281z M294.172,247.239
		c-0.434,0-0.686-0.21-0.686-0.602s0.238-0.588,0.826-0.728l1.135-0.266v0.602C295.447,246.889,294.76,247.239,294.172,247.239z
		 M304.169,241.496c-1.149,0-1.961,0.658-2.339,1.625l-0.07-1.485h-2.087v9.945h2.381v-4.104c0.392,0.784,1.107,1.303,2.115,1.303
		c1.793,0,2.886-1.345,2.886-3.67C307.054,242.827,305.99,241.496,304.169,241.496z M303.342,247.029
		c-0.826,0-1.289-0.658-1.289-1.821v-0.14c0-1.205,0.49-1.821,1.289-1.821c0.812,0,1.317,0.574,1.317,1.891
		S304.155,247.029,303.342,247.029z M311.364,248.78c2.255,0,3.334-1.009,3.334-2.297c0-1.205-0.826-1.863-2.9-2.227
		c-0.981-0.182-1.289-0.364-1.289-0.644s0.364-0.532,1.065-0.532c0.84,0,1.457,0.28,1.905,0.939l1.233-1.205
		c-0.602-0.826-1.527-1.317-3.208-1.317c-2.283,0-3.376,1.177-3.376,2.325s0.77,1.835,2.9,2.255c0.939,0.196,1.275,0.364,1.275,0.63
		c0,0.294-0.392,0.49-1.051,0.49c-0.896,0-1.653-0.294-2.073-0.995l-1.233,1.345C308.66,248.416,309.823,248.78,311.364,248.78z
		 M325.337,243.919h-5.127v1.947h5.127z M332.729,243.919h-5.127v1.947h5.127z"/>
	<path fill="#000000" d="M272.528,290.78c-1.961,0-3.25-0.854-3.894-2.003l0.967-0.784c0.49,1.065,1.443,1.737,2.956,1.737
		c1.429,0,2.381-0.532,2.381-1.527c0-0.798-0.602-1.261-2.549-1.597c-2.493-0.434-3.39-1.191-3.39-2.605
		c0-1.485,1.303-2.745,3.446-2.745c1.695,0,2.858,0.672,3.572,1.961L275.05,284c-0.56-1.219-1.233-1.695-2.591-1.695
		c-1.471,0-2.283,0.686-2.283,1.569c0,0.869,0.616,1.303,2.563,1.639c2.479,0.42,3.362,1.205,3.362,2.633
		C276.1,289.729,274.685,290.78,272.528,290.78 M222.578,290.78c-2.633,0-4.286-1.835-4.286-4.763c0-2.928,1.653-4.763,4.286-4.763
		c2.633,0,4.286,1.835,4.286,4.763C226.864,288.945,225.211,290.78,222.578,290.78 M222.578,282.305c-1.919,0-3.11,1.387-3.11,3.712
		c0,2.325,1.191,3.712,3.11,3.712s3.11-1.387,3.11-3.712C225.687,283.692,224.497,282.305,222.578,282.305 M208.158,290.78
		c-1.961,0-3.25-0.854-3.894-2.003l0.966-0.784c0.49,1.065,1.443,1.737,2.956,1.737c1.429,0,2.381-0.532,2.381-1.527
		c0-0.798-0.602-1.261-2.549-1.597c-2.493-0.434-3.39-1.191-3.39-2.605c0-1.485,1.303-2.745,3.446-2.745
		c1.695,0,2.857,0.672,3.572,1.961L210.679,284c-0.56-1.219-1.233-1.695-2.591-1.695c-1.471,0-2.283,0.686-2.283,1.569
		c0,0.869,0.616,1.303,2.563,1.639c2.479,0.42,3.362,1.205,3.362,2.633C211.73,289.729,210.315,290.78,208.158,290.78
		 M119.287,290.78c-1.961,0-3.25-0.854-3.894-2.003l0.967-0.784c0.49,1.065,1.443,1.737,2.956,1.737
		c1.429,0,2.381-0.532,2.381-1.527c0-0.798-0.602-1.261-2.549-1.597c-2.493-0.434-3.39-1.191-3.39-2.605
		c0-1.485,1.303-2.745,3.446-2.745c1.695,0,2.858,0.672,3.572,1.961L121.808,284c-0.56-1.219-1.233-1.695-2.591-1.695
		c-1.471,0-2.283,0.686-2.283,1.569c0,0.869,0.616,1.303,2.563,1.639c2.479,0.42,3.362,1.205,3.362,2.633
		C122.859,289.729,121.444,290.78,119.287,290.78 M101.941,290.78c-2.325,0-3.628-1.205-3.628-3.586v-5.799h1.121v5.519
		c0,1.933,0.784,2.816,2.507,2.816c1.723,0,2.507-0.883,2.507-2.816v-5.519h1.121v5.799
		C105.569,289.575,104.281,290.78,101.941,290.78 M92.002,290.78c-2.633,0-4.286-1.835-4.286-4.763c0-2.928,1.723-4.763,4.314-4.763
		c1.835,0,2.984,0.686,3.698,2.115l-1.023,0.56c-0.406-1.065-1.387-1.625-2.675-1.625c-1.877,0-3.138,1.387-3.138,3.712
		c0,2.325,1.093,3.712,3.152,3.712c1.541,0,2.731-0.784,2.731-2.381v-0.322h-2.942v-1.051h3.964v4.665h-0.84l-0.042-1.247
		C94.383,290.262,93.416,290.78,92.002,290.78 M76.952,290.78c-2.325,0-3.628-1.205-3.628-3.586v-5.799h1.121v5.519
		c0,1.933,0.784,2.816,2.507,2.816c1.723,0,2.507-0.883,2.507-2.816v-5.519h1.121v5.799C80.58,289.575,79.291,290.78,76.952,290.78
		 M66.676,290.78c-2.633,0-4.286-1.835-4.286-4.763c0-2.928,1.653-4.763,4.286-4.763c2.633,0,4.286,1.835,4.286,4.763
		C70.963,288.945,69.31,290.78,66.676,290.78 M66.676,282.305c-1.919,0-3.11,1.387-3.11,3.712c0,2.325,1.191,3.712,3.11,3.712
		c1.919,0,3.11-1.387,3.11-3.712C69.786,283.692,68.595,282.305,66.676,282.305 M330.013,290.64h-6.415v-9.245h1.121v8.194h5.295
		V290.64 M321.726,290.64h-1.191l-0.981-2.563h-4.188l-0.981,2.563h-1.177l3.6-9.245h1.331L321.726,290.64 M317.44,282.459
		l-0.406,1.247l-1.261,3.32h3.376l-1.247-3.278l-0.434-1.289H317.44 M312.122,290.64h-6.696v-9.245h6.485v1.051h-5.365v2.984h4.174
		v1.051h-4.174v3.11h5.575V290.64 M303.302,290.64h-1.331l-2.521-3.838h-2.213v3.838h-1.121v-9.245h3.502
		c1.877,0,3.124,1.037,3.124,2.704c0,1.317-0.784,2.241-2.045,2.577L303.302,290.64 M297.237,282.445v3.306h2.367
		c1.317,0,1.961-0.546,1.961-1.653c0-1.107-0.644-1.653-1.961-1.653H297.237 M290.03,290.64h-1.191l-0.981-2.563h-4.188
		l-0.981,2.563h-1.177l3.6-9.245h1.331L290.03,290.64 M285.744,282.459l-0.406,1.247l-1.261,3.32h3.376l-1.247-3.278l-0.434-1.289
		H285.744 M260.727,290.64h-1.121v-8.194h-3.222v-1.051h7.564v1.051h-3.222V290.64 M254.426,290.64h-1.121v-9.245h1.121V290.64
		 M246.295,290.64h-6.696v-9.245h6.485v1.051h-5.365v2.984h4.174v1.051h-4.174v3.11h5.575V290.64 M236.579,290.64h-1.387
		l-3.866-6.191l-0.981-1.821h-0.014l0.056,1.485v6.527h-1.064v-9.245h1.387l3.852,6.163l0.995,1.849h0.014l-0.056-1.485v-6.528
		h1.065V290.64 M202.081,290.64h-1.121v-9.245h1.121V290.64 M197.94,290.64h-1.121v-4.16h-5.015v4.16h-1.121v-9.245h1.121v4.034
		h5.015v-4.034h1.121V290.64 M185.506,290.64h-1.121v-8.194h-3.222v-1.051h7.564v1.051h-3.222V290.64 M170.722,290.64h-2.984v-9.245
		h2.984c2.9,0,4.65,1.653,4.65,4.622C175.373,288.987,173.622,290.64,170.722,290.64 M168.859,282.445v7.144h1.975
		c2.115,0,3.362-1.331,3.362-3.572c0-2.241-1.247-3.572-3.362-3.572H168.859 M165.614,290.64h-1.331l-2.521-3.838h-2.213v3.838
		h-1.121v-9.245h3.502c1.877,0,3.124,1.037,3.124,2.704c0,1.317-0.784,2.241-2.045,2.577L165.614,290.64 M159.549,282.445v3.306
		h2.367c1.317,0,1.961-0.546,1.961-1.653c0-1.107-0.644-1.653-1.961-1.653H159.549 M156.557,290.64h-1.191l-0.981-2.563h-4.188
		l-0.98,2.563h-1.177l3.6-9.245h1.331L156.557,290.64 M152.27,282.459l-0.406,1.247l-1.261,3.32h3.376l-1.247-3.278l-0.434-1.289
		H152.27 M146.953,290.64h-6.696v-9.245h6.486v1.051h-5.365v2.984h4.174v1.051h-4.174v3.11h5.575V290.64 M137.237,290.64h-1.121
		v-4.16h-5.015v4.16h-1.121v-9.245h1.121v4.034h5.015v-4.034h1.121V290.64 M111.545,290.64h-1.121v-3.614l-3.306-5.631h1.331
		l2.535,4.482l2.535-4.482h1.331l-3.306,5.631V290.64 M58.276,290.64h-1.121v-3.614l-3.306-5.631h1.331l2.535,4.482l2.535-4.482
		h1.331l-3.306,5.631V290.64 M48.8,290.64h-6.696v-9.245h6.485v1.051h-5.365v2.984h4.174v1.051h-4.174v3.11H48.8V290.64
		 M36.702,290.64h-1.275l-3.516-9.245h1.205l2.353,6.388l0.588,1.835l0.588-1.821L39,281.395h1.205L36.702,290.64 M32.001,290.64
		H30.81l-0.981-2.563h-4.188l-0.981,2.563h-1.177l3.6-9.245h1.331L32.001,290.64 M27.714,282.459l-0.406,1.247l-1.261,3.32h3.376
		l-1.247-3.278l-0.434-1.289H27.714 M21.613,290.64h-1.121v-4.16h-5.015v4.16h-1.121v-9.245h1.121v4.034h5.015v-4.034h1.121V290.64
		 M265.751,284.561l-0.588-0.546c0.756-0.252,1.247-0.84,1.373-1.429l-0.056-0.028c-0.07,0.056-0.168,0.098-0.392,0.098
		c-0.336,0-0.77-0.28-0.77-0.883c0-0.504,0.406-0.939,0.91-0.939c0.658,0,1.051,0.56,1.051,1.359
		C267.277,283.132,266.815,284.056,265.751,284.561 M11.068,284.561c-0.658,0-1.051-0.56-1.051-1.359
		c0-0.939,0.462-1.863,1.527-2.367l0.588,0.546c-0.756,0.252-1.247,0.84-1.373,1.429l0.056,0.028
		c0.07-0.056,0.168-0.098,0.392-0.098c0.336,0,0.77,0.28,0.77,0.882C11.979,284.126,11.573,284.561,11.068,284.561 M8.435,284.561
		c-0.658,0-1.051-0.56-1.051-1.359c0-0.939,0.462-1.863,1.527-2.367l0.588,0.546c-0.756,0.252-1.247,0.84-1.373,1.429l0.056,0.028
		c0.07-0.056,0.168-0.098,0.392-0.098c0.336,0,0.77,0.28,0.77,0.882C9.345,284.126,8.939,284.561,8.435,284.561"/>
	<path fill="#000000" d="M274.067,311.78c-0.546,0-0.91-0.364-0.91-0.911c0-0.546,0.364-0.91,0.91-0.91
		c0.546,0,0.911,0.364,0.911,0.91C274.978,311.416,274.614,311.78,274.067,311.78 M261.203,311.78c-2.241,0-3.446-1.667-3.446-4.763
		c0-3.096,1.205-4.763,3.446-4.763c2.241,0,3.446,1.667,3.446,4.763C264.648,310.113,263.444,311.78,261.203,311.78
		 M261.203,303.263c-1.485,0-2.283,1.317-2.283,3.754c0,2.437,0.798,3.754,2.283,3.754c1.485,0,2.283-1.317,2.283-3.754
		C263.486,304.58,262.687,303.263,261.203,303.263 M252.495,311.78c-2.241,0-3.446-1.667-3.446-4.763
		c0-3.096,1.205-4.763,3.446-4.763c2.241,0,3.446,1.667,3.446,4.763C255.941,310.113,254.736,311.78,252.495,311.78
		 M252.495,303.263c-1.485,0-2.283,1.317-2.283,3.754c0,2.437,0.798,3.754,2.283,3.754c1.485,0,2.283-1.317,2.283-3.754
		C254.778,304.58,253.98,303.263,252.495,303.263 M219.876,311.78c-2.633,0-4.286-1.835-4.286-4.763
		c0-2.928,1.653-4.763,4.286-4.763c2.633,0,4.286,1.835,4.286,4.763C224.162,309.945,222.509,311.78,219.876,311.78
		 M219.876,303.305c-1.919,0-3.11,1.387-3.11,3.712c0,2.325,1.191,3.712,3.11,3.712c1.919,0,3.11-1.387,3.11-3.712
		C222.985,304.692,221.795,303.305,219.876,303.305 M209.404,311.78c-2.633,0-4.286-1.835-4.286-4.763
		c0-2.928,1.653-4.763,4.286-4.763c2.633,0,4.286,1.835,4.286,4.763C213.69,309.945,212.037,311.78,209.404,311.78 M209.404,303.305
		c-1.919,0-3.11,1.387-3.11,3.712c0,2.325,1.191,3.712,3.11,3.712s3.11-1.387,3.11-3.712
		C212.514,304.692,211.323,303.305,209.404,303.305 M199.268,311.78c-2.633,0-4.286-1.835-4.286-4.763
		c0-2.928,1.723-4.763,4.314-4.763c1.835,0,2.984,0.686,3.698,2.115l-1.023,0.56c-0.406-1.065-1.387-1.625-2.675-1.625
		c-1.877,0-3.138,1.387-3.138,3.712c0,2.325,1.093,3.712,3.152,3.712c1.541,0,2.731-0.784,2.731-2.381v-0.322H199.1v-1.051h3.964
		v4.664h-0.84l-0.042-1.247C201.649,311.262,200.683,311.78,199.268,311.78 M171.954,311.78c-1.961,0-3.25-0.854-3.894-2.003
		l0.967-0.784c0.49,1.065,1.443,1.737,2.956,1.737c1.429,0,2.381-0.532,2.381-1.527c0-0.798-0.602-1.261-2.549-1.597
		c-2.493-0.434-3.39-1.191-3.39-2.605c0-1.485,1.303-2.745,3.446-2.745c1.695,0,2.858,0.672,3.572,1.961L174.475,305
		c-0.56-1.219-1.233-1.695-2.591-1.695c-1.471,0-2.283,0.686-2.283,1.569c0,0.868,0.616,1.303,2.563,1.639
		c2.479,0.42,3.362,1.205,3.362,2.633C175.526,310.729,174.111,311.78,171.954,311.78 M119.595,311.78
		c-1.961,0-3.25-0.854-3.894-2.003l0.966-0.784c0.49,1.065,1.443,1.737,2.956,1.737c1.429,0,2.381-0.532,2.381-1.527
		c0-0.798-0.602-1.261-2.549-1.597c-2.493-0.434-3.39-1.191-3.39-2.605c0-1.485,1.303-2.745,3.446-2.745
		c1.695,0,2.858,0.672,3.572,1.961L122.116,305c-0.56-1.219-1.233-1.695-2.591-1.695c-1.471,0-2.283,0.686-2.283,1.569
		c0,0.868,0.616,1.303,2.563,1.639c2.479,0.42,3.362,1.205,3.362,2.633C123.167,310.729,121.752,311.78,119.595,311.78
		 M87.55,311.78c-2.633,0-4.286-1.835-4.286-4.763c0-2.928,1.653-4.763,4.286-4.763c2.633,0,4.286,1.835,4.286,4.763
		C91.836,309.945,90.183,311.78,87.55,311.78 M87.55,303.305c-1.919,0-3.11,1.387-3.11,3.712c0,2.325,1.191,3.712,3.11,3.712
		s3.11-1.387,3.11-3.712C90.66,304.692,89.469,303.305,87.55,303.305 M65.401,311.78c-0.546,0-0.911-0.364-0.911-0.911
		c0-0.546,0.364-0.91,0.911-0.91c0.546,0,0.91,0.364,0.91,0.91C66.311,311.416,65.947,311.78,65.401,311.78 M40.399,311.78
		c-2.633,0-4.286-1.835-4.286-4.763c0-2.928,1.723-4.763,4.314-4.763c1.835,0,2.984,0.686,3.698,2.115l-1.022,0.56
		c-0.406-1.065-1.387-1.625-2.675-1.625c-1.877,0-3.138,1.387-3.138,3.712c0,2.325,1.093,3.712,3.152,3.712
		c1.541,0,2.731-0.784,2.731-2.381v-0.322h-2.942v-1.051h3.964v4.664h-0.84l-0.042-1.247C42.78,311.262,41.813,311.78,40.399,311.78
		 M269.337,311.64h-1.149c0-2.984,1.079-5.855,3.236-8.194h-5.589v-1.051h6.808v1.051
		C270.303,305.897,269.337,308.516,269.337,311.64 M247.232,311.64h-6.219v-0.91c3.698-2.717,4.847-3.936,4.847-5.575
		c0-1.093-0.756-1.849-1.961-1.849c-1.275,0-2.073,0.896-2.199,2.283L240.719,305c0.238-1.611,1.345-2.745,3.222-2.745
		c1.891,0,3.096,1.191,3.096,2.9c0,1.737-1.121,3.264-4.426,5.463v0.014c0.308-0.014,1.107-0.042,1.387-0.042h3.236V311.64
		 M229.605,311.64h-2.984v-9.245h2.984c2.9,0,4.65,1.653,4.65,4.622C234.256,309.987,232.505,311.64,229.605,311.64
		 M227.742,303.445v7.144h1.975c2.115,0,3.362-1.331,3.362-3.572c0-2.241-1.247-3.572-3.362-3.572H227.742 M189.456,311.64h-1.191
		l-0.981-2.563h-4.188l-0.981,2.563h-1.177l3.6-9.245h1.331L189.456,311.64 M185.17,303.46l-0.406,1.247l-1.261,3.32h3.376
		l-1.247-3.278l-0.434-1.289H185.17 M167.141,311.64h-1.191l-0.981-2.563h-4.188l-0.981,2.563h-1.177l3.6-9.245h1.331
		L167.141,311.64 M162.854,303.46l-0.406,1.247l-1.261,3.32h3.376l-1.247-3.278l-0.434-1.289H162.854 M156.753,311.64h-1.121v-4.16
		h-5.015v4.16h-1.121v-9.245h1.121v4.034h5.015v-4.034h1.121V311.64 M142.487,311.64h-6.696v-9.245h6.486v1.051h-5.365v2.984h4.174
		v1.051h-4.174v3.11h5.575V311.64 M132.771,311.64h-1.121v-4.16h-5.015v4.16h-1.121v-9.245h1.121v4.034h5.015v-4.034h1.121V311.64
		 M109.531,311.64h-6.696v-9.245h6.486v1.051h-5.365v2.984h4.174v1.051h-4.174v3.11h5.575V311.64 M95.416,311.64h-1.121v-9.245
		h3.264c1.863,0,3.11,1.079,3.11,2.815c0,1.737-1.247,2.816-3.11,2.816h-2.143V311.64 M95.416,303.445v3.53h1.975
		c1.457,0,2.101-0.616,2.101-1.765c0-1.149-0.644-1.765-2.101-1.765H95.416 M80.804,311.64h-1.121v-4.16h-5.015v4.16h-1.121v-9.245
		h1.121v4.034h5.015v-4.034h1.121V311.64 M62.926,311.64h-1.331l-2.521-3.838h-2.213v3.838H55.74v-9.245h3.502
		c1.877,0,3.124,1.037,3.124,2.703c0,1.317-0.784,2.241-2.045,2.577L62.926,311.64 M56.861,303.445v3.306h2.367
		c1.317,0,1.961-0.546,1.961-1.653c0-1.107-0.644-1.653-1.961-1.653H56.861 M53.504,311.64h-6.696v-9.245h6.486v1.051h-5.365v2.984
		h4.174v1.051h-4.174v3.11h5.575V311.64 M33.653,311.64h-1.387l-3.866-6.191l-0.981-1.821h-0.014l0.056,1.485v6.527h-1.065v-9.245
		h1.387l3.852,6.163l0.995,1.849h0.014l-0.056-1.485v-6.527h1.065V311.64 M24.525,311.64h-1.191l-0.981-2.563h-4.188l-0.981,2.563
		h-1.177l3.6-9.245h1.331L24.525,311.64 M20.239,303.46l-0.406,1.247l-1.261,3.32h3.376l-1.247-3.278l-0.434-1.289H20.239
		 M11.433,311.64H8.155v-9.245h3.292c2.185,0,3.152,0.981,3.152,2.549c0,0.939-0.56,1.793-1.555,1.989v0.014
		c1.093,0.21,1.793,1.093,1.793,2.101C14.836,310.617,13.618,311.64,11.433,311.64 M9.275,307.508v3.082h2.423
		c1.317,0,1.961-0.56,1.961-1.541s-0.644-1.541-1.961-1.541H9.275 M9.275,303.445v3.012h2.185c1.317,0,1.961-0.49,1.961-1.513
		c0-1.009-0.644-1.499-1.961-1.499H9.275 M278.184,305.561l-0.588-0.546c0.756-0.252,1.247-0.841,1.373-1.429l-0.056-0.028
		c-0.07,0.056-0.168,0.098-0.392,0.098c-0.336,0-0.77-0.28-0.77-0.883c0-0.504,0.406-0.938,0.91-0.938
		c0.658,0,1.051,0.56,1.051,1.359C279.711,304.132,279.249,305.056,278.184,305.561 M275.551,305.561l-0.588-0.546
		c0.756-0.252,1.247-0.841,1.373-1.429l-0.056-0.028c-0.07,0.056-0.168,0.098-0.392,0.098c-0.336,0-0.77-0.28-0.77-0.883
		c0-0.504,0.406-0.938,0.91-0.938c0.658,0,1.051,0.56,1.051,1.359C277.078,304.132,276.616,305.056,275.551,305.561"/>
</g>
</svg>
